<svg id="Layer_1" data-name="Layer 1" xmlns="http://www.w3.org/2000/svg" viewBox="0 0 200 200"><defs><style>.cls-1{fill:#fd0000;}.cls-2{fill:#fff;}.cls-3{font-size:10px;font-family:MyriadPro-Bold, Myriad Pro;font-weight:700;}</style></defs><title>ppi1</title><path class="cls-1" d="M184.93,103.48a.85.85,0,0,1,0-.23A.85.85,0,0,0,184.93,103.48Z"/><path class="cls-1" d="M28.31,54.13c.26.6-.51.87-.81,1.29h0C27.8,55,28.58,54.73,28.31,54.13Z"/><path class="cls-1" d="M63.15,184a3.38,3.38,0,0,0,2.46,1.1,1.62,1.62,0,0,0,1.35-.49,1.62,1.62,0,0,1-1.35.49A3.38,3.38,0,0,1,63.15,184Z"/><path class="cls-1" d="M27.49,55.44h0a29.56,29.56,0,0,1-2,3.82A29.91,29.91,0,0,0,27.49,55.44Z"/><path class="cls-1" d="M184.54,83a.13.13,0,0,1,.1,0A.13.13,0,0,0,184.54,83Z"/><path class="cls-1" d="M104.66,130.85q0,3.7,0,7.39,0,7.39,0,14.78,0-7.39,0-14.78Q104.66,134.55,104.66,130.85Z"/><path class="cls-1" d="M132.12,182.23l-.09-.08Z"/><path class="cls-1" d="M184.5,83.08a.82.82,0,0,0-.07.16h0A.82.82,0,0,1,184.5,83.08Z"/><path class="cls-1" d="M126.52,186.23a.16.16,0,0,1,0,.08A.16.16,0,0,0,126.52,186.23Z"/><path class="cls-1" d="M185,103.23a3.11,3.11,0,0,1,.34-.76h0A3.11,3.11,0,0,0,185,103.23Z"/><path class="cls-1" d="M134.39,181.87a.28.28,0,0,0,.15.18A.28.28,0,0,1,134.39,181.87Z"/><path class="cls-1" d="M133.19,185l-1.06-2.71h0Z"/><path class="cls-1" d="M134.75,181.76l-.11-.28c-.31-.81-.64-1.61-.93-2.42.3.81.62,1.62.93,2.42l-.25.19.25-.19Z"/><path class="cls-1" d="M134.34,181.76l0,0,0,.07,0-.07Z"/><path class="cls-1" d="M165.54,40.81l-.1.15Z"/><path class="cls-1" d="M165.2,41.28a.46.46,0,0,1-.12.1A.46.46,0,0,0,165.2,41.28Z"/><path class="cls-1" d="M165.44,41l-.11.16Z"/><path d="M100.29,0A100,100,0,1,0,100,200c55.46-.24,99.83-44.33,100-99.68A99.59,99.59,0,0,0,100.29,0ZM100,198a98,98,0,1,1,98-97.78C198,154.11,154,198,100,198Z"/><path class="cls-1" d="M178.72,67.55v.07h0v-.07h0Z"/><path class="cls-2" d="M100.16,1.95A98,98,0,1,0,100,198c54,0,98-43.87,98-97.78A98,98,0,0,0,100.16,1.95Zm67.16,36.21c.25.28.62.5.38,1-.82,1.72-1.58,3.47-2.38,5.2-.11.23-.16.53-.47.56s-.83-.82-.68-1.26.56-.76.29-1.11A9,9,0,0,0,162.9,41c-.27-.22-.64,0-.93.21a.69.69,0,0,1-.91-.07c-.51-.46-.7-.77.13-1.1q2.61-1,5.17-2.16A.72.72,0,0,1,167.32,38.16Zm-6.45-6.35c.84.82,1.69,1.63,2.51,2.48a1.58,1.58,0,0,1,.27,1,1.48,1.48,0,0,1-1.37,1.45c-.43.06-.56.18-.46.64A1.52,1.52,0,0,1,161,39a1.69,1.69,0,0,1-1.9,0,28.84,28.84,0,0,1-2.65-2.31c-.33-.28-.14-.55.06-.78l3.7-4C160.4,31.7,160.62,31.56,160.87,31.81Zm-5.07-4.1q1.48,1.22,3,2.37c.32.24.32.39.1.72s-.45.49-.8.22c-.67-.51-1.36-1-2-1.55-.4-.36-.56-.16-.77.14s-.58.55-.11.92,1.09.9,1.66,1.31c.35.25.54.42.22.87s-.65.3-1,0-.78-.64-1.18-.95c-.79-.6-1.33-.41-1.71.53-.17.41.16.47.34.61.6.49,1.22.95,1.83,1.42.15.12.29.25.47.41a5.07,5.07,0,0,1-.5.68c-.22.22-.42,0-.61-.12q-1.5-1.19-3-2.37c-.39-.3-.35-.56-.07-.92q1.67-2.09,3.3-4.21C155.25,27.49,155.45,27.42,155.8,27.71Zm-9.44.35c1-1.4,2-2.79,2.95-4.21.32-.48.54-.43,1-.15s.43.58.14,1a4,4,0,0,0-.93,1.55c1.57.22,3.19-1.43,4.71.26a2.15,2.15,0,0,1-1.34.49c-1.91.27-1.91.27-1.93,2.19,0,.9,0,1.8,0,2.79-1.08-.3-1.66-.76-1.47-1.82a7.81,7.81,0,0,0,.1-1.41c0-.34.28-.84-.17-1a1.17,1.17,0,0,0-1.36.4c-.18.24-.39.47-.54.73-.29.49-.62.52-1.07.19S146.11,28.41,146.37,28.06Zm-1-7.36c.52.26.48.48.23.92-.87,1.51-1.7,3-2.53,4.59a.69.69,0,0,1-.66.46c-.18-.33-1.07-.18-.58-1,.9-1.53,1.75-3.1,2.58-4.67C144.68,20.48,144.91,20.47,145.38,20.7Zm-5.89-1.81c-.36-.14-1-.21-.65-.87s.76-.35,1.23-.1c1,.54,2,1,3.05,1.53.27.13.57.23.58.62-.27.25-.21,1-1,.51-1.12-.67-1.16-.61-1.75.56s-1,2-1.54,3c-.22.47-.48.59-.94.33s-.62-.39-.31-.93c.62-1.07,1.08-2.23,1.7-3.31C140.28,19.58,140.26,19.19,139.48,18.88Zm-2.08-2.21c.24.17.71.14.66.69-.1.22-.24.49-.36.77-.64,1.44-1.29,2.87-1.9,4.32-.21.51-.48.52-.94.33s-.54-.41-.34-.84c.75-1.64,1.47-3.3,2.21-4.94C136.86,16.72,137,16.41,137.41,16.67Zm-8.1,1.59c.39,0,1,0,1,.69s.57,1.16,1.28,1.3a.83.83,0,0,0,1-.43c.19-.42-.08-.71-.38-.95s-.78-.52-1.14-.82c-1-.83-1.22-1.6-.78-2.45a1.87,1.87,0,0,1,2.52-.83c.93.29,1.85.7,2,1.87,0,.36.18.87-.33.88-.34,0-.91,0-1-.64a1.19,1.19,0,0,0-1.17-1c-.29,0-.64-.09-.8.25s.08.58.31.78c.52.43,1.07.82,1.57,1.27a1.54,1.54,0,0,1,.65,1.38,1.92,1.92,0,0,1-1,1.76c-1,.63-1.88.13-2.75-.27a2.07,2.07,0,0,1-1.36-2C129,18.76,128.83,18.24,129.31,18.26Zm-4.48-6.12c.88.32,1.81.49,2.69.8a1.62,1.62,0,0,1,1.23,1.66,1.79,1.79,0,0,1-1.39,1.84c-.39.11-.58.16-.31.65a13.05,13.05,0,0,1,.79,2.06c.15.42.06.67-.47.53a1.48,1.48,0,0,1-1.25-1.13,12.19,12.19,0,0,0-.76-2,.78.78,0,0,0-.84-.44c-.31,0-.37.37-.44.62-.13.42-.2.85-.35,1.26s0,.76-.61.51c-.39-.17-.87-.17-.67-.85.48-1.68.9-3.37,1.34-5.06C124,12,124.24,11.92,124.83,12.14Zm-8.36,4.25c.38-1.81.77-3.61,1.14-5.43a.48.48,0,0,1,.65-.44l3.65.79c.43.09.68.25.5.76s-.37.54-.84.38c-.66-.23-1.37-.33-2.06-.49-.5-.12-.77.1-.86.58s-.06.76.54.83a19.42,19.42,0,0,1,2,.41c.37.08.64.23.46.69s-.21.62-.7.45-1.13-.2-1.67-.37c-.71-.23-1-.06-1.14.7s.07.89.68,1,1.38.28,2.07.42c.41.08.72.22.57.73s-.34.51-.76.41c-1.24-.29-2.5-.56-3.75-.79l-.14,0C116.48,16.88,116.38,16.72,116.47,16.39Zm-5.45-7c.46,0,1,0,1.08.63.25,1.35.55,2.69.83,4l.23,0c.58-1.2,1.19-2.39,1.72-3.61.25-.58.58-.64,1.1-.51s.54.26.31.7c-.86,1.67-1.67,3.36-2.5,5a.88.88,0,0,1-1,.55.94.94,0,0,1-.89-.81c-.39-1.74-.79-3.48-1.15-5.22C110.65,9.87,110.37,9.37,111,9.34ZM107.83,15q.19-2.61.36-5.23c0-.45.18-.68.68-.62s.82.09.73.68c0,.33,0,.67-.07,1h0c-.09,1.41-.2,2.82-.25,4.22,0,.57-.24.76-.8.74S107.8,15.44,107.83,15Zm-6.48-5.73c0-.29,0-.58.39-.57s.84-.13,1.14.4c.68,1.22,1.45,2.4,2.18,3.59l.25-.07q0-1.55,0-3.11c0-.43,0-.8.63-.79s.66.37.65.8q0,2.48-.1,5c0,.32.09.79-.34.84s-.94.16-1.25-.39c-.54-1-1.13-1.91-1.71-2.86-.11-.19-.17-.5-.48-.39s-.14.34-.15.53c0,.81,0,1.62,0,2.43,0,.45-.18.7-.67.66s-.57-.23-.56-.66C101.31,12.82,101.33,11,101.35,9.25ZM179,100.47a78.94,78.94,0,1,1-157.88-.36c.14-43.78,35.17-78.53,79-78.72A78.89,78.89,0,0,1,179,100.47ZM94.53,9.21c0-.5.39-.46.72-.48.49,0,.65.24.66.68,0,1.14,0,2.29.07,3.43s.44,1.42,1.31,1.39,1.2-.59,1.15-1.42c0-.54,0-1.08,0-1.61h0c0-.64,0-1.28,0-1.92,0-.4.13-.64.59-.61s.74,0,.74.47a20.07,20.07,0,0,1-.06,4.62,2.12,2.12,0,0,1-2.39,1.69c-1.44,0-2.31-.48-2.58-1.61A23.06,23.06,0,0,1,94.53,9.21Zm-9.1,6.48c.48-1.68.84-3.39,1.26-5.08.14-.58.38-1,1.09-1.13s.82.41,1.05.84c.84,1.53,1.64,3.08,2.55,4.57.5.81.13.92-.54.94-.4.06-.59-.12-.77-.48s-.44-1.08-1.17-.82S87,14.28,86.8,15.66a.71.71,0,0,1-.7.72C85.54,16.44,85.21,16.47,85.43,15.68ZM83,10.32c.41-.15.69,0,.76.38.33,1.82.63,3.65.95,5.47.08.52-.3.58-.67.68s-.59-.08-.67-.5c-.31-1.79-.63-3.58-1-5.36C82.21,10.39,82.62,10.44,83,10.32ZM77.61,11.4a4,4,0,0,1,1.49-.27,1.66,1.66,0,0,1,1.51.62c.19.23.65.5.3.81s-.79.66-1.24.18a1.19,1.19,0,0,0-1.62-.27c-.23.13-.62.25-.5.66a.76.76,0,0,0,.69.52c.47,0,.94,0,1.41,0a2.1,2.1,0,0,1,2.29,1.82c.12,1-.55,1.85-1.79,2.21-1.4.4-2.59.19-3.1-.65-.13-.21-.64-.54-.19-.82s.75-.69,1.22-.08a1.4,1.4,0,0,0,1.71.45.91.91,0,0,0,.74-.94c0-.58-.49-.56-.88-.6-.57-.06-1.14,0-1.71-.13a1.78,1.78,0,0,1-1.72-1.57A1.82,1.82,0,0,1,77.61,11.4Zm-7.46,2.28c1.18-.36,2.36-.74,3.54-1.11.35-.11.64-.16.79.31s-.07.68-.48.8c-.7.22-1.39.5-2.1.66s-.52.43-.39.88.4.64.89.46,1.29-.39,1.91-.64c.45-.18.64.06.76.39s-.05.62-.45.74c-.61.17-1.2.42-1.82.57s-.65.54-.48,1.06.37.88,1,.58a21.84,21.84,0,0,1,2.09-.71c.56-.18.83.06.85.42s-.15.59-.39.67L72.19,20c-.35.12-.56.07-.68-.32-.56-1.73-1.14-3.44-1.71-5.17C69.69,14.14,69.7,13.82,70.15,13.68ZM63.5,16.16c.41-.23.77-.45,1.27,0,1,.85,2.05,1.6,3.08,2.39l.25-.21c-.36-.93-.71-1.86-1.09-2.78-.2-.46-.13-.68.37-.92s.68.07.81.4c.65,1.62,1.28,3.25,1.92,4.88.12.3.17.6-.16.8a1.06,1.06,0,0,1-1.31,0l-2.16-1.66a2.57,2.57,0,0,0-1-.62,10.09,10.09,0,0,0,.92,2.75c.19.49.27.81-.29,1s-.76-.18-.92-.6c-.58-1.5-1.16-3-1.73-4.51C63.27,16.8,63,16.43,63.5,16.16ZM60.16,18c1.71,0,3.4,1.83,3.42,3.74a3.37,3.37,0,0,1-3.35,3.12,3.8,3.8,0,0,1-3.35-3.69A3.34,3.34,0,0,1,60.16,18Zm-9.58,5.14c.81-.4,1.5-1,2.35-1.35a2.27,2.27,0,0,1,2.58.51,4.52,4.52,0,0,1,1.61,2.86,2.76,2.76,0,0,1-1.34,2.5c-2.22,1.59-2.21,1.59-3.62-.69-.58-.94-1.17-1.88-1.79-2.8C50.07,23.72,50,23.4,50.57,23.13Zm-6,4.09c.35-.27.64-.74,1.3-.39,1.09.58,2.25,1,3.39,1.52.13.06.25.08.45-.13-.55-.79-1.09-1.61-1.68-2.4-.33-.44-.47-.76.08-1.16s.7.07.91.37q1.44,2,2.86,4c.18.26.54.55.17.87s-.64.75-1.29.41c-1-.51-2-.88-3-1.32-.22-.09-.41-.25-.73,0,.55.8,1.08,1.62,1.66,2.39.36.47.38.75-.16,1.14s-.68-.09-.88-.37q-1.44-2-2.84-4.06C44.6,27.82,44.16,27.53,44.56,27.22Zm-2.1,1.68c.25-.16.51-.62.84-.22,1.24,1.53,2.45,3.1,3.66,4.66a1,1,0,0,1,.09.2c-.05.33-.39.42-.6.61a.38.38,0,0,1-.61-.08c-1.18-1.5-2.35-3-3.53-4.52C42.07,29.25,42.21,29.06,42.46,28.9Zm-7.2,6.45c.77-.7,1.53-1.41,2.32-2.1a1.55,1.55,0,0,1,2.12-.12,1.67,1.67,0,0,1,.73,2.1c-.21.49-.07.59.46.64a23.76,23.76,0,0,1,2.59.53c-.48,1.26-1.36,1.22-2.28.93A6.29,6.29,0,0,0,39.51,37a1,1,0,0,0-.85.47c-.23.35.2.5.38.71s.52.62.81.9.42.63,0,1-.63.35-1,0q-1.8-2-3.66-3.89C34.88,35.83,35,35.62,35.26,35.35Zm-3.71,3.87a.88.88,0,0,1,1.12-.36c1.8.64,3.62,1.24,5.42,1.87.21.07.46.15.46.41-.05.51-.88,1-1.31.76-1.26-.77-1.51.54-2.14,1s-.36,1,0,1.48-.07,1-.43,1.25c-.53.4-.59-.28-.72-.52-.85-1.55-1.63-3.14-2.47-4.7A1,1,0,0,1,31.55,39.23Zm-3.09,3.69c.37-.45.63-.39,1-.09,1,.86,2.08,1.72,3.11,2.58a1.87,1.87,0,0,1,.73,1.5A2.13,2.13,0,0,1,30.45,49c-.32-.14-.72-.28-.47-.7s.23-1,.91-.56a.71.71,0,0,0,1-.3c.29-.44,0-.77-.35-1-1-.85-2-1.69-3-2.5C28.13,43.54,28.11,43.34,28.46,42.91Zm-8.6,12.92c.27-.41.45-.55.94-.24,1.1.7,2.28,1.27,3.38,2,.54.34.83.28,1.09-.28a10.08,10.08,0,0,0,.55-1,1.17,1.17,0,0,1,1.67-.89h0v0c-1-1.81-2.37-3.39-3.55-5.09-.29-.42-.38-.7-.06-1.14s.52-.67,1.13-.53c1.67.38,3.36.65,5,1,.38.08,1.06,0,1,.59a.9.9,0,0,1-1.25.78c-1.3-.5-1.32.8-1.85,1.34s-.29.94.14,1.39l.13.16a1,1,0,0,1,.12.2c.26.6-.51.87-.81,1.29v0h0a29.91,29.91,0,0,1-2,3.82c-.18.36-.43.36-.81.13-1.49-.9-3-1.74-4.53-2.6C19.68,56.54,19.55,56.3,19.86,55.83Zm-3,5.65c.62-1,1.07-2.08,1.64-3.1.12-.22.26-.65.66-.41.23.13.6.19.61.5-.41.79-.76,1.51-1.17,2.2-.31.53-.35.83.29,1.18s.72-.14.91-.47c.3-.52.53-1.08.84-1.6.18-.29.34-.64.86-.31s.35.51.15.86c-.28.5-.49,1-.77,1.53s-.61.8.17,1.17c.62.3,1,.43,1.34-.33s.69-1.3,1-2c.17-.33.42-.47.73-.27s.54.4.3.82c-.64,1.14-1.25,2.3-1.89,3.44-.19.35-.43.42-.83.2-1.53-.84-3.08-1.64-4.62-2.46C16.69,62.25,16.5,62,16.86,61.48Zm-2.64,6.29c.38-.82.7-1.67,1.1-2.48a1.7,1.7,0,0,1,1.71-1,2,2,0,0,1,1.87,2.82,4,4,0,0,1-.29.85c-.34.54-.07.81.39,1a6.53,6.53,0,0,0,1,.38c.51.12.56.42.37.82s-.27.71-.87.45c-1.63-.71-3.3-1.34-5-2C14.16,68.46,14,68.22,14.22,67.77Zm-1.85,8.51,3.64-1a17,17,0,0,0-3.09-1.08c-.26-.11-.75,0-.66-.56s.25-.88.92-.68c1.71.51,3.42,1,5.14,1.46.32.09.47.25.43.57A1.13,1.13,0,0,1,18,76.07l-3,.83c-.23.07-.63,0-.61.35s.4.3.64.37c.71.21,1.42.42,2.13.62.34.1.67.16.52.66s-.33.7-.87.54c-1.48-.44-3-.82-4.46-1.29-.4-.13-1.12.1-1.12-.72S11.77,76.44,12.37,76.28ZM10,82.37c.11-.45.19-.78.77-.88,1.89-.32,3.77-.69,5.64-1.08.56-.12.68.06.56.61.07.57-.32.82-.84.83-1.41,0-.88,1.24-1.19,1.93s.06,1,.64,1.22.54.72.37,1.23-.3.43-.66.2c-1.6-1-3.22-2.06-4.84-3.07A.8.8,0,0,1,10,82.37ZM8.7,90.95c0-.52.31-.59.75-.53,1.16.17,2.33.35,3.5.45,1,.09,1.46-.3,1.52-1.15S14,88.48,13.2,88.39c-1-.12-2.06-.29-3.1-.43-.5-.06-1-.1-.82-.82s.14-.65,1-.6c1.26.21,2.53.37,3.77.65s1.79,1.27,1.5,3.12a2.1,2.1,0,0,1-2.27,2c-1.37-.12-2.73-.37-4.1-.54C8.65,91.67,8.68,91.34,8.7,90.95Zm-.32,6.9c.08-1.28.1-2.55.17-3.83,0-.4,0-.84.65-.79s.61.47.53.87c-.2.91.15,1.18,1,1.14,1.07,0,2.15,0,3.23.09.5,0,1.14-.12,1.11.76s-.66.57-1.1.6-1.14,0-1.71,0v-.07a8.51,8.51,0,0,1-1.21,0c-1-.15-1.73,0-1.53,1.31.07.45-.22.57-.63.55S8.36,98.29,8.38,97.85Zm0,3.76a.77.77,0,0,1,.5-.88l5.38-2.27c.56-.23.76,0,.64.57.09.52-.13.8-.66.91-1.16.25-.69,1.21-.77,1.9s0,1.15.79,1.28a.79.79,0,0,1,.76.8c0,.56-.09.87-.73.63-1.8-.67-3.59-1.35-5.39-2C8.36,102.37,8.36,102,8.33,101.61Zm.3,6.93,0-.42c0-.84.11-1.6.83-2,.27-.17.68-.55,1-.13a.79.79,0,0,1-.11,1.17,1.39,1.39,0,0,0-.42,1.72.54.54,0,0,0,.5.43.49.49,0,0,0,.52-.39c.13-.52.25-1,.37-1.57.29-1.3,1-2,2-2s1.81.75,2,2.11-.09,2.37-1.14,3c-.3.17-.64.54-.9,0-.18-.39-.37-.86.21-1.12.8-.37.74-1,.65-1.73a.82.82,0,0,0-.8-.78c-.46,0-.61.34-.7.72s-.2.85-.29,1.28c-.26,1.28-1,2-1.94,1.92S8.75,109.8,8.64,108.54Zm1.28,8.57c-.2-1-.36-2-.48-3a1.66,1.66,0,0,1,1.14-1.81,1.59,1.59,0,0,1,2,.44c.38.44.53.53.94,0a18.19,18.19,0,0,1,1.86-1.8,1.56,1.56,0,0,1-.43,2.29,8.27,8.27,0,0,0-1.29,1.4.72.72,0,0,0-.05.85c.17.3.45.23.72.19a5.89,5.89,0,0,0,1.19-.23c.6-.24.76,0,.91.54s-.06.7-.56.79c-1.72.3-3.44.61-5.15,1C10.09,117.88,10,117.48,9.91,117.11Zm1.27,6.16c-.17-1.09-.45-2.17-.68-3.25-.08-.39-.1-.72.45-.81s.61.2.68.62c.11.66.27,1.31.41,2,.09.43.23.8.79.66s.79-.3.6-.92a16.75,16.75,0,0,1-.39-2c-.06-.32,0-.61.39-.66s.65,0,.71.45.23,1,.34,1.58.12,1.09,1,.93.8-.69.68-1.3-.27-1.32-.41-2c-.09-.4.15-.56.46-.66a.48.48,0,0,1,.67.42c.28,1.31.55,2.63.82,3.95.09.41-.13.51-.49.58q-2.52.51-5,1.07C11.58,124.1,11.29,124,11.18,123.27Zm2.15,6.93-1-3.13a2.1,2.1,0,0,1,1.46-1.9,1.82,1.82,0,0,1,2.16.57,3.37,3.37,0,0,1,.67,1.44c.15.64.5.91,1.18.57a4.93,4.93,0,0,1,1.06-.31c.46-.11.57.18.65.55s.11.57-.3.7c-1.79.57-3.57,1.17-5.35,1.76C13.6,130.54,13.42,130.48,13.33,130.2Zm6.75,10.27a2.35,2.35,0,0,1-.09-4.7,2.34,2.34,0,0,1,2.42,2.4A2.38,2.38,0,0,1,20.08,140.47Zm4.57,12.11c-.3-.34-.62-.69-.31-1.25.52-.94,1-1.91,1.45-2.87.11-.23.17-.48.32-.9A17.74,17.74,0,0,0,23.55,149c-.37.21-.73.69-1.17,0s.13-.85.53-1.1c1.31-.82,2.61-1.64,3.93-2.44.27-.16.51-.68.92-.22s.64.79.35,1.36c-.54,1-1.05,2.09-1.57,3.14a3,3,0,0,0-.13.36l.14.17c.84-.53,1.69-1,2.52-1.59.37-.24.64-.39,1,.11s.1.73-.26,1l-4.28,2.66C25.24,152.63,24.94,152.92,24.64,152.58Zm5.54,5.5A3.46,3.46,0,0,1,27,154.75a4.09,4.09,0,0,1,3.76-3.46,3.54,3.54,0,0,1,3.11,3.31A4,4,0,0,1,30.18,158.08Zm1.42,3c-.39,0-.53-.33-.71-.55s-.12-.5.12-.7c1.38-1.17,2.77-2.34,4.15-3.51.46-.39.68-.07,1,.24s.26.56-.06.82L32,160.75C31.86,160.86,31.72,160.95,31.61,161Zm4.63,4.43c-.27.17-.45.2-.69-.06-.93-1-1.88-2-2.82-3-.27-.28-.37-.51,0-.84s.54-.24.85,0c1,.92,1,.9,2.06-.06.81-.76,1.63-1.51,2.44-2.27.18-.17.37-.35.61-.15s.54.41.59.75-.32.46-.51.63c-.84.78-1.65,1.59-2.54,2.3-.7.57-.72,1,0,1.59C36.49,164.68,36.94,165,36.24,165.46Zm2.31,2.86a1,1,0,0,1-.39-1.21c.64-1.73,1.22-3.48,1.83-5.23.1-.28.18-.72.54-.54a1.23,1.23,0,0,1,.81,1c-.82,1-.07,1.53.63,2.19s1.12.71,1.81.19,1,.17,1.19.5-.31.5-.53.62c-1.58.87-3.2,1.69-4.79,2.55A.83.83,0,0,1,38.55,168.32Zm4,3.25a7.21,7.21,0,0,1-.79-.65c-.24-.26.06-.42.19-.59q1.7-2.13,3.42-4.24a.49.49,0,0,1,.84,0c.19.21.66.31.28.78-1.21,1.49-2.4,3-3.6,4.49A1.65,1.65,0,0,1,42.59,171.57Zm5.67,3.26a3.07,3.07,0,0,1-3.38-1.63,1.71,1.71,0,0,1-.26-1.15c0-.3-.06-.79.45-.74s1,.15.93.71a1.36,1.36,0,0,0,1.09,1.57,1.75,1.75,0,0,0,1.88-.87,3.53,3.53,0,0,0,.75-1.41,1.39,1.39,0,0,0-.47-1.45,1.14,1.14,0,0,0-1.48-.17c-.78.56-1-.17-1.21-.54s.37-.6.7-.72a2.9,2.9,0,0,1,3.83,2.72A4.21,4.21,0,0,1,48.26,174.83Zm5.48,4.07a3.5,3.5,0,0,1-3.38-3.13A4,4,0,0,1,53.8,172a3.41,3.41,0,0,1,3.32,3.16A4,4,0,0,1,53.75,178.9Zm7.88-.81a1.16,1.16,0,0,0-.84-1.24c-.46-.17-1-.36-1.37.19s.11.8.4,1.11.67.66,1,1a1.76,1.76,0,0,1,.39,2.37,1.84,1.84,0,0,1-2.39.62c-.87-.35-1.75-.81-2-1.85-.08-.38-.27-1,.26-1.15a.86.86,0,0,1,1.1.87c0,.6.43.8.86,1s.7.23.93-.09,0-.64-.23-.89-.74-.69-1.09-1.06c-.92-1-1-1.82-.43-2.71a2.07,2.07,0,0,1,2.7-.61,2.78,2.78,0,0,1,2,2.44c-.14.27.18.89-.44.89S61.51,178.88,61.63,178.09Zm6.7,3.39c-.39,0-1,.09-1-.66s-.51-1.19-1.24-1.35a.9.9,0,0,0-1.05.4c-.23.39,0,.7.34.95.54.45,1.11.88,1.6,1.38a1.61,1.61,0,0,1,.29,2,1.85,1.85,0,0,1-.29.44,1.62,1.62,0,0,1-1.35.49,3.38,3.38,0,0,1-2.46-1.1,2.17,2.17,0,0,1-.19-.27,1.74,1.74,0,0,1-.22-.57c-.07-.33-.28-.82.21-1a.82.82,0,0,1,1.09.6,1.39,1.39,0,0,0,1.27,1.1.59.59,0,0,0,.71-.25c.16-.3,0-.53-.21-.71-.55-.49-1.13-.95-1.68-1.44a1.72,1.72,0,0,1-.41-2.12,1.91,1.91,0,0,1,2-1.2,3,3,0,0,1,2.93,2.51C68.68,181,68.82,181.48,68.33,181.47Zm7.1,1c-1.23,1.38-2.4,2.8-3.6,4.21-.28.34-.57.55-1,.31s-.78-.34-.78-1c0-1.21-.14-2.41-.22-3.62h-.06c0-.6,0-1.21,0-1.81,0-.29-.21-.84.25-.8s1.05.09,1.16.76c.06.41-.23,1,.25,1.2a11.69,11.69,0,0,0,1.88.69c.47.14.63-.29.85-.56s.48-.62,1-.41S75.95,181.93,75.44,182.5Zm6.45,2.77a1.38,1.38,0,0,0-1.59-1.1c-.34,0-.68.06-.81.46a.71.71,0,0,0,.39.92c.53.3,1.07.57,1.58.9a1.79,1.79,0,0,1,.88,2.16c-.28.89-1,1.2-2.11,1.19a2.92,2.92,0,0,1-2.41-1.26c-.25-.41-.44-1,0-1.25a.89.89,0,0,1,1.2.59c.25.74.85.78,1.48.73a.55.55,0,0,0,.55-.37c.09-.28-.12-.46-.31-.58-.51-.33-1.05-.6-1.56-.92a2,2,0,0,1-1-2.64A2.19,2.19,0,0,1,80.83,183c1.11.25,2.08.64,2.35,1.9.07.34.27.83-.29.89C82.53,185.85,82,185.92,81.89,185.27Zm6.29,5.38c-.15.86-.76.48-1.18.42-1.13-.18-2.24-.45-3.36-.65-.4-.07-.71-.13-.64-.67s.4-.55,1-.43c.93.46,1.14-.21,1.27-1.16s.45-2.17.61-3.26c.09-.61.39-.68.89-.62s.6.44.52.87c-.24,1.25-.42,2.52-.75,3.74-.21.75,0,.95.69,1.08C87.62,190,88.33,189.8,88.18,190.65ZM95.42,186c-.17,1.57-.26,3.16-.43,4.73,0,.35.15.92-.44,1a1.14,1.14,0,0,1-1.28-.75,21.72,21.72,0,0,0-1.91-3.4c-.12,1-.22,2-.35,3-.05.4.07.92-.68.82s-.56-.52-.53-1c.13-1.61.26-3.22.4-4.83,0-.31-.13-.78.35-.82s1-.09,1.3.51c.5,1,1,2,1.54,3.07.07.14.11.32.39.34a11.36,11.36,0,0,0,.35-2.85c0-.44.07-.82.67-.77S95.48,185.47,95.42,186Zm6.17,0c-.08.84-.11,1.68-.16,2.52h0c0,.84,0,1.68,0,2.52,0,.63-.24.82-.85.78-1.14-.08-2.29-.11-3.43-.13-.41,0-.65-.16-.67-.57s.3-.64.72-.62c.7,0,1.41.07,2.11.13.52,0,.73-.18.75-.69s-.16-.73-.7-.72-1.21-.07-1.81-.11c-.37,0-.78,0-.76-.56s.41-.63.84-.61,1.15,0,1.71.11.84-.19.87-.79-.07-1-.8-1-1.47-.08-2.21-.11c-.38,0-.66-.11-.62-.59s.24-.59.66-.56l3.73.17C101.46,185.23,101.64,185.47,101.59,186ZM108,191.5a12.36,12.36,0,0,0-1.3.13c-2.68.3-4.37-1.69-3.69-4.36a2.74,2.74,0,0,1,2.58-2.17c.43,0,.87-.08,1.49-.13.88-.29,1.21.12,1.23,1.21a44,44,0,0,0,.37,4.52C108.71,191.29,108.54,191.5,108,191.5Zm6.92-.76c-.53.09-.61-.17-.67-.61-.17-1.2-.38-2.4-.57-3.59a1.1,1.1,0,0,0-1.45-1,1.08,1.08,0,0,0-1,1.45c.27,1.15.18,2.35.52,3.49.18.57-.22.69-.65.77s-.72-.07-.76-.55c-.11-1.38-.47-2.73-.46-3.56-.06-1.82.73-2.6,2.28-2.84a2.26,2.26,0,0,1,2.81,1.68c.27,1.32.41,2.66.63,4C115.67,190.56,115.33,190.66,114.88,190.74Zm6.35-1.44-4,.9c-.18,0-.33-.24-.42-.54a.47.47,0,0,1,.35-.63,2.32,2.32,0,0,1,.59-.13c.77,0,.85-.45.67-1.1-.33-1.2-.58-2.42-.89-3.63-.11-.43-.17-.8.41-.93s.87,0,1,.65c.22,1.16.52,2.3.74,3.46.15.76.46,1.16,1.28.83.47-.19.9-.19,1,.38S121.65,189.21,121.24,189.3Zm6.29-2.88a1.26,1.26,0,0,1-.76,1.23c-.06.24-.23.28-.44.24a1.18,1.18,0,0,1-1,.33,1.09,1.09,0,0,1-1.2,0,1.27,1.27,0,0,1-.46-.11c-.34-.25-.78-.46-.75-1,0-.23.23-.28.42-.36a.86.86,0,0,1,1.18.41l.81,0,1-.58-.11-.62h0a.44.44,0,0,1-.4-.23c-.74,0-1.48,0-2.21,0a1.7,1.7,0,0,1-1.63-1.14,2,2,0,0,1,.4-2.16c1.09-1.16,3.4-1.25,4.26-.11.16.22.62.52.16.83s-.72.63-1.14.1a1.35,1.35,0,0,0-1.73-.38c-.8.33-.89.8-.36,1.55a8.33,8.33,0,0,1,2.43.15A1.41,1.41,0,0,1,127.5,186,.24.24,0,0,1,127.53,186.42Zm9.14-2.23a1.09,1.09,0,0,1-1.31,0l-.73-.57a16.8,16.8,0,0,0-2.28-1.58l-.21.22,1.06,2.71c.12.3.21.58-.21.74s-.75.25-.95-.2c-.72-1.73-1.41-3.47-2.12-5.2a.39.39,0,0,1,.22-.58c.43-.19.85-.39,1.32,0,.94.7,1.9,1.37,2.85,2.05l.08-.06.25-.19c-.31-.81-.64-1.61-.93-2.42-.13-.35-.23-.73.29-.9s.7-.05.89.45c.62,1.62,1.31,3.21,2,4.81C137,183.73,137,184,136.67,184.19Zm4.6-2.2c-.28.19-.59.33-.92.05-1.54-1.3-3.09-2.6-4.63-3.91-.17-.15-.4-.45-.11-.57s.73-.72,1.25-.27c.32.28.62.8,1.05.66a9,9,0,0,0,1.88-1c.37-.23.2-.62.1-.92-.19-.64.12-1,.67-1.14.32-.11.6-.11.65.35.21,2,.43,3.95.61,5.67C142,181.69,141.55,181.79,141.27,182Zm4.09-2.17a.48.48,0,0,1-.76-.19c-.94-1.62-1.85-3.26-2.8-4.88-.26-.44.06-.5.3-.66s.64-.41.87,0c1,1.64,1.92,3.3,2.87,5a1.63,1.63,0,0,1,.08.19C146,179.63,145.57,179.65,145.35,179.82Zm4.74-2.89a3.09,3.09,0,0,1-2.1.94,3.54,3.54,0,0,1-.36,0c-.52-.1-1.14-.3-1-.87a.83.83,0,0,1,1.29-.44c.66.33,1.25-.15,1.55-.74s-.2-.78-.67-.71a8.15,8.15,0,0,0-1.34.42c-1.29.44-2.28.15-2.82-.82s-.19-1.86.81-2.73a2.56,2.56,0,0,1,3.13-.55c.32.18.77.42.51.83s-.54.79-1.15.39a1.34,1.34,0,0,0-1.88.36.8.8,0,0,0-.19,1c.22.36.57.32.9.25.59-.14,1.16-.34,1.75-.47a1.74,1.74,0,0,1,2.2.93A1.79,1.79,0,0,1,150.09,176.92Zm6.25-4.59c-.93.72-1.83,1.47-2.74,2.21-.31.25-.59.45-.92,0s-.18-.62.19-.89c.55-.39,1-.84,1.55-1.28.33-.28.68-.52.21-1s-.67-.41-1.07-.05-1,.79-1.49,1.21-.58.24-.84-.1-.26-.56.11-.82c.57-.41,1.1-.88,1.66-1.32a.61.61,0,0,0,.31-.53,6.6,6.6,0,0,0-.85-.93c-.31-.24-.54.1-.77.28-.55.44-1.13.85-1.65,1.32-.32.28-.56.47-.91,0s-.21-.63.15-.91q1.47-1.15,2.9-2.35c.38-.32.63-.25.92.12,1.09,1.37,2.18,2.73,3.3,4.08C156.75,171.75,156.77,172,156.34,172.33Zm5.54-4.62c-.3.31-.62.7-1.22.49-1.07-.38-2.17-.7-3.25-1a.75.75,0,0,0-.73,0,18,18,0,0,0,2,2.38c.31.36.45.58,0,1s-.68.2-1-.13c-1.08-1.25-2.17-2.48-3.23-3.74-.21-.25-.71-.48-.34-.91s.65-.71,1.21-.53l3,.93a1.26,1.26,0,0,0,1,.08c-.74-.86-1.38-1.63-2.06-2.36-.34-.36-.31-.59,0-.91s.62-.29.92.06c1.09,1.28,2.22,2.53,3.29,3.82C161.73,167.06,162.27,167.31,161.88,167.72Zm1.46-2.47a3.93,3.93,0,0,1-3.58-3.57,3.44,3.44,0,0,1,3.16-3.22,4,4,0,0,1,3.65,3.64A3.48,3.48,0,0,1,163.34,165.25Zm8.28-8c-.6.59-1.12,1.25-1.68,1.88a2.79,2.79,0,0,1-1.39.68,4.63,4.63,0,0,1-3.95-3.16,2.75,2.75,0,0,1,.73-2.13c1.63-2.17,1.62-2.17,3.66-.46l2.56,2.13C171.94,156.49,172.05,156.78,171.61,157.22Zm4.43-6.08c-.22.38-.38.86-1,.8-1.36-.14-2.73-.22-4.1-.32l-.07.24,2.6,1.86c.31.22.61.39.24.87s-.6.42-1,.15c-1.35-.94-2.71-1.86-4-2.83-.28-.2-.83-.38-.49-.92s.53-.82,1.19-.74c1,.13,2,.17,3,.23.28,0,.6.16.94-.16-.88-.62-1.73-1.25-2.61-1.83-.4-.26-.49-.47-.19-.88s.53-.46,1-.13c1.35,1,2.75,1.93,4.13,2.9C175.87,150.56,176.3,150.72,176,151.14Zm1.12-1.84c-.26.21-.42-.06-.61-.18-1.46-.91-2.9-1.82-4.37-2.72-.39-.24-.66-.43-.33-.93s.57-.56,1.06-.23c1.43.94,2.89,1.83,4.34,2.73.21.13.42.23.45.52A1.72,1.72,0,0,1,177.16,149.3Zm2.62-8.83a2.32,2.32,0,0,1-2.33-2.39,2.27,2.27,0,0,1,2.29-2.3,2.37,2.37,0,0,1,2.42,2.42A2.44,2.44,0,0,1,179.78,140.47Zm7.51-12.59c-.18.52-.39.77-1,.8-1.37.07-2.74.2-4.11.31v0a10.49,10.49,0,0,1-1.31,0c-.29,0-.83.28-.82-.21s.08-1,.76-1.13c.42-.06,1,.13,1.21-.3a9.06,9.06,0,0,0,.67-2.09c.06-.3-.33-.48-.58-.63a.88.88,0,0,1-.24-1.44c.39-.42.75.17,1.06.41,1.31,1,2.59,2.13,3.9,3.18C187.24,127.09,187.49,127.32,187.3,127.88Zm1.3-4.5c-.14.51-.39.57-.9.42a8.47,8.47,0,0,0-2.23-.57c-.25.29-.37.18-.42-.13a12,12,0,0,0-2.43-.62c-.3.25-.38.08-.41-.21,0-1.21.16-1.37,1.31-1,1.52.42,3,.86,4.56,1.22C188.71,122.58,188.73,122.89,188.59,123.38Zm1.29-5.26a2.8,2.8,0,0,1-1.23,2.42c-.41.24-1,.5-1.23,0a.84.84,0,0,1,.52-1.14,1.22,1.22,0,0,0,.77-1.29.7.7,0,0,0-.37-.77c-.37-.15-.56.18-.7.42-.32.51-.57,1.07-.89,1.58a1.9,1.9,0,0,1-2.38,1,2,2,0,0,1-1.35-1.92c0-1.69.81-3,2-3.16.32-.06.75-.19.84.26s.11.84-.42,1a1.46,1.46,0,0,0-1.16,1.65c0,.4.16.73.59.84s.64-.18.81-.46c.31-.52.53-1.09.86-1.59a1.86,1.86,0,0,1,2.25-.88A1.91,1.91,0,0,1,189.89,118.12Zm-.18-6.91c-1.58.7-1.57.7-.16,1.75.53.4,1.09.73.9,1.6-.12.56-.3.54-.64.27a13.17,13.17,0,0,1-1.63-1.36,5,5,0,0,0-3.46-1.37c-.33,0-.75,0-.55-.56.12-.33,0-1,.64-.78,2.12.72,3.75-.49,5.49-1.29.36-.16.8-.52.7.43C191.13,110.79,190.35,110.93,189.71,111.22ZM186.06,99.9c.05.57,0,1.14.06,1.71s-.22.86-.82.76h0l-.05.09c0,.47.52.46.8.6,1.53.76,3.08,1.49,4.65,2.17a.88.88,0,0,1,.62,1,.89.89,0,0,1-.69,1c-1.73.52-3.44,1.12-5.17,1.65-.26.08-.69.51-.85,0a1,1,0,0,1,.41-1.32c.35-.16.91,0,1-.5a16.72,16.72,0,0,0,.22-2.1c0-.32-.26-.35-.45-.47a4.08,4.08,0,0,1-.63-.45.78.78,0,0,1-.3-.53.85.85,0,0,1,0-.23v0a3.11,3.11,0,0,1,.34-.76.79.79,0,0,1,0-.1h0A.4.4,0,0,1,185,102a1,1,0,0,1,0-.18c0-1.14-.06-2.28-.12-3.42,0-.52.17-.72.69-.73,1.68,0,3.36-.07,5-.16.58,0,.82.17.86.7s-.33.65-.78.67c-1.28.05-2.55.15-3.83.15C186.19,99.07,186,99.3,186.06,99.9Zm5.23-6.59c.05.44-.22.66-.57.84-1.62.81-3.23,1.66-4.86,2.43-.21.1-.57.64-.81.1s-.39-1.06.18-1.26c1.57-.54.85-1.73.88-2.7,0-.55-.47-.63-.86-.67-.55-.06-.71-.37-.79-.86s.16-.73.67-.58c1.8.53,3.59,1.12,5.41,1.59C191.2,92.38,191.25,92.8,191.29,93.31Zm-2.39-11c1-.21.86.55,1,1.09s0,.92-.57,1.17a15.45,15.45,0,0,0-2.9,1.63c1,.08,2.1.25,3.15.23s1.06.8,1.18,1.5-.58.71-1,.8c-1.51.32-3,.58-4.56.86-.42.08-.82.18-.93-.42s.15-.75.7-.82a12.49,12.49,0,0,0,2.61-.67,6.94,6.94,0,0,0-2.72-.35c-.52,0-.93,0-1.09-.72s.33-.79.7-1l.49-.26,1.5-.73-.07-.45a14.23,14.23,0,0,0-2.37.54c-.15.32-.3.32-.45,0l-.38-.93c-.12-.06-.19-.16-.13-.29s.24-.15.39-.1l.93-.15a.82.82,0,0,1,.07-.16l0-.06a.13.13,0,0,1,.1,0c.06,0,.13,0,.21.14l1.61-.27c.07-.28.19-.39.42-.12l1.61-.28C188.54,82.17,188.66,82.05,188.9,82.31Zm-1.47-9.12a1.25,1.25,0,0,1-.16,1.49c-.79.78-1.52,1.62-2.28,2.43a.8.8,0,0,0-.22.58l2.32-.61c.32-.08.65-.18,1-.23s.52.21.59.54a.48.48,0,0,1-.39.67q-2.7.77-5.4,1.59c-.33.1-.41-.09-.51-.32-.19-.44-.37-.86.05-1.3.7-.73,1.36-1.49,2.05-2.23.2-.22.47-.39.44-.8a11.42,11.42,0,0,0-2.71.69c-.45.13-.82.23-1-.38s.23-.74.64-.87L186.73,73C187,72.93,187.31,72.87,187.43,73.19Zm-4.26-11.25c.16.32.35.66,0,1-1.5,1.52-2.82,3.21-4.46,4.58h0v.07c.14.43.53.22.8.22,1.78,0,3.57,0,5.35-.07a1,1,0,0,1,1,.7c.26.55,0,.81-.33,1.12l-3.93,3.77c-.22.21-.47.66-.79.25s-.65-.81-.16-1.16c1.34-1,.46-1.92.1-2.89a.65.65,0,0,0-.7-.44,1.88,1.88,0,0,1-1.12-.28c-.27-.22-.33-.61-.26-1.22l0-.07h0a1.14,1.14,0,0,1-.56-.94.82.82,0,0,1,.1-.33,1.28,1.28,0,0,1,.16-.22,2,2,0,0,1,.23-.22.83.83,0,0,0,.21-1.16,5.55,5.55,0,0,1-.48-1,.86.86,0,0,0-1.22-.66c-.58.19-.78-.16-1-.55s-.2-.66.38-.69c1.95-.11,3.89-.23,5.84-.4C182.87,61.31,183,61.62,183.17,61.94Zm-3.36-6.6c.58.8,1.13,1.64.64,2.69-.16.35-.28,1-.85.71a.83.83,0,0,1-.41-1.26c.35-.58,0-1.1-.37-1.54a.59.59,0,0,0-.73-.17.52.52,0,0,0-.24.61c.14.73.35,1.44.44,2.17.16,1.31-.68,2.22-2.35,2.2-.79-.05-1.31-.9-1.79-1.75a2.13,2.13,0,0,1,0-2.47c.2-.27.33-.91.88-.48.35.28.71.66.26,1.19s-.18,1.26.27,1.8a.79.79,0,0,0,1,.26c.4-.19.45-.54.32-.95s-.28-1-.4-1.46a1.92,1.92,0,0,1,.95-2.32A1.76,1.76,0,0,1,179.81,55.33ZM177,52.47c-.12.29-.17.87-.68.67s-.87-.48-.65-1.08a1.63,1.63,0,0,0-.94-2.16,2.39,2.39,0,0,0-2.68.85,1.72,1.72,0,0,0-.27,2.22,2.94,2.94,0,0,0,.71.7c.27.23.6.37.91.11s.18-.62-.06-.87-.32-.68.12-1,.65,0,.82.37a1.72,1.72,0,0,0,.12.16c1.15,1.71,1.07,2-.83,2.88a.94.94,0,0,1-.77,0,4.08,4.08,0,0,1-2.51-4.18A3.94,3.94,0,0,1,174,48.44C176,48.46,177.7,50.8,177,52.47Zm-6.46-10.39a1.16,1.16,0,0,1,.38,1.44c-.41,1-.73,2-1.1,3a.47.47,0,0,0,.12.59c.73-.58,1.48-1.18,2.23-1.76.29-.22.54-.66,1-.12s.31.74-.15,1.1c-1.25,1-2.47,2-3.71,3-.28.22-.5.78-1,.41a1.19,1.19,0,0,1-.49-1.49c.39-1,.73-2,1.09-3a.7.7,0,0,0,0-.67c-.79.64-1.57,1.26-2.34,1.89-.39.32-.68.46-1.07-.06s-.11-.64.25-.92c1.27-1,2.51-2,3.77-3C169.85,42.2,170.1,41.66,170.58,42.08Z"/><path class="cls-1" d="M185.34,102.38h0Z"/><path d="M21.08,100.11a78.94,78.94,0,1,0,79-78.72C56.25,21.58,21.21,56.33,21.08,100.11ZM100,23.41a77,77,0,1,1-77,76.8A77,77,0,0,1,100,23.41Z"/><path class="cls-2" d="M188.48,82.45l-1.61.28a.28.28,0,0,1-.42.12l-1.61.27a.29.29,0,0,1-.24.16.42.42,0,0,1-.18,0h0l-.93.15-.27.39.38.93h.45a14.23,14.23,0,0,1,2.37-.54c.3-.21.63-.14,1-.16-.21.54-.64.51-1,.61h0l-1.5.73-.49.26c-.38.2-.87.27-.7,1s.57.67,1.09.72a6.94,6.94,0,0,1,2.72.35,12.49,12.49,0,0,1-2.61.67c-.55.08-.8.25-.7.82s.51.5.93.42c1.52-.29,3-.54,4.56-.86.43-.09,1.13,0,1-.8s0-1.52-1.18-1.5-2.1-.15-3.15-.23a15.45,15.45,0,0,1,2.9-1.63c.58-.25.77-.57.57-1.17s-.09-1.3-1-1.09A.32.32,0,0,1,188.48,82.45Zm-.6,1.44h-.08l.08,0Z"/><path class="cls-1" d="M186.5,84.63h0l-1.5.73,1.5-.73Z"/><path class="cls-2" d="M156.43,36.69A28.84,28.84,0,0,0,159.09,39a1.69,1.69,0,0,0,1.9,0,1.52,1.52,0,0,0,.83-1.68c-.1-.46,0-.58.46-.64a1.48,1.48,0,0,0,1.37-1.45,1.58,1.58,0,0,0-.27-1c-.82-.84-1.66-1.66-2.51-2.48-.26-.25-.47-.11-.68.11l-3.7,4C156.29,36.13,156.1,36.41,156.43,36.69Zm4.3-3.29c.34,0,1.6,1.22,1.63,1.57s-.25.67-.64.75-1.89-1.06-1.8-1.41A1.65,1.65,0,0,1,160.74,33.4ZM159,35.29c.25-.11,1.63,1.46,1.62,1.8a1,1,0,0,1-.75.92c-.38,0-2-1.28-1.91-1.56A1.89,1.89,0,0,1,159,35.29Z"/><path class="cls-2" d="M12.32,78.15c1.47.47,3,.85,4.46,1.29.54.16.73-.09.87-.54s-.18-.56-.52-.66c-.71-.2-1.42-.41-2.13-.62-.25-.07-.63,0-.64-.37s.38-.28.61-.35l3-.83A1.13,1.13,0,0,0,18.75,75c0-.32-.11-.48-.43-.57-1.72-.47-3.43-1-5.14-1.46-.67-.2-.84.14-.92.68s.4.46.66.56A17,17,0,0,1,16,75.29l-3.64,1c-.61.16-1.18.35-1.18,1.15S11.92,78,12.32,78.15Z"/><path class="cls-2" d="M65.13,21.64c.16.42.29.87.92.6s.48-.55.29-1a10.09,10.09,0,0,1-.92-2.75,2.57,2.57,0,0,1,1,.62l2.16,1.66a1.06,1.06,0,0,0,1.31,0c.33-.2.28-.5.16-.8-.64-1.63-1.27-3.26-1.92-4.88-.13-.33-.26-.66-.81-.4s-.56.46-.37.92c.39.92.73,1.85,1.09,2.78l-.25.21c-1-.79-2.1-1.55-3.08-2.39-.5-.43-.86-.2-1.27,0s-.23.64-.11,1C64,18.64,64.55,20.14,65.13,21.64Z"/><path d="M175.61,150.38c-1.38-1-2.78-1.9-4.13-2.9-.44-.33-.66-.29-1,.13s-.21.61.19.88c.88.58,1.73,1.21,2.61,1.83-.34.31-.65.17-.94.16-1-.06-2-.09-3-.23-.66-.09-.92.31-1.19.74s.21.72.49.92c1.33,1,2.7,1.89,4,2.83.39.27.65.3,1-.15s.07-.65-.24-.87l-2.6-1.86.07-.24c1.37.1,2.73.18,4.1.32.64.06.8-.42,1-.8S175.87,150.56,175.61,150.38Z"/><path d="M94.83,185.08c-.59-.05-.63.32-.67.77a11.36,11.36,0,0,1-.35,2.85c-.28,0-.32-.2-.39-.34-.52-1-1-2-1.54-3.07-.29-.59-.82-.55-1.3-.51s-.32.52-.35.82c-.14,1.61-.27,3.22-.4,4.83,0,.44-.17.87.53,1s.62-.42.68-.82c.13-1,.23-2,.35-3a21.72,21.72,0,0,1,1.91,3.4,1.14,1.14,0,0,0,1.28.75c.59-.07.4-.63.44-1,.17-1.58.26-3.16.43-4.73C95.48,185.47,95.44,185.14,94.83,185.08Z"/><path class="cls-2" d="M181.16,75.32c.22.62.58.51,1,.38A11.42,11.42,0,0,1,184.9,75c0,.41-.24.58-.44.8-.69.74-1.35,1.5-2.05,2.23-.42.44-.24.86-.05,1.3.1.23.18.42.51.32q2.69-.81,5.4-1.59a.48.48,0,0,0,.39-.67c-.07-.32-.2-.6-.59-.54s-.65.15-1,.23l-2.32.61a.8.8,0,0,1,.22-.58c.76-.81,1.49-1.65,2.28-2.43a1.25,1.25,0,0,0,.16-1.49c-.12-.32-.44-.26-.7-.18l-4.93,1.44C181.39,74.58,180.92,74.64,181.16,75.32Z"/><path class="cls-2" d="M165.55,46.36c.39.52.69.38,1.07.06.77-.63,1.55-1.25,2.34-1.89a.7.7,0,0,1,0,.67c-.36,1-.7,2-1.09,3a1.19,1.19,0,0,0,.49,1.49c.48.37.7-.19,1-.41,1.24-1,2.45-2,3.71-3,.46-.36.54-.62.15-1.1s-.69-.11-1,.12c-.76.58-1.5,1.18-2.23,1.76a.47.47,0,0,1-.12-.59c.36-1,.69-2,1.1-3a1.16,1.16,0,0,0-.38-1.44c-.47-.42-.73.12-1,.33-1.27,1-2.5,2-3.77,3C165.44,45.72,165.17,45.86,165.55,46.36Zm4.22.74a.63.63,0,0,1,.06.14s0,0-.06.07l-.07-.13Z"/><path class="cls-2" d="M47.61,32.13c.2.28.27.81.88.37s.52-.66.16-1.14c-.58-.77-1.11-1.58-1.66-2.39.32-.2.51,0,.73,0,1,.44,2.07.81,3,1.32.65.34.94-.11,1.29-.41s0-.61-.17-.87Q50.45,27,49,25c-.21-.3-.33-.79-.91-.37s-.41.72-.08,1.16c.59.79,1.13,1.61,1.68,2.4-.2.21-.32.18-.45.13-1.13-.5-2.3-.94-3.39-1.52-.66-.35-.95.12-1.3.39s0,.6.21.85Q46.16,30.11,47.61,32.13Z"/><path d="M30.06,148.84c-.35-.5-.61-.35-1-.11-.83.54-1.68,1.06-2.52,1.59l-.14-.17a3,3,0,0,1,.13-.36c.52-1,1-2.1,1.57-3.14.29-.57,0-1-.35-1.36s-.65.06-.92.22c-1.32.8-2.62,1.62-3.93,2.44-.41.25-1,.4-.53,1.1s.8.2,1.17,0a17.74,17.74,0,0,1,2.55-1.46c-.15.42-.21.67-.32.9-.47,1-.93,1.94-1.45,2.87-.31.56,0,.91.31,1.25s.59.05.88-.13l4.28-2.66C30.17,149.56,30.42,149.35,30.06,148.84Z"/><path class="cls-2" d="M101.84,15.26c.49,0,.67-.21.67-.66,0-.81,0-1.62,0-2.43,0-.19-.09-.45.15-.53s.37.21.48.39c.57,1,1.16,1.89,1.71,2.86.31.55.82.44,1.25.39s.33-.52.34-.84q.06-2.48.1-5c0-.43-.06-.79-.65-.8s-.63.36-.63.79q0,1.55,0,3.11l-.25.07c-.73-1.19-1.49-2.37-2.18-3.59-.3-.53-.72-.39-1.14-.4s-.39.29-.39.57c0,1.79,0,3.57-.07,5.36C101.26,15,101.42,15.23,101.84,15.26Z"/><path d="M161.53,166.83c-1.08-1.29-2.2-2.54-3.29-3.82-.3-.35-.56-.4-.92-.06s-.38.55,0,.91c.68.73,1.32,1.5,2.06,2.36a1.26,1.26,0,0,1-1-.08l-3-.93c-.57-.18-.91.18-1.21.53s.13.66.34.91c1.06,1.26,2.15,2.49,3.23,3.74.29.33.52.57,1,.13s.28-.63,0-1a18,18,0,0,1-2-2.38.75.75,0,0,1,.73,0c1.09.35,2.18.66,3.25,1,.59.21.92-.18,1.22-.49S161.73,167.06,161.53,166.83Z"/><path class="cls-2" d="M123.14,18.54c.58.25.51-.25.61-.51s.22-.84.35-1.26c.08-.25.13-.58.44-.62a.78.78,0,0,1,.84.44,12.19,12.19,0,0,1,.76,2,1.48,1.48,0,0,0,1.25,1.13c.53.14.62-.11.47-.53a13.05,13.05,0,0,0-.79-2.06c-.27-.49-.09-.55.31-.65a1.79,1.79,0,0,0,1.39-1.84,1.62,1.62,0,0,0-1.23-1.66c-.88-.31-1.82-.48-2.69-.8-.59-.22-.88-.1-1,.49-.44,1.69-.86,3.38-1.34,5.06C122.27,18.36,122.75,18.37,123.14,18.54Zm2.3-5c.71.16,1.76,0,1.9,1.13.07.52-.26.9-1,.8-.42-.38-1.5.17-1.62-.88C124.66,14.13,124.76,13.35,125.44,13.5Z"/><path d="M134.89,178.6c-.19-.5-.44-.59-.89-.45s-.42.54-.29.9c.3.81.62,1.62.93,2.42l.11.28c.12.12.12.25,0,.3a.26.26,0,0,1-.18,0,.28.28,0,0,1-.15-.18l0-.07,0,0,0,0h0c-1-.68-1.91-1.35-2.85-2.05-.47-.35-.89-.15-1.32,0a.39.39,0,0,0-.22.58c.71,1.73,1.4,3.47,2.12,5.2.19.46.58.35.95.2s.32-.44.21-.74l-1.06-2.71h0l-.09-.08a.27.27,0,0,1-.06-.1.19.19,0,0,1,.09-.21.12.12,0,0,1,.13,0l.08.06a.41.41,0,0,1,.09.14h0a16.8,16.8,0,0,1,2.28,1.58l.73.57a1.09,1.09,0,0,0,1.31,0c.34-.18.33-.46.2-.78C136.2,181.81,135.51,180.22,134.89,178.6Z"/><path class="cls-1" d="M132.35,182h0a16.8,16.8,0,0,1,2.28,1.58,16.8,16.8,0,0,0-2.28-1.58Z"/><path class="cls-1" d="M134.31,181.73h0c-1-.68-1.91-1.35-2.85-2.05.94.7,1.9,1.37,2.85,2.05Z"/><path class="cls-2" d="M38.87,40.06c.36.39.6.4,1,0s.34-.66,0-1-.54-.59-.81-.9-.61-.36-.38-.71a1,1,0,0,1,.85-.47,6.29,6.29,0,0,1,1.68.32c.93.29,1.81.33,2.28-.93a23.76,23.76,0,0,0-2.59-.53c-.53-.05-.66-.15-.46-.64a1.67,1.67,0,0,0-.73-2.1,1.55,1.55,0,0,0-2.12.12c-.79.68-1.54,1.4-2.32,2.1-.29.26-.38.47,0,.82Q37.07,38.09,38.87,40.06Zm-.3-5.9a.77.77,0,0,1,.71.77c0,.53-1.24,1.89-1.57,1.75a1.48,1.48,0,0,1-1-1C36.69,35.33,38.23,34.12,38.57,34.17Z"/><path class="cls-2" d="M170.33,51.17a4.08,4.08,0,0,0,2.51,4.18.94.94,0,0,0,.77,0c1.9-.91,2-1.17.83-2.88a1.72,1.72,0,0,1-.12-.16c-.18-.34-.33-.7-.82-.37s-.5.57-.12,1,.42.58.06.87-.64.12-.91-.11a2.94,2.94,0,0,1-.71-.7,1.72,1.72,0,0,1,.27-2.22,2.39,2.39,0,0,1,2.68-.85,1.63,1.63,0,0,1,.94,2.16c-.23.6.23.92.65,1.08s.57-.38.68-.67c.67-1.67-1.09-4-3-4A3.94,3.94,0,0,0,170.33,51.17Z"/><path class="cls-2" d="M10.71,117.75c1.71-.36,3.43-.67,5.15-1,.5-.09.73-.24.56-.79s-.32-.78-.91-.54a5.89,5.89,0,0,1-1.19.23c-.27,0-.55.12-.72-.19a.72.72,0,0,1,.05-.85,8.27,8.27,0,0,1,1.29-1.4,1.56,1.56,0,0,0,.43-2.29,18.19,18.19,0,0,0-1.86,1.8c-.41.53-.56.44-.94,0a1.59,1.59,0,0,0-2-.44,1.66,1.66,0,0,0-1.14,1.81c.12,1,.28,2,.48,3C10,117.48,10.09,117.88,10.71,117.75Zm.73-4.22c.62,0,1.06.89,1,2.33,0,.42-.7.38-1,.32-1.06-.19-.62-1.22-.81-1.86C10.5,113.9,10.91,113.52,11.44,113.53Z"/><path d="M100.94,185.21,97.21,185c-.42,0-.63.14-.66.56s.24.57.62.59c.74,0,1.48.13,2.21.11s.82.36.8,1-.24.86-.87.79-1.14-.09-1.71-.11-.83,0-.84.61.39.54.76.56c.6,0,1.21.12,1.81.11s.72.21.7.72-.23.73-.75.69c-.7-.06-1.41-.1-2.11-.13-.42,0-.75.12-.72.62s.26.56.67.57c1.14,0,2.29.06,3.43.13.61,0,.87-.15.85-.78,0-.84,0-1.68,0-2.52h0c0-.84.07-1.68.16-2.52C101.64,185.47,101.46,185.23,100.94,185.21Z"/><path d="M162.92,158.46a3.44,3.44,0,0,0-3.16,3.22,3.93,3.93,0,0,0,3.58,3.57,3.48,3.48,0,0,0,3.23-3.15A4,4,0,0,0,162.92,158.46Zm.54,5.49a3.16,3.16,0,0,1-2.45-2.46,1.85,1.85,0,0,1,1.79-1.7,2.85,2.85,0,0,1,2.46,2.49A1.81,1.81,0,0,1,163.46,163.95Z"/><path class="cls-2" d="M60.22,24.85a3.37,3.37,0,0,0,3.35-3.12c0-1.91-1.71-3.77-3.42-3.74a3.34,3.34,0,0,0-3.29,3.17A3.8,3.8,0,0,0,60.22,24.85ZM60,19.19c1,0,2.14,1.43,2.16,2.67a1.75,1.75,0,0,1-1.7,1.75A2.56,2.56,0,0,1,58.28,21,1.8,1.8,0,0,1,60,19.19Z"/><path d="M33.89,154.59a3.54,3.54,0,0,0-3.11-3.31A4.09,4.09,0,0,0,27,154.75a3.46,3.46,0,0,0,3.16,3.33A4,4,0,0,0,33.89,154.59Zm-3.94,2.18a1.86,1.86,0,0,1-1.63-1.88A2.92,2.92,0,0,1,31,152.65a1.81,1.81,0,0,1,1.63,1.75A3,3,0,0,1,29.95,156.77Z"/><path class="cls-2" d="M146.39,29.06c.45.34.78.3,1.07-.19.16-.26.36-.48.54-.73a1.17,1.17,0,0,1,1.36-.4c.45.15.17.65.17,1a7.81,7.81,0,0,1-.1,1.41c-.18,1.06.39,1.52,1.47,1.82,0-1,0-1.89,0-2.79,0-1.92,0-1.92,1.93-2.19a2.15,2.15,0,0,0,1.34-.49c-1.52-1.69-3.14,0-4.71-.26a4,4,0,0,1,.93-1.55c.28-.41.32-.68-.14-1s-.63-.33-1,.15c-.95,1.43-2,2.82-2.95,4.21C146.11,28.41,145.92,28.71,146.39,29.06Z"/><path class="cls-2" d="M116.77,17l.14,0c1.26.23,2.51.5,3.75.79.42.1.65,0,.76-.41s-.16-.65-.57-.73c-.69-.13-1.38-.3-2.07-.42s-.84-.25-.68-1,.43-.94,1.14-.7c.54.18,1.13.19,1.67.37s.58-.14.7-.45-.09-.61-.46-.69a19.42,19.42,0,0,0-2-.41c-.59-.07-.62-.38-.54-.83s.36-.7.86-.58c.69.16,1.39.27,2.06.49.47.16.68.07.84-.38s-.07-.66-.5-.76l-3.65-.79a.48.48,0,0,0-.65.44c-.37,1.81-.76,3.62-1.14,5.42C116.38,16.72,116.48,16.88,116.77,17Z"/><path class="cls-1" d="M116.77,17c-.29-.08-.39-.23-.3-.57.38-1.81.77-3.61,1.14-5.42-.37,1.81-.76,3.62-1.14,5.43C116.38,16.72,116.48,16.88,116.77,17Z"/><path d="M53.8,172a4,4,0,0,0-3.43,3.73,3.5,3.5,0,0,0,3.38,3.13,4,4,0,0,0,3.38-3.71A3.41,3.41,0,0,0,53.8,172Zm-.41,5.57a1.72,1.72,0,0,1-1.65-1.8,2.71,2.71,0,0,1,2.3-2.5A1.72,1.72,0,0,1,55.75,175,2.72,2.72,0,0,1,53.4,177.61Z"/><path d="M108.27,186.18c0-1.08-.34-1.5-1.23-1.21-.62.05-1.06.08-1.49.13a2.74,2.74,0,0,0-2.58,2.17c-.68,2.67,1,4.66,3.69,4.36a12.36,12.36,0,0,1,1.3-.13c.57,0,.75-.21.68-.8A44,44,0,0,1,108.27,186.18Zm-1.56,4.3a1.69,1.69,0,0,1-2.13-.84,4.21,4.21,0,0,1-.3-1.78,1.76,1.76,0,0,1,2.24-1.7c.39.09.43.39.46.69.06.57.09,1.14.13,1.72h0a3.52,3.52,0,0,1,0,.61C107.09,189.63,107.61,190.28,106.71,190.48Z"/><path class="cls-2" d="M71.51,19.64c.13.4.34.44.68.32l3.72-1.21c.24-.08.45-.16.39-.67s-.29-.6-.85-.42a21.84,21.84,0,0,0-2.09.71c-.68.3-.88-.06-1-.58s-.17-.9.48-1.06,1.21-.39,1.82-.57c.4-.11.59-.34.45-.74s-.31-.57-.76-.39c-.62.25-1.28.41-1.91.64s-.74,0-.89-.46-.21-.74.39-.88,1.4-.44,2.1-.66c.41-.13.64-.31.48-.8s-.43-.43-.79-.31c-1.18.38-2.36.75-3.54,1.11-.45.14-.46.46-.35.8C70.37,16.2,71,17.92,71.51,19.64Z"/><path d="M148.51,173.76c-.59.13-1.16.33-1.75.47-.33.08-.68.12-.9-.25a.8.8,0,0,1,.19-1,1.34,1.34,0,0,1,1.88-.36c.61.4.94-.06,1.15-.39s-.2-.65-.51-.83a2.56,2.56,0,0,0-3.13.55c-1,.87-1.3,1.86-.81,2.73s1.53,1.26,2.82.82a8.15,8.15,0,0,1,1.34-.42c.48-.07,1,.08.67.71s-.89,1.07-1.55.74a.83.83,0,0,0-1.29.44c-.14.57.48.78,1,.87a3.54,3.54,0,0,0,.36,0,3.09,3.09,0,0,0,2.1-.94,1.79,1.79,0,0,0,.63-2.23A1.74,1.74,0,0,0,148.51,173.76Z"/><path class="cls-2" d="M17.72,122.3c-.27-1.32-.54-2.63-.82-3.95a.48.48,0,0,0-.67-.42c-.31.09-.55.26-.46.66q.22,1,.41,2c.12.6.29,1.13-.68,1.3s-.92-.36-1-.93-.26-1-.34-1.58-.34-.5-.71-.45-.45.34-.39.66a16.75,16.75,0,0,0,.39,2c.19.62-.14.8-.6.92s-.7-.22-.79-.66c-.14-.66-.31-1.31-.41-2-.07-.42-.15-.7-.68-.62s-.53.42-.45.81c.23,1.08.52,2.16.68,3.25.11.69.4.83,1,.69q2.51-.56,5-1.07C17.59,122.82,17.81,122.72,17.72,122.3Z"/><path d="M171.54,156.15,169,154c-2-1.71-2-1.71-3.66.46a2.75,2.75,0,0,0-.73,2.13,4.63,4.63,0,0,0,3.95,3.16,2.79,2.79,0,0,0,1.39-.68c.56-.63,1.08-1.29,1.68-1.88C172.05,156.78,171.94,156.49,171.54,156.15Zm-1.71,1.43c-.39.35-.69.84-1.29.86a3.77,3.77,0,0,1-2.58-1.9c-.34-.82.21-1.32.65-1.87.31-.39.58-.44,1-.07a18.92,18.92,0,0,0,2.16,1.8C170.36,156.83,170.29,157.17,169.83,157.58Z"/><path d="M153.12,167.27c-.29-.37-.54-.43-.92-.12q-1.43,1.2-2.9,2.35c-.36.28-.47.53-.15.91s.59.23.91,0c.53-.47,1.1-.88,1.65-1.32.23-.18.46-.52.77-.28a6.6,6.6,0,0,1,.85.93.61.61,0,0,1-.31.53c-.55.44-1.08.91-1.66,1.32-.37.27-.36.49-.11.82s.5.39.84.1,1-.79,1.49-1.21.67-.41,1.07.05.12.76-.21,1c-.51.44-1,.89-1.55,1.28-.38.27-.47.49-.19.89s.61.27.92,0c.91-.74,1.81-1.5,2.74-2.21.43-.33.41-.59.08-1C155.3,170,154.21,168.64,153.12,167.27Z"/><path class="cls-2" d="M151.77,33q1.52,1.17,3,2.37c.19.15.39.33.61.12a5.07,5.07,0,0,0,.5-.68c-.18-.16-.32-.29-.47-.41-.61-.47-1.24-.93-1.83-1.42-.17-.14-.5-.2-.34-.61.38-.94.92-1.13,1.71-.53.4.3.79.63,1.18.95s.61.5,1,0,.12-.62-.22-.87c-.57-.41-1.11-.87-1.66-1.31s-.1-.63.11-.92.38-.5.77-.14c.62.56,1.31,1,2,1.55.35.27.56.13.8-.22s.22-.48-.1-.72q-1.53-1.15-3-2.37c-.35-.29-.55-.22-.81.11q-1.63,2.12-3.3,4.21C151.41,32.39,151.38,32.65,151.77,33Z"/><path class="cls-2" d="M17.13,62.49c1.54.82,3.09,1.62,4.62,2.46.4.22.64.15.83-.2.63-1.15,1.25-2.3,1.89-3.44.24-.42,0-.64-.3-.82s-.56-.06-.73.27c-.34.65-.74,1.28-1,2s-.71.63-1.34.33c-.77-.37-.43-.71-.17-1.17s.5-1,.77-1.53c.19-.35.31-.57-.15-.86s-.68,0-.86.31c-.31.52-.55,1.07-.84,1.6-.19.34-.23.84-.91.47s-.6-.66-.29-1.18c.41-.69.75-1.42,1.17-2.2,0-.31-.38-.37-.61-.5-.4-.24-.54.19-.66.41-.56,1-1,2.12-1.64,3.1C16.5,62,16.69,62.25,17.13,62.49Z"/><path class="cls-2" d="M52.16,27c1.4,2.28,1.4,2.29,3.62.69a2.76,2.76,0,0,0,1.34-2.5,4.52,4.52,0,0,0-1.61-2.86,2.27,2.27,0,0,0-2.58-.51c-.85.35-1.54.94-2.35,1.35-.55.27-.5.59-.2,1C51,25.08,51.58,26,52.16,27Zm-.21-3.32A2.43,2.43,0,0,1,54.13,23a3.79,3.79,0,0,1,1.67,2.62,2.64,2.64,0,0,1-1.56,1.69c-.26,0-.37-.14-.47-.3-.6-.93-1.18-1.87-1.78-2.8A.45.45,0,0,1,51.95,23.64Z"/><path class="cls-2" d="M78,14.94c.56.09,1.14.08,1.71.13.39,0,.87,0,.88.6a.91.91,0,0,1-.74.94,1.4,1.4,0,0,1-1.71-.45c-.46-.61-.89-.12-1.22.08s.06.61.19.82c.51.84,1.7,1.05,3.1.65,1.23-.36,1.91-1.19,1.79-2.21a2.1,2.1,0,0,0-2.29-1.82c-.47,0-.94,0-1.41,0a.76.76,0,0,1-.69-.52c-.12-.41.27-.52.5-.66a1.19,1.19,0,0,1,1.62.27c.45.48.94.09,1.24-.18s-.12-.58-.3-.81a1.66,1.66,0,0,0-1.51-.62,4,4,0,0,0-1.49.27,1.82,1.82,0,0,0-1.38,2A1.78,1.78,0,0,0,78,14.94Z"/><path class="cls-2" d="M130.33,21c.88.4,1.76.9,2.75.27a1.92,1.92,0,0,0,1-1.76,1.54,1.54,0,0,0-.65-1.38c-.51-.44-1.06-.84-1.57-1.27-.23-.19-.47-.43-.31-.78s.51-.29.8-.25a1.19,1.19,0,0,1,1.17,1c.08.6.64.65,1,.64.51,0,.38-.52.33-.88-.15-1.17-1.07-1.58-2-1.87a1.87,1.87,0,0,0-2.52.83c-.44.85-.2,1.62.78,2.45.36.3.78.53,1.14.82s.57.53.38.95a.83.83,0,0,1-1,.43c-.71-.14-1.28-.46-1.28-1.3s-.63-.68-1-.69-.34.5-.34.8A2.07,2.07,0,0,0,130.33,21Z"/><path class="cls-2" d="M176.5,56.9c.12.49.25,1,.4,1.46s.08.76-.32.95a.79.79,0,0,1-1-.26c-.45-.54-.83-1.12-.27-1.8s.1-.91-.26-1.19c-.54-.43-.68.21-.88.48a2.13,2.13,0,0,0,0,2.47c.48.85,1,1.7,1.79,1.75,1.67,0,2.52-.89,2.35-2.2-.09-.73-.31-1.44-.44-2.17a.52.52,0,0,1,.24-.61.59.59,0,0,1,.73.17c.42.45.72,1,.37,1.54a.83.83,0,0,0,.41,1.26c.57.3.68-.36.85-.71.49-1-.06-1.89-.64-2.69a1.76,1.76,0,0,0-2.35-.75A1.92,1.92,0,0,0,176.5,56.9Z"/><path class="cls-2" d="M12.34,108.72c.09-.43.19-.85.29-1.28s.24-.75.7-.72a.82.82,0,0,1,.8.78c.09.68.15,1.36-.65,1.73-.57.26-.39.73-.21,1.12.26.56.6.19.9,0,1.05-.58,1.39-1.47,1.14-3s-.91-2.06-2-2.11-1.74.7-2,2c-.12.52-.23,1.05-.37,1.57a.49.49,0,0,1-.52.39.54.54,0,0,1-.5-.43,1.39,1.39,0,0,1,.42-1.72.79.79,0,0,0,.11-1.17c-.28-.42-.69,0-1,.13-.71.44-.8,1.19-.83,2l0,.42c.12,1.27.77,2,1.76,2.11S12.08,110,12.34,108.72Z"/><path d="M63,178.09a2.78,2.78,0,0,0-2-2.44,2.07,2.07,0,0,0-2.7.61c-.61.9-.49,1.72.43,2.71.34.37.73.7,1.09,1.06s.47.56.23.89-.62.23-.93.09-.85-.39-.86-1a.86.86,0,0,0-1.1-.87c-.53.12-.34.76-.26,1.15.22,1,1.1,1.5,2,1.85a1.84,1.84,0,0,0,2.39-.62,1.76,1.76,0,0,0-.39-2.37c-.32-.34-.67-.67-1-1s-.74-.6-.4-1.11.91-.37,1.37-.19a1.16,1.16,0,0,1,.84,1.24c-.12.79.44.9.9.9S62.83,178.36,63,178.09Z"/><path d="M65.73,178.18a1.91,1.91,0,0,0-2,1.2,1.72,1.72,0,0,0,.41,2.12c.55.49,1.13.95,1.68,1.44.2.18.37.41.21.71a.59.59,0,0,1-.71.25,1.39,1.39,0,0,1-1.27-1.1.82.82,0,0,0-1.09-.6c-.49.14-.28.63-.21,1a1.74,1.74,0,0,0,.22.57,2.17,2.17,0,0,0,.19.27,3.38,3.38,0,0,0,2.46,1.1,1.62,1.62,0,0,0,1.35-.49,1.85,1.85,0,0,0,.29-.44,1.61,1.61,0,0,0-.29-2c-.49-.5-1.06-.92-1.6-1.38-.3-.25-.56-.55-.34-.95a.9.9,0,0,1,1.05-.4c.72.16,1.24.53,1.24,1.35s.63.65,1,.66.34-.47.33-.78A3,3,0,0,0,65.73,178.18Z"/><path class="cls-1" d="M63.15,184a2.17,2.17,0,0,1-.19-.27A2.17,2.17,0,0,0,63.15,184Z"/><path class="cls-2" d="M188.76,116.06a1.86,1.86,0,0,0-2.25.88c-.33.5-.55,1.08-.86,1.59-.17.29-.4.57-.81.46s-.55-.44-.59-.84a1.46,1.46,0,0,1,1.16-1.65c.53-.17.49-.64.42-1s-.52-.32-.84-.26c-1.18.21-2,1.47-2,3.16a2,2,0,0,0,1.35,1.92,1.9,1.9,0,0,0,2.38-1c.32-.51.57-1.07.89-1.58.15-.24.33-.57.7-.42a.7.7,0,0,1,.37.77,1.22,1.22,0,0,1-.77,1.29.84.84,0,0,0-.52,1.14c.26.52.82.26,1.23,0a2.8,2.8,0,0,0,1.23-2.42A1.91,1.91,0,0,0,188.76,116.06Z"/><path d="M83.18,184.93c-.27-1.26-1.25-1.65-2.35-1.9a2.19,2.19,0,0,0-2.66,1.08,2,2,0,0,0,1,2.64c.51.32,1.06.59,1.56.92.19.12.39.3.31.58a.55.55,0,0,1-.55.37c-.63,0-1.24,0-1.48-.73a.89.89,0,0,0-1.2-.59c-.45.23-.26.83,0,1.25a2.92,2.92,0,0,0,2.41,1.26c1.09,0,1.82-.3,2.11-1.19a1.79,1.79,0,0,0-.88-2.16c-.51-.33-1.05-.6-1.58-.9a.71.71,0,0,1-.39-.92c.13-.4.47-.45.81-.46a1.38,1.38,0,0,1,1.59,1.1c.13.65.64.58,1,.55C83.45,185.76,83.26,185.27,83.18,184.93Z"/><path class="cls-2" d="M94.72,13.83C95,15,95.86,15.46,97.3,15.45a2.12,2.12,0,0,0,2.39-1.69,20.07,20.07,0,0,0,.06-4.62c0-.47-.39-.45-.74-.47s-.59.21-.59.61c0,.64,0,1.28,0,1.92h0c0,.54,0,1.08,0,1.61,0,.83-.24,1.39-1.15,1.42S96,13.84,96,12.84s-.05-2.29-.07-3.43c0-.44-.17-.71-.66-.68-.33,0-.73,0-.72.48A23.06,23.06,0,0,0,94.72,13.83Z"/><path class="cls-2" d="M9.2,91.74c1.37.16,2.73.42,4.1.54a2.1,2.1,0,0,0,2.27-2c.29-1.85-.13-2.8-1.5-3.12s-2.51-.44-3.77-.65c-.87,0-.89,0-1,.6s.32.75.82.82c1,.13,2.06.31,3.1.43.82.09,1.33.42,1.27,1.33S14,91,12.95,90.87c-1.17-.1-2.33-.29-3.5-.45-.44-.06-.72,0-.75.53S8.65,91.67,9.2,91.74Z"/><path d="M114.95,186a2.26,2.26,0,0,0-2.81-1.68c-1.56.24-2.34,1-2.28,2.84,0,.84.35,2.19.46,3.56,0,.48.31.64.76.55s.82-.2.65-.77c-.35-1.14-.26-2.34-.52-3.49a1.08,1.08,0,0,1,1-1.45,1.1,1.1,0,0,1,1.45,1c.19,1.2.4,2.39.57,3.59.06.43.14.7.67.61s.78-.18.69-.75C115.36,188.66,115.22,187.32,114.95,186Z"/><path class="cls-2" d="M185.12,90.61c-.51-.15-.78,0-.67.58s.24.8.79.86c.39,0,.87.12.86.67,0,1,.69,2.17-.88,2.7-.57.2-.35.86-.18,1.26s.6,0,.81-.1c1.64-.78,3.24-1.62,4.86-2.43.36-.18.63-.4.57-.84s-.09-.94-.76-1.11C188.71,91.72,186.92,91.14,185.12,90.61Zm2.75,3.52a.34.34,0,0,1-.51-.17,1.67,1.67,0,0,1-.09-1.08c.07-.24.32-.23.51-.18.54.14,1.07.29,1.7.47C189,93.76,188.36,93.82,187.87,94.13Z"/><path class="cls-2" d="M86.11,16.39a.71.71,0,0,0,.7-.72c.17-1.38,1.35-.88,2.11-1.14s.94.37,1.17.82.37.54.77.48c.67,0,1-.13.54-.94-.91-1.49-1.71-3-2.55-4.57-.24-.43-.34-.93-1.05-.84s-.95.55-1.09,1.13c-.42,1.69-.79,3.4-1.26,5.08C85.21,16.47,85.54,16.44,86.11,16.39Zm1.28-3.27c.12-.57.26-1.14.41-1.78.62.43.68,1.08,1,1.56.1.14.15.36,0,.43a4.64,4.64,0,0,1-1.16.25C87.34,13.58,87.34,13.31,87.38,13.11Z"/><path d="M75.15,181.49c-.52-.21-.73.1-1,.41s-.38.7-.85.56a11.69,11.69,0,0,1-1.88-.69c-.48-.25-.19-.79-.25-1.2-.1-.67-.74-.73-1.16-.76s-.23.52-.25.8c0,.6,0,1.21,0,1.81h.06c.08,1.21.23,2.41.22,3.62,0,.64.35.77.78,1s.75,0,1-.31c1.19-1.41,2.37-2.83,3.6-4.21C75.95,181.93,75.75,181.73,75.15,181.49Zm-2.58,2.42c-.4.43-.62,1-1.37,1.39,0-.55,0-.94,0-1.34s0-.75.13-.85.7.05,1,.17S72.82,183.64,72.57,183.91Z"/><path d="M141.2,175.26c0-.46-.33-.45-.65-.35-.55.18-.86.5-.67,1.14.09.31.27.7-.1.92a9,9,0,0,1-1.88,1c-.43.14-.73-.38-1.05-.66-.52-.45-.87.11-1.25.27s-.06.43.11.57c1.54,1.31,3.09,2.61,4.63,3.91.33.28.64.14.92-.05s.73-.3.54-1.06C141.62,179.21,141.4,177.24,141.2,175.26Zm-.78,5.18-1-.84c-.8-.66-.76-.76.2-1.26.42-.22.63-.2.69.27A4,4,0,0,1,140.42,180.44Z"/><path class="cls-2" d="M28.31,54.13a1,1,0,0,0-.12-.2l-.13-.16c-.43-.46-.6-.92-.14-1.39s.56-1.84,1.85-1.34A.9.9,0,0,0,31,50.26c.1-.55-.59-.51-1-.59-1.68-.35-3.37-.62-5-1-.6-.14-.83.13-1.13.53s-.23.71.06,1.14c1.17,1.7,2.53,3.28,3.55,5.09C27.8,55,28.58,54.73,28.31,54.13Zm-1.6-2.34c-.6-.17-.81-.93-1.19-1.34,0-.35.23-.4.34-.32.52.37,1.5-.19,1.65.72C27.58,51.15,27.14,51.91,26.72,51.79Z"/><path class="cls-1" d="M28.2,53.93a1,1,0,0,1,.12.2A1,1,0,0,0,28.2,53.93Z"/><path class="cls-1" d="M27.5,55.42h0v0h0Z"/><path class="cls-1" d="M27.52,55.44v0h0Z"/><path class="cls-2" d="M14.25,104.55c.64.24.76-.07.73-.63a.79.79,0,0,0-.76-.8c-.79-.12-.86-.69-.79-1.28s-.39-1.65.77-1.9c.53-.11.75-.4.66-.91.11-.58-.08-.81-.64-.57l-5.38,2.27a.77.77,0,0,0-.5.88c0,.42,0,.77.52.95C10.66,103.2,12.45,103.88,14.25,104.55Zm-2.33-3.67c.63-.11.3.49.43.73-.08.32.15.92-.39.73s-1.52-.12-1.55-.78C10.38,101.16,11.36,101,11.92,100.88Z"/><path class="cls-2" d="M184.95,103.26a.85.85,0,0,0,0,.23.78.78,0,0,0,.3.53,4.08,4.08,0,0,0,.63.45c.19.12.48.15.45.47a16.72,16.72,0,0,1-.22,2.1c-.1.48-.67.34-1,.5a1,1,0,0,0-.41,1.32c.16.5.59.07.85,0,1.73-.53,3.44-1.13,5.17-1.65a.89.89,0,0,0,.69-1,.88.88,0,0,0-.62-1c-1.57-.68-3.12-1.41-4.65-2.17-.28-.14-.78-.12-.8-.6a3.11,3.11,0,0,0-.34.76Zm2.52,2.18c.27-.41.59-.07.88.05s.77.37,1.38.67c-.65.22-1,.39-1.46.49s-.73.31-.91-.07A1.25,1.25,0,0,1,187.47,105.44Z"/><path class="cls-1" d="M185.29,102.37a.79.79,0,0,0,0,.1l.05-.09Z"/><path class="cls-1" d="M185.29,102.47h0l.05-.09h0Z"/><path class="cls-1" d="M185.22,104a.78.78,0,0,1-.3-.53A.78.78,0,0,0,185.22,104Z"/><path class="cls-1" d="M184.95,103.26v0Z"/><path class="cls-2" d="M161.06,41.15a.69.69,0,0,0,.91.07c.29-.17.66-.43.93-.21a9,9,0,0,1,1.55,1.56c.26.35-.17.74-.29,1.11s.27,1.25.68,1.26.36-.32.47-.56c.79-1.73,1.56-3.48,2.38-5.2.25-.52-.12-.74-.38-1a.72.72,0,0,0-1-.26Q163.81,39,161.2,40C160.36,40.37,160.55,40.69,161.06,41.15Zm3.1-.61c.13-.76,1-.67,1.55-1l.06,0c.14,0,.26.07.28.26a3.31,3.31,0,0,1-.51,1.06l-.1.15h0l-.11.16-.13.16a.46.46,0,0,1-.12.1h0C164.62,41.24,164.11,40.81,164.16,40.54Z"/><path class="cls-2" d="M179,68.84a1.88,1.88,0,0,0,1.12.28.65.65,0,0,1,.7.44c.36,1,1.24,1.94-.1,2.89-.49.35-.07.86.16,1.16s.56,0,.79-.25l3.93-3.77c.33-.31.6-.57.33-1.12a1,1,0,0,0-1-.7c-1.78.07-3.57.07-5.35.07-.27,0-.66.21-.8-.22C178.64,68.23,178.7,68.61,179,68.84Zm3.37.18h1.8c-.16.53-.57.67-.84.95s-.4.65-.78.52-.35-.61-.5-.94S182,69,182.34,69Z"/><path class="cls-1" d="M179,68.84c-.27-.22-.33-.61-.26-1.22h0C178.64,68.23,178.7,68.61,179,68.84Z"/><path class="cls-1" d="M178.69,67.54l0,.07v-.07Z"/><path class="cls-2" d="M186.88,126.8c-1.31-1.05-2.59-2.14-3.9-3.18-.31-.24-.67-.83-1.06-.41a.88.88,0,0,0,.24,1.44c.24.15.64.33.58.63a9.06,9.06,0,0,1-.67,2.09c-.21.44-.79.24-1.21.3-.68.1-.74.73-.76,1.13s.53.19.82.21a10.49,10.49,0,0,0,1.31,0v0c1.37-.11,2.74-.24,4.11-.31.57,0,.78-.27,1-.8S187.24,127.09,186.88,126.8Zm-2.66.73c-1,0-1.08-.11-.67-1.08.15-.37.3-.51.65-.25a5.39,5.39,0,0,1,.55.43c.23.23.59.33.74.83C185,127.5,184.61,127.53,184.21,127.54Z"/><path class="cls-2" d="M34,45.11c.13.24.19.92.72.52.36-.27.87-.65.43-1.25s-.62-1,0-1.48.89-1.77,2.14-1c.43.26,1.26-.25,1.31-.76,0-.25-.25-.34-.46-.41-1.81-.63-3.62-1.23-5.42-1.87a.88.88,0,0,0-1.12.36,1,1,0,0,0-.07,1.19C32.32,42,33.1,43.56,34,45.11Zm.24-4.38c1,.39,1,.41.3,1.21-.33.36-.53.59-.81-.06a7.6,7.6,0,0,1-.76-1.56C33.44,40.48,33.83,40.59,34.19,40.73Z"/><path d="M45,165.23c-.23-.33-.56-1-1.19-.5s-1.19.4-1.81-.19-1.45-1.2-.63-2.19a1.23,1.23,0,0,0-.81-1c-.36-.18-.45.25-.54.54-.6,1.74-1.19,3.49-1.83,5.23a1,1,0,0,0,.39,1.21.83.83,0,0,0,1.09.08c1.59-.86,3.21-1.67,4.79-2.55C44.65,165.74,45.28,165.69,45,165.23Zm-3.78,1-1,.52c-.14.07-.3.12-.51.21a2.4,2.4,0,0,1,.32-1.28c.34-1,.42-1,1.22-.32C41.69,165.73,41.65,165.94,41.18,166.2Z"/><path class="cls-2" d="M10.49,83.36c1.62,1,3.24,2,4.84,3.07.36.23.53.2.66-.2s.31-1-.37-1.23-.92-.6-.64-1.22-.22-1.9,1.19-1.93c.52,0,.91-.27.84-.83.12-.55,0-.72-.56-.61-1.87.39-3.75.76-5.64,1.08-.58.1-.65.43-.77.88A.8.8,0,0,0,10.49,83.36Zm3.21-1.1c.17,0,.37,0,.38.22a1.87,1.87,0,0,1-.25,1.15c-.14.21-.33.17-.52,0l-1.43-.89C12.49,82.25,13.13,82.38,13.7,82.26Z"/><path class="cls-2" d="M176.14,62.45c.22.39.41.74,1,.55a.86.86,0,0,1,1.22.66,5.55,5.55,0,0,0,.48,1,.83.83,0,0,1-.21,1.16,2,2,0,0,0-.23.22,1.28,1.28,0,0,0-.16.22.82.82,0,0,0-.1.33,1.14,1.14,0,0,0,.56.94c1.65-1.37,3-3.07,4.46-4.58.35-.35.17-.69,0-1s-.3-.63-.81-.58c-1.94.17-3.89.29-5.84.4C175.94,61.79,175.89,62,176.14,62.45Zm3.23.72c.17-.77,1-.26,1.44-.54.26.06.56-.09.6.28a5.64,5.64,0,0,1-1.29,1.33A1.08,1.08,0,0,1,179.37,63.17Z"/><path class="cls-1" d="M178.15,66.59a1.14,1.14,0,0,0,.56.94h0A1.14,1.14,0,0,1,178.15,66.59Z"/><path class="cls-1" d="M178.25,66.26a1.28,1.28,0,0,1,.16-.22A1.28,1.28,0,0,0,178.25,66.26Z"/><path class="cls-1" d="M178.7,67.53h0Z"/><path d="M47.28,168.44c-.33.12-.95.21-.7.72s.43,1.1,1.21.54a1.14,1.14,0,0,1,1.48.17,1.39,1.39,0,0,1,.47,1.45,3.53,3.53,0,0,1-.75,1.41,1.75,1.75,0,0,1-1.88.87A1.36,1.36,0,0,1,46,172c0-.56-.52-.67-.93-.71s-.41.44-.45.74a1.71,1.71,0,0,0,.26,1.15,3.07,3.07,0,0,0,3.38,1.63,4.21,4.21,0,0,0,2.84-3.66A2.9,2.9,0,0,0,47.28,168.44Z"/><path class="cls-2" d="M14.58,68.63c1.65.65,3.32,1.28,5,2,.6.26.7-.09.87-.45s.13-.7-.37-.82A6.53,6.53,0,0,1,19,69c-.46-.2-.73-.46-.39-1a4,4,0,0,0,.29-.85A2,2,0,0,0,17,64.29a1.7,1.7,0,0,0-1.71,1c-.4.81-.72,1.66-1.1,2.48C14,68.22,14.16,68.46,14.58,68.63ZM17,65.71c.58,0,.82.37.83.94s-.18,1.38-.72,1.46c-.37.06-1.28-.08-1.41-.84C15.57,66.73,16.51,65.68,17,65.71Z"/><path class="cls-2" d="M19.52,128c-.08-.37-.19-.66-.65-.55a4.93,4.93,0,0,0-1.06.31c-.67.34-1,.08-1.18-.57a3.37,3.37,0,0,0-.67-1.44,1.82,1.82,0,0,0-2.16-.57,2.1,2.1,0,0,0-1.46,1.9l1,3.13c.09.28.27.33.55.24,1.78-.59,3.56-1.19,5.35-1.76C19.64,128.55,19.6,128.31,19.52,128Zm-5.05.84c-.81.06-.66-.82-.78-1.34a.79.79,0,0,1,.71-1c.63,0,1.37.83,1.35,1.57S14.85,128.79,14.47,128.82Z"/><path d="M127.5,186a1.41,1.41,0,0,0-1.58-1.42c-.82.21-1.65.5-2.43-.15-.53-.75-.44-1.23.36-1.55a1.35,1.35,0,0,1,1.73.38c.42.53.82.12,1.14-.1s0-.61-.16-.83c-.86-1.14-3.18-1.05-4.26.11a2,2,0,0,0-.4,2.16,1.7,1.7,0,0,0,1.63,1.14c.74,0,1.48,0,2.21,0,.32-.25.35,0,.4.23h0a.64.64,0,0,1,.37.21.16.16,0,0,1,0,.08.32.32,0,0,1-.14.23l-.14.11h0l-1,.58c-.29.32-.56.34-.81,0a.86.86,0,0,0-1.18-.41c-.19.08-.41.13-.42.36,0,.52.41.73.75,1a1.27,1.27,0,0,0,.46.11,1,1,0,0,1,1.2,0,1.18,1.18,0,0,0,1-.33c.07-.22.24-.26.44-.24a1.26,1.26,0,0,0,.76-1.23C127.34,186.31,127.32,186.18,127.5,186Z"/><path class="cls-2" d="M111.86,15.39a.94.94,0,0,0,.89.81.88.88,0,0,0,1-.55c.83-1.68,1.65-3.37,2.5-5,.23-.44.12-.59-.31-.7s-.85-.07-1.1.51c-.52,1.23-1.14,2.41-1.72,3.61l-.23,0c-.28-1.35-.57-2.69-.83-4-.13-.67-.62-.65-1.08-.63-.66,0-.37.53-.31.83C111.08,11.92,111.47,13.66,111.86,15.39Z"/><path class="cls-2" d="M179.75,135.78a2.27,2.27,0,0,0-2.29,2.3,2.32,2.32,0,0,0,2.33,2.39,2.44,2.44,0,0,0,2.38-2.27A2.37,2.37,0,0,0,179.75,135.78Z"/><path class="cls-2" d="M20,135.77a2.35,2.35,0,1,0,2.42,2.4A2.34,2.34,0,0,0,20,135.77Z"/><path class="cls-2" d="M190.3,109.49c-1.74.79-3.37,2-5.49,1.29-.63-.22-.52.45-.64.78-.2.55.22.52.55.56a5,5,0,0,1,3.46,1.37,13.17,13.17,0,0,0,1.63,1.36c.34.27.52.29.64-.27.19-.87-.36-1.21-.9-1.6-1.41-1-1.42-1,.16-1.75.64-.28,1.42-.42,1.29-1.29C191.09,109,190.65,109.33,190.3,109.49Z"/><path class="cls-2" d="M8.93,98.48c.41,0,.7-.1.63-.55-.2-1.29.5-1.46,1.53-1.31a8.51,8.51,0,0,0,1.21,0v.07c.57,0,1.14,0,1.71,0s1.07.28,1.1-.6-.61-.73-1.11-.76c-1.07-.05-2.15-.13-3.23-.09-.9,0-1.24-.23-1-1.14.09-.4.08-.82-.53-.87s-.63.39-.65.79c-.06,1.28-.09,2.56-.17,3.83C8.36,98.29,8.51,98.46,8.93,98.48Z"/><path d="M87.26,190c-.66-.13-.9-.33-.69-1.08.34-1.22.52-2.49.75-3.74.08-.43.07-.81-.52-.87s-.81,0-.89.62c-.16,1.09-.46,2.17-.61,3.26S85,189.78,84,189.32c-.63-.12-.95-.11-1,.43s.23.59.64.67c1.12.2,2.23.47,3.36.65.42.07,1,.44,1.18-.42S87.62,190,87.26,190Z"/><path d="M121,188.17c-.81.32-1.13-.07-1.28-.83-.22-1.16-.53-2.3-.74-3.46-.11-.61-.4-.79-1-.65s-.52.5-.41.93c.3,1.21.56,2.43.89,3.63.18.65.1,1.06-.67,1.1a2.32,2.32,0,0,0-.59.13.47.47,0,0,0-.35.63c.09.3.23.57.42.54l4-.9c.41-.09,1-.09.81-.75S121.47,188,121,188.17Z"/><path class="cls-2" d="M138.18,23.57c-.31.53-.09.7.31.93s.72.14.94-.33c.49-1,1-2,1.54-3s.63-1.22,1.75-.56c.76.45.7-.26,1-.51,0-.39-.31-.49-.58-.62-1-.5-2.05-1-3.05-1.53-.46-.25-.89-.61-1.23.1s.29.73.65.87c.77.3.8.7.4,1.38C139.26,21.33,138.8,22.5,138.18,23.57Z"/><path d="M36.15,164.39c-.67-.57-.65-1,0-1.59.89-.71,1.7-1.52,2.54-2.3.19-.18.44-.32.51-.63s-.34-.55-.59-.75-.43,0-.61.15c-.81.76-1.63,1.51-2.44,2.27-1,1-1,1-2.06.06-.31-.27-.51-.34-.85,0s-.25.55,0,.84c.95,1,1.89,2,2.82,3,.24.26.42.22.69.06C36.94,165,36.49,164.68,36.15,164.39Z"/><path class="cls-2" d="M20.11,56.78c1.52.86,3,1.7,4.53,2.6.38.23.64.23.81-.13a29.56,29.56,0,0,0,2-3.82,1.17,1.17,0,0,0-1.67.89,10.08,10.08,0,0,1-.55,1c-.26.56-.55.62-1.09.28-1.1-.69-2.28-1.27-3.38-2-.49-.31-.66-.17-.94.24S19.68,56.54,20.11,56.78Z"/><polygon class="cls-1" points="27.49 55.44 27.49 55.43 27.49 55.43 27.49 55.44 27.49 55.44 27.49 55.44"/><path class="cls-1" d="M27.49,55.43h0Z"/><path class="cls-2" d="M186.83,99.07c1.28,0,2.55-.1,3.83-.15.44,0,.83-.1.78-.67s-.29-.73-.86-.7c-1.68.1-3.36.13-5,.16-.52,0-.72.2-.69.73.06,1.14.08,2.28.12,3.42a1,1,0,0,0,0,.18.4.4,0,0,0,.31.33c.59.1.87-.12.82-.76s0-1.14-.06-1.71S186.19,99.07,186.83,99.07Z"/><path class="cls-1" d="M185.29,102.37h0Z"/><polygon class="cls-1" points="185.34 102.38 185.34 102.38 185.34 102.38 185.34 102.38"/><path class="cls-1" d="M185,102a.4.4,0,0,0,.31.33h0A.4.4,0,0,1,185,102Z"/><path class="cls-2" d="M28.54,43.87c1,.81,2,1.65,3,2.5.31.26.63.6.35,1a.71.71,0,0,1-1,.3c-.68-.43-.73.27-.91.56s.15.55.47.7a2.13,2.13,0,0,0,2.83-2.05,1.87,1.87,0,0,0-.73-1.5c-1-.87-2.07-1.72-3.11-2.58-.36-.3-.62-.36-1,.09S28.13,43.54,28.54,43.87Z"/><path class="cls-2" d="M108.44,15.78c.56,0,.77-.17.8-.74.05-1.41.16-2.82.25-4.22h0c0-.33,0-.67.07-1,.08-.6-.3-.63-.73-.68s-.65.17-.68.62q-.16,2.62-.36,5.23C107.8,15.44,107.87,15.75,108.44,15.78Z"/><path class="cls-2" d="M142.41,26.66a.69.69,0,0,0,.66-.46c.83-1.54,1.66-3.07,2.53-4.59.25-.44.29-.67-.23-.92s-.7-.22-1,.27c-.83,1.57-1.69,3.13-2.58,4.67C141.34,26.48,142.24,26.33,142.41,26.66Z"/><path class="cls-2" d="M83.32,16.36c.07.41.22.61.67.5s.75-.15.67-.68c-.31-1.83-.62-3.65-.95-5.47-.07-.41-.36-.53-.76-.38s-.74.06-.62.67C82.69,12.77,83,14.56,83.32,16.36Z"/><path class="cls-2" d="M45.84,34.08a.38.38,0,0,0,.61.08c.21-.2.54-.29.6-.61a1,1,0,0,0-.09-.2c-1.22-1.56-2.42-3.12-3.66-4.66-.32-.4-.59.05-.84.22s-.39.35-.14.66C43.5,31.06,44.66,32.57,45.84,34.08Z"/><path d="M145.83,179c-1-1.65-1.89-3.31-2.87-5-.23-.39-.57-.19-.87,0s-.56.23-.3.66c1,1.62,1.86,3.25,2.8,4.88a.48.48,0,0,0,.76.19c.21-.17.62-.18.56-.61A1.63,1.63,0,0,0,145.83,179Z"/><path d="M46.26,166.06a.49.49,0,0,0-.84,0q-1.71,2.12-3.42,4.24c-.13.16-.43.33-.19.59a7.21,7.21,0,0,0,.79.65,1.65,1.65,0,0,0,.34-.24c1.2-1.49,2.39-3,3.6-4.49C46.92,166.37,46.45,166.28,46.26,166.06Z"/><path class="cls-2" d="M134.86,22.78c.46.19.73.18.94-.33.61-1.45,1.26-2.88,1.9-4.32.12-.28.26-.54.36-.77.05-.55-.41-.52-.66-.69s-.54,0-.67.33c-.74,1.65-1.46,3.3-2.21,4.94C134.33,22.38,134.41,22.6,134.86,22.78Z"/><path d="M36.15,156.51c-.3-.31-.52-.63-1-.24-1.38,1.18-2.77,2.34-4.15,3.51-.24.2-.33.44-.12.7s.32.52.71.55c.12-.09.26-.18.39-.28l4.1-3.42C36.41,157.07,36.47,156.85,36.15,156.51Z"/><path d="M177.25,148c-1.45-.9-2.91-1.79-4.34-2.73-.49-.32-.76-.22-1.06.23s-.06.69.33.93c1.47.89,2.91,1.81,4.37,2.72.19.12.35.38.61.18a1.72,1.72,0,0,0,.55-.8C177.67,148.2,177.46,148.1,177.25,148Z"/><path class="cls-2" d="M188.08,122.44c-1.53-.36-3-.8-4.56-1.22-1.15-.32-1.36-.17-1.31,1a.42.42,0,0,1,.41.21,12,12,0,0,1,2.43.62.34.34,0,0,1,.42.13,8.47,8.47,0,0,1,2.23.57c.51.15.76.09.9-.42S188.71,122.58,188.08,122.44Z"/><path d="M125.92,184.62a8.33,8.33,0,0,0-2.43-.15C124.27,185.12,125.1,184.83,125.92,184.62Z"/><path class="cls-2" d="M187.48,84c-.42,0-.75-.05-1,.16l.07.45C186.85,84.53,187.27,84.55,187.48,84Z"/><path class="cls-1" d="M186.44,84.17l.07.45h0Z"/><path d="M124.11,188.23a1.09,1.09,0,0,0,1.2,0A1,1,0,0,0,124.11,188.23Z"/><path d="M125.32,187.22l-.81,0C124.76,187.56,125,187.54,125.32,187.22Z"/><path d="M126.41,186.53a.32.32,0,0,0,.14-.23.16.16,0,0,0,0-.08.64.64,0,0,0-.37-.21l.11.62Z"/><path class="cls-1" d="M126.16,186l.11.62h0Z"/><path class="cls-1" d="M126.41,186.53l-.14.11h0Z"/><path class="cls-2" d="M183.11,83.49c-.06.12,0,.23.13.29l.27-.39C183.35,83.34,183.2,83.33,183.11,83.49Z"/><path class="cls-2" d="M184.07,84.71h-.45C183.77,85,183.92,85,184.07,84.71Z"/><path class="cls-2" d="M184.61,83.28a.29.29,0,0,0,.24-.16c-.09-.1-.16-.14-.21-.14a.13.13,0,0,0-.1,0l0,.06a.82.82,0,0,0-.07.16A.42.42,0,0,0,184.61,83.28Z"/><path class="cls-1" d="M184.43,83.25a.42.42,0,0,0,.18,0,.42.42,0,0,1-.18,0Z"/><path d="M125.74,185.77a.44.44,0,0,0,.4.23C126.09,185.78,126.06,185.52,125.74,185.77Z"/><path d="M127.5,186c-.19.14-.17.27,0,.38A.24.24,0,0,0,127.5,186Z"/><path class="cls-2" d="M185,123.1c.05.32.17.42.42.13A.34.34,0,0,0,185,123.1Z"/><path class="cls-2" d="M182.21,122.27c0,.29.11.46.41.21A.42.42,0,0,0,182.21,122.27Z"/><path class="cls-2" d="M186.88,82.73c-.23-.27-.35-.16-.42.12A.28.28,0,0,0,186.88,82.73Z"/><path d="M126.33,187.9c.21,0,.38,0,.44-.24C126.57,187.64,126.4,187.68,126.33,187.9Z"/><path class="cls-2" d="M188.48,82.45a.32.32,0,0,0,.42-.14C188.66,82.05,188.54,82.17,188.48,82.45Z"/><path class="cls-2" d="M99.93,177.31a77,77,0,1,0-76.88-77.1A77,77,0,0,0,99.93,177.31ZM44.73,58.93C53.57,47.27,64.82,39,78.84,34.73c7.08-2.17,14.32-3.7,21.78-3.4,14.83.6,28.48,4.69,40.45,13.78,11.62,8.83,19.86,20,24.14,34,2.17,7.08,3.71,14.32,3.42,21.78-.59,14.86-4.69,28.55-13.81,40.54a66.66,66.66,0,0,1-34,24.13,82.2,82.2,0,0,1-15.11,3.17c-.88.1-1-.12-1-1q0-7.39,0-14.78t0-14.78q0-3.7,0-7.39,0-11.09,0-22.17c0-.82-.16-1.07-1-1-2.56.07-5.13.06-7.69,0-.83,0-1,.17-1,1,0,10.19,0,20.38,0,30.57q0,14.38,0,28.75c0,.52.09,1-.74.86a106.24,106.24,0,0,1-14.44-3,62.55,62.55,0,0,1-21.24-10.7,66.1,66.1,0,0,1-24.14-34c-2.17-7.08-3.71-14.32-3.41-21.78C31.56,84.56,35.65,70.91,44.73,58.93Z"/><polygon class="cls-2" points="187.88 83.89 187.88 83.85 187.8 83.87 187.88 83.89"/><path class="cls-2" d="M159.92,38a1,1,0,0,0,.75-.92c0-.35-1.37-1.91-1.62-1.8a1.89,1.89,0,0,0-1,1.17C157.93,36.73,159.55,38,159.92,38Z"/><path class="cls-2" d="M161.72,35.72c.39-.08.68-.29.64-.75s-1.3-1.6-1.63-1.57a1.65,1.65,0,0,0-.81.92C159.84,34.66,161.32,35.8,161.72,35.72Z"/><path class="cls-1" d="M169.83,47.24a.63.63,0,0,0-.06-.14l-.07.07.07.13S169.84,47.26,169.83,47.24Z"/><path class="cls-2" d="M126.34,15.43c.75.1,1.08-.28,1-.8-.14-1.09-1.2-1-1.9-1.13s-.78.63-.73,1.05C124.84,15.6,125.92,15.05,126.34,15.43Z"/><path d="M134.39,181.87a.28.28,0,0,0,.15.18.26.26,0,0,0,.18,0c.16,0,.16-.18,0-.3l-.38,0Z"/><path d="M132.26,181.88l-.08-.06a.12.12,0,0,0-.13,0,.19.19,0,0,0-.09.21.27.27,0,0,0,.06.1l.09.08h0l.21-.22A.41.41,0,0,0,132.26,181.88Z"/><path class="cls-1" d="M132.35,182l-.21.22.21-.22h0Z"/><path class="cls-1" d="M132.12,182.23h0Z"/><path class="cls-1" d="M132.35,182a.41.41,0,0,0-.09-.14.41.41,0,0,1,.09.14Z"/><path class="cls-1" d="M132,182.15a.27.27,0,0,1-.06-.1A.27.27,0,0,0,132,182.15Z"/><path d="M132.18,181.83l.08.06Z"/><path class="cls-2" d="M134.34,181.76l0,0,.38,0-.11-.28-.25.19-.08.06Z"/><path class="cls-1" d="M134.39,181.67l-.08.06h0Z"/><path class="cls-2" d="M37.71,36.69c.33.14,1.55-1.23,1.57-1.75a.77.77,0,0,0-.71-.77c-.33-.05-1.87,1.16-1.82,1.47A1.48,1.48,0,0,0,37.71,36.69Z"/><path class="cls-2" d="M11.43,116.18c.34.06,1,.1,1-.32,0-1.44-.41-2.32-1-2.33s-.94.37-.82.79C10.81,115,10.37,116,11.43,116.18Z"/><path class="cls-2" d="M162.8,159.79a1.85,1.85,0,0,0-1.79,1.7,3.16,3.16,0,0,0,2.45,2.46,1.81,1.81,0,0,0,1.8-1.66A2.85,2.85,0,0,0,162.8,159.79Z"/><path class="cls-2" d="M60.49,23.6a1.75,1.75,0,0,0,1.7-1.75c0-1.23-1.18-2.68-2.16-2.67A1.8,1.8,0,0,0,58.28,21,2.56,2.56,0,0,0,60.49,23.6Z"/><path class="cls-2" d="M31,152.65a2.92,2.92,0,0,0-2.64,2.24,1.86,1.86,0,0,0,1.63,1.88,3,3,0,0,0,2.65-2.37A1.81,1.81,0,0,0,31,152.65Z"/><path class="cls-2" d="M54,173.31a2.71,2.71,0,0,0-2.3,2.5,1.72,1.72,0,0,0,1.65,1.8A2.72,2.72,0,0,0,55.75,175,1.72,1.72,0,0,0,54,173.31Z"/><path class="cls-2" d="M107.14,189.17a3.52,3.52,0,0,0,0-.61h0c0-.57-.07-1.14-.13-1.72,0-.3-.07-.6-.46-.69a1.76,1.76,0,0,0-2.24,1.7,4.21,4.21,0,0,0,.3,1.78,1.69,1.69,0,0,0,2.13.84C107.61,190.28,107.09,189.63,107.14,189.17Z"/><path class="cls-2" d="M169.75,156.41a18.92,18.92,0,0,1-2.16-1.8c-.41-.38-.67-.33-1,.07-.44.55-1,1.05-.65,1.87a3.77,3.77,0,0,0,2.58,1.9c.6,0,.9-.51,1.29-.86S170.36,156.83,169.75,156.41Z"/><path class="cls-2" d="M53.78,27c.1.16.21.34.47.3a2.64,2.64,0,0,0,1.56-1.69A3.79,3.79,0,0,0,54.13,23a2.43,2.43,0,0,0-2.19.66.45.45,0,0,0,.05.55C52.59,25.12,53.18,26.06,53.78,27Z"/><path class="cls-2" d="M187.27,92.88a1.67,1.67,0,0,0,.09,1.08.34.34,0,0,0,.51.17c.49-.31,1.14-.37,1.61-1-.63-.18-1.17-.34-1.7-.47C187.59,92.65,187.34,92.64,187.27,92.88Z"/><path class="cls-2" d="M87.61,13.57a4.64,4.64,0,0,0,1.16-.25c.19-.07.14-.29,0-.43-.33-.48-.39-1.12-1-1.56-.15.64-.29,1.2-.41,1.78C87.34,13.31,87.34,13.58,87.61,13.57Z"/><path class="cls-2" d="M72.36,183.29c-.34-.12-.73-.35-1-.17s-.11.55-.13.85,0,.79,0,1.34c.75-.38,1-1,1.37-1.39C72.82,183.64,72.64,183.39,72.36,183.29Z"/><path class="cls-2" d="M139.6,178.34c-1,.5-1,.6-.2,1.26l1,.84a4,4,0,0,0-.13-1.82C140.23,178.14,140,178.12,139.6,178.34Z"/><path class="cls-2" d="M25.88,50.14c-.12-.08-.33,0-.34.32.38.41.58,1.16,1.19,1.34.42.12.86-.64.81-.93C27.38,50,26.39,50.51,25.88,50.14Z"/><path class="cls-2" d="M12,102.35c.54.18.31-.41.39-.73-.12-.24.2-.84-.43-.73s-1.54.28-1.52.68C10.44,102.23,11.4,102.16,12,102.35Z"/><path class="cls-2" d="M188.27,106.65c.41-.09.8-.26,1.46-.49-.62-.3-1-.5-1.38-.67s-.61-.46-.88-.05a1.25,1.25,0,0,0-.11,1.15C187.54,107,188,106.72,188.27,106.65Z"/><path class="cls-2" d="M165,41.39h0a.46.46,0,0,0,.12-.1l.13-.16.11-.16h0l.1-.15a3.31,3.31,0,0,0,.51-1.05c0-.19-.14-.3-.28-.26l-.06,0c-.53.34-1.42.25-1.55,1C164.11,40.81,164.62,41.24,165,41.39Z"/><path class="cls-1" d="M165.33,41.13l-.13.16Z"/><path class="cls-1" d="M165.45,41h0Z"/><path class="cls-1" d="M166.05,39.76a3.31,3.31,0,0,1-.51,1.05,3.31,3.31,0,0,0,.51-1.06c0-.19-.14-.3-.28-.26C165.91,39.45,166,39.57,166.05,39.76Z"/><path class="cls-2" d="M182.53,70.49c.38.14.56-.3.78-.52s.68-.41.84-.95h-1.8c-.39,0-.46.21-.32.52S182.15,70.35,182.53,70.49Z"/><path class="cls-2" d="M184.74,126.65a5.39,5.39,0,0,0-.55-.43c-.35-.26-.49-.12-.65.25-.41,1-.35,1.1.67,1.08.39,0,.79,0,1.27-.06C185.33,127,185,126.87,184.74,126.65Z"/><path class="cls-2" d="M34.49,41.94c.72-.8.73-.82-.3-1.21-.37-.14-.75-.25-1.27-.41a7.6,7.6,0,0,0,.76,1.56C34,42.53,34.16,42.3,34.49,41.94Z"/><path class="cls-2" d="M41.25,165.34c-.8-.69-.88-.71-1.22.32a2.4,2.4,0,0,0-.32,1.28c.21-.09.37-.14.51-.21l1-.52C41.65,165.94,41.69,165.73,41.25,165.34Z"/><path class="cls-2" d="M13.82,83.62a1.87,1.87,0,0,0,.25-1.15c0-.21-.21-.25-.38-.22-.57.12-1.21,0-1.82.52l1.43.89C13.5,83.79,13.69,83.83,13.82,83.62Z"/><path class="cls-2" d="M180.1,64.24a5.64,5.64,0,0,0,1.29-1.33c0-.37-.34-.22-.6-.28-.43.28-1.26-.23-1.44.54A1.08,1.08,0,0,0,180.1,64.24Z"/><path class="cls-2" d="M17.07,68.11c.54-.08.63-.89.72-1.46s-.25-.91-.83-.94-1.39,1-1.29,1.57C15.79,68,16.7,68.17,17.07,68.11Z"/><path class="cls-2" d="M14.41,126.45a.79.79,0,0,0-.71,1c.11.53,0,1.4.78,1.34.38,0,1.26,0,1.28-.79S15,126.42,14.41,126.45Z"/><path d="M34.39,121.17a66.1,66.1,0,0,0,24.14,34,62.55,62.55,0,0,0,21.24,10.7,106.24,106.24,0,0,0,14.44,3c.83.11.74-.34.74-.86q0-14.38,0-28.75c0-10.19,0-20.38,0-30.57,0-.86.22-1,1-1,2.56.06,5.13.06,7.69,0,.86,0,1,.23,1,1q0,11.09,0,22.17,0,3.7,0,7.39,0,7.39,0,14.78t0,14.78c0,.84.14,1.06,1,1a82.2,82.2,0,0,0,15.11-3.17,66.66,66.66,0,0,0,34-24.13c9.12-12,13.22-25.68,13.81-40.54.29-7.46-1.25-14.7-3.42-21.78-4.29-14-12.52-25.2-24.14-34-12-9.09-25.62-13.18-40.45-13.78-7.46-.3-14.71,1.23-21.78,3.4-14,4.29-25.26,12.53-34.11,24.2C35.65,70.91,31.56,84.56,31,99.39,30.68,106.85,32.22,114.09,34.39,121.17Zm50.74,36.92a59.88,59.88,0,0,1-44-47c-.2-1.13-.37-2.26-.56-3.47h2.91c5.13,0,10.26,0,15.38,0,.75,0,.93.18.94.93.09,6.44.22,12.88.35,19.33,0,.32-.12.71.23.93s.64-.08.89-.28c2.7-2.05,5.63-1.88,8.65-.91,6.47,2.07,11.18,6.58,15.68,11.37a1.82,1.82,0,0,1,.49,1.36c0,5.67,0,11.34,0,17C86.05,158.16,85.91,158.29,85.12,158.09Zm1.11-51.91c0,2.58,0,5.16,0,7.74,0,4.32,0,8.63,0,13,0,.19,0,.38,0,.75a60.88,60.88,0,0,0-6.56-4.91,19.77,19.77,0,0,0-10.84-3.29c-.74,0-1-.2-1-1,0-5-.14-9.91-.21-14.87q-.17-8.54-.34-17.08c0-2.33-.06-4.65-.15-7A1.11,1.11,0,0,1,68,78.29a14.91,14.91,0,0,1,13.33.77,42.3,42.3,0,0,1,4.4,2.68c.33.23.64.43.64.94q-.09,10.46-.15,20.93Q86.23,104.89,86.24,106.18Zm27.12,20.69q0-11.38,0-22.77a4.76,4.76,0,0,1,.05-.5l-.08-10.92q0-5-.07-9.91c0-.4,0-.78.38-1.07,3-2.1,6.18-4,9.88-4.66a14.73,14.73,0,0,1,8.47,1.2.7.7,0,0,1,.45.79q-.16,8.39-.31,16.78,0,1.95-.08,3.89t-.09,3.89q-.06,3.74-.12,7.48t-.1,7.48c0,.7-.42.61-.86.63a19.62,19.62,0,0,0-9.3,2.32,45.78,45.78,0,0,0-8,5.76C113.3,127.22,113.36,127,113.36,126.87ZM158.9,109a59.23,59.23,0,0,1-19,35.49,58.59,58.59,0,0,1-25.72,13.69l-.57.12v-.94c0-5.7,0-11.4,0-17.1a1.94,1.94,0,0,1,.51-1.46c4.5-4.79,9.21-9.29,15.69-11.35,3-1,6-1.12,8.64.95.23.18.48.44.81.29s.27-.58.28-.9c.13-6.37.26-12.75.35-19.12,0-.75.16-1,1-1,5.63,0,11.27,0,16.9,0C159.09,107.65,159.1,107.66,158.9,109ZM88.31,41.57A59.62,59.62,0,0,1,158.3,88a62,62,0,0,1,1.23,14.59c0,.8-.27,1-1,1q-8.76,0-17.51,0c-.87,0-1-.26-1-1.08,0-4.72,0-9.44,0-14.17h.55c0-4.52-.08-9,0-13.56a3.37,3.37,0,0,0-1.85-3.29,26.91,26.91,0,0,0-11.26-3.24c-8.31-.77-15,2.41-21,7.83a5,5,0,0,0-1.78,4.19c.09,7.42,0,14.85.06,22.27,0,.84-.2,1.07-1,1.05q-3.79-.09-7.59,0c-.85,0-1.13-.15-1.13-1.08,0-7.66,0-15.32,0-23a3.37,3.37,0,0,0-1.13-2.63,32.14,32.14,0,0,0-8.71-6.18,24.46,24.46,0,0,0-13.39-2.23,27.15,27.15,0,0,0-10.59,3.06,3.65,3.65,0,0,0-2.07,3.67c.27,9,.39,18.08.61,27.12,0,1.05-.28,1.26-1.28,1.26q-8.6-.08-17.21,0c-.93,0-1.1-.29-1.12-1.13A59.6,59.6,0,0,1,88.31,41.57Z"/><path class="cls-1" d="M41.19,103.63q8.6-.07,17.21,0c1,0,1.3-.2,1.28-1.26-.22-9-.34-18.08-.61-27.12a3.65,3.65,0,0,1,2.07-3.67,27.15,27.15,0,0,1,10.59-3.06,24.46,24.46,0,0,1,13.39,2.23,32.14,32.14,0,0,1,8.71,6.18A3.37,3.37,0,0,1,95,79.56c0,7.66,0,15.32,0,23,0,.94.27,1.1,1.13,1.08q3.79-.08,7.59,0c.85,0,1.05-.21,1-1.05,0-7.42,0-14.85-.06-22.27a5,5,0,0,1,1.78-4.19c6-5.42,12.72-8.6,21-7.83a26.91,26.91,0,0,1,11.26,3.24,3.37,3.37,0,0,1,1.85,3.29c-.12,4.52,0,9,0,13.56h-.55c0,4.72,0,9.45,0,14.17,0,.81.17,1.08,1,1.08q8.76-.06,17.51,0c.78,0,1-.19,1-1A62,62,0,0,0,158.3,88,59.76,59.76,0,0,0,40.07,102.49C40.1,103.34,40.27,103.64,41.19,103.63ZM96,64.85c.7-.58,1.34-1.24,2.07-1.77a3,3,0,0,0,.35-4.4c-2.89-3.41-2.91-5.16-.46-9.1.92-1.47,2.08-2.79,3.17-4.22.38.79.19,1.64.47,2.38a7.49,7.49,0,0,0,2.7,3.45,10.68,10.68,0,0,1,2.34,1.92c2.44,3.17,2.32,7.82-2,10.81l-.34.22c-.53.34-1.31.58-1.54,1.06s.48,1,.78,1.54a.59.59,0,0,1-.14.8c-.92,1-1.84,2-2.73,3-.3.34-.49.34-.79,0-1.32-1.58-2.64-3.15-4-4.69C95.52,65.41,95.58,65.17,96,64.85Zm-10.55-2c.08-.73.59-.92,1.35-.93a10.9,10.9,0,0,1,3.09,1.16,25.51,25.51,0,0,1,6.9,5.23c1,1.05,2,2.08,3,3.19.5.6.72.37,1.14,0A46.42,46.42,0,0,1,112,62.9a3.42,3.42,0,0,1,2.22-.5c.45.08,1.05.07,1.09.67a1.32,1.32,0,0,1-.82,1.39,34.74,34.74,0,0,0-13.34,9.07c-.73.79-1.15.79-2,0a51.94,51.94,0,0,0-8.37-6.83,18.85,18.85,0,0,0-4.5-2.26A1.3,1.3,0,0,1,85.42,62.89Z"/><path class="cls-2" d="M157.73,107.65c-5.63,0-11.27,0-16.9,0-.82,0-1,.24-1,1-.09,6.38-.22,12.75-.35,19.12,0,.32.11.72-.28.9s-.58-.11-.81-.29c-2.69-2.07-5.62-1.91-8.64-.95-6.47,2.06-11.19,6.56-15.69,11.35a1.94,1.94,0,0,0-.51,1.46c0,5.7,0,11.4,0,17.1v.94l.57-.12a58.59,58.59,0,0,0,25.72-13.69,59.23,59.23,0,0,0,19-35.49C159.1,107.66,159.09,107.65,157.73,107.65Z"/><path class="cls-2" d="M86,140.36a1.82,1.82,0,0,0-.49-1.36c-4.5-4.79-9.2-9.3-15.68-11.37-3-1-5.95-1.14-8.65.91-.25.19-.52.51-.89.28s-.22-.61-.23-.93c-.13-6.44-.27-12.88-.35-19.33,0-.75-.19-.94-.94-.93-5.13,0-10.26,0-15.38,0H40.52c.2,1.21.36,2.35.56,3.47a59.88,59.88,0,0,0,44,47c.79.19.93.07.93-.72C86,151.7,86,146,86,140.36Z"/><path class="cls-1" d="M131.94,103.6q0-1.95.09-3.89t.08-3.89q.16-8.39.31-16.78a.7.7,0,0,0-.45-.79A14.73,14.73,0,0,0,123.5,77c-3.71.67-6.84,2.57-9.88,4.66-.42.29-.38.67-.38,1.07q0,5,.07,9.91l.08,10.92h18.55Z"/><path class="cls-1" d="M131.94,103.6h0q0-1.95.09-3.89,0,1.95-.09,3.89Z"/><path class="cls-1" d="M86.22,103.6q.07-10.46.15-20.93c0-.51-.31-.71-.64-.94a42.3,42.3,0,0,0-4.4-2.68A14.91,14.91,0,0,0,68,78.29a1.11,1.11,0,0,0-.83,1.26c.09,2.32.1,4.65.15,7q.17,8.54.34,17.08H86.22Z"/><path class="cls-1" d="M86.22,103.6h0q.07-10.46.15-20.93Q86.28,93.14,86.22,103.6Z"/><path class="cls-2" d="M67.66,103.6c.08,5,.17,9.91.21,14.87,0,.75.23.92,1,1a19.77,19.77,0,0,1,10.84,3.29,60.88,60.88,0,0,1,6.56,4.91c0-.37,0-.56,0-.75,0-4.32,0-8.63,0-13,0-2.58,0-5.16,0-7.74q0-1.29,0-2.58Z"/><path class="cls-1" d="M86.24,106.18q0-1.29,0-2.58h0Q86.23,104.89,86.24,106.18Z"/><path class="cls-2" d="M130.86,119.2c.44,0,.85.08.86-.63q0-3.74.1-7.48t.12-7.48H113.39a4.76,4.76,0,0,0-.05.5q0,11.38,0,22.77c0,.15-.06.35.18.41a45.78,45.78,0,0,1,8-5.76A19.62,19.62,0,0,1,130.86,119.2Z"/><path class="cls-1" d="M131.82,111.09q-.06,3.74-.1,7.48Q131.75,114.83,131.82,111.09Z"/><path class="cls-1" d="M131.82,111.09q.06-3.74.12-7.48h0Q131.88,107.35,131.82,111.09Z"/><path d="M99.88,70.52c.29.35.48.35.79,0,.89-1,1.81-2,2.73-3a.59.59,0,0,0,.14-.8c-.3-.51-1-1.06-.78-1.54s1-.72,1.54-1.06l.34-.22c4.29-3,4.41-7.64,2-10.81a10.68,10.68,0,0,0-2.34-1.92,7.49,7.49,0,0,1-2.7-3.45c-.28-.74-.09-1.58-.47-2.38-1.08,1.43-2.25,2.75-3.17,4.22-2.46,3.94-2.43,5.69.46,9.1a3,3,0,0,1-.35,4.4c-.74.53-1.37,1.19-2.07,1.77-.39.32-.45.56-.08,1C97.24,67.37,98.57,68.95,99.88,70.52Z"/><path d="M86.36,64.46a18.85,18.85,0,0,1,4.5,2.26,51.94,51.94,0,0,1,8.37,6.83c.81.78,1.23.78,2,0a34.74,34.74,0,0,1,13.34-9.07,1.32,1.32,0,0,0,.82-1.39c0-.61-.64-.59-1.09-.67a3.42,3.42,0,0,0-2.22.5,46.42,46.42,0,0,0-11.19,8.59c-.41.41-.64.64-1.14,0-.92-1.12-2-2.14-3-3.19a25.51,25.51,0,0,0-6.9-5.23A10.9,10.9,0,0,0,86.77,62c-.76,0-1.26.2-1.35.93A1.3,1.3,0,0,0,86.36,64.46Z"/><text class="cls-3" transform="matrix(-0.04, -1.02, 1, -0.04, 14.48, 107.46)">P</text><text class="cls-3" transform="translate(14.24 101.62) rotate(-88.59) scale(1.02 1)">E</text><text class="cls-3" transform="translate(14.36 96.25) rotate(-84.79) scale(1.02 1)">R</text><text class="cls-3" transform="translate(14.91 90.32) rotate(-80.98) scale(1.02 1)">S</text><text class="cls-3" transform="translate(15.73 84.96) rotate(-76.93) scale(1.02 1)">A</text><text class="cls-3" transform="matrix(0.29, -0.98, 0.96, 0.29, 17.02, 79.35)">T</text><text class="cls-3" transform="translate(18.56 74.09) rotate(-69.24) scale(1.02 1)">U</text><text class="cls-3" transform="translate(20.88 67.94) rotate(-64.87) scale(1.02 1)">A</text><text class="cls-3" transform="matrix(0.51, -0.89, 0.87, 0.5, 23.66, 61.97)">N</text><text class="cls-3" transform="matrix(0.55, -0.86, 0.84, 0.54, 27.18, 55.94)"> </text><text class="cls-3" transform="translate(28.22 54.25) rotate(-54.58) scale(1.02 1)">P</text><text class="cls-3" transform="translate(31.6 49.5) rotate(-50.83) scale(1.02 1)">E</text><text class="cls-3" transform="translate(34.99 45.33) rotate(-47.07) scale(1.02 1)">L</text><text class="cls-3" transform="translate(38.5 41.49) rotate(-43.38) scale(1.02 1)">A</text><text class="cls-3" transform="matrix(0.79, -0.65, 0.64, 0.77, 43.43, 36.89)">J</text><text class="cls-3" transform="matrix(0.83, -0.6, 0.59, 0.81, 46.57, 34.23)">A</text><text class="cls-3" transform="matrix(0.87, -0.54, 0.53, 0.85, 51.9, 30.36)">R</text><text class="cls-3" transform="matrix(0.89, -0.5, 0.49, 0.87, 57.02, 27.24)"> </text><text class="cls-3" transform="matrix(0.91, -0.47, 0.46, 0.89, 58.78, 26.25)">I</text><text class="cls-3" transform="matrix(0.93, -0.42, 0.41, 0.91, 61.25, 24.91)">N</text><text class="cls-3" transform="translate(67.59 22.06) rotate(-19.37) scale(1.02 1)">D</text><text class="cls-3" transform="matrix(0.99, -0.26, 0.25, 0.97, 74.17, 19.74)">O</text><text class="cls-3" transform="translate(81.17 17.92) rotate(-9.86) scale(1.02 1)">N</text><text class="cls-3" transform="translate(87.99 16.76) rotate(-5.77) scale(1.02 1)">E</text><text class="cls-3" transform="matrix(1.02, -0.04, 0.04, 1, 93.34, 16.21)">S</text><text class="cls-3" transform="translate(98.78 16.04) rotate(0.59) scale(1.02 1)">I</text><text class="cls-3" transform="matrix(1.02, 0.07, -0.07, 1, 101.63, 16.01)">A</text><text class="cls-3" transform="matrix(1.02, 0.12, -0.12, 0.99, 108.23, 16.5)"> </text><text class="cls-3" transform="translate(110.21 16.66) rotate(9.59) scale(1.02 1)">U</text><text class="cls-3" transform="translate(116.99 17.8) rotate(14.21) scale(1.02 1)">N</text><text class="cls-3" transform="matrix(0.98, 0.31, -0.3, 0.95, 123.72, 19.57)">I</text><text class="cls-3" transform="matrix(0.96, 0.36, -0.35, 0.94, 126.44, 20.37)">V</text><text class="cls-3" transform="matrix(0.93, 0.42, -0.42, 0.91, 132.41, 22.63)">E</text><text class="cls-3" transform="translate(137.31 24.85) rotate(28.35) scale(1.02 1)">R</text><text class="cls-3" transform="translate(142.53 27.67) rotate(32.14) scale(1.02 1)">S</text><text class="cls-3" transform="translate(147.15 30.61) rotate(34.92) scale(1.02 1)">I</text><text class="cls-3" transform="translate(149.48 32.2) rotate(37.69) scale(1.02 1)">T</text><text class="cls-3" transform="matrix(0.78, 0.66, -0.65, 0.76, 153.83, 35.6)">I</text><text class="cls-3" transform="translate(156.03 37.46) rotate(42.92) scale(1.02 1)"> </text><text class="cls-3" transform="matrix(0.73, 0.72, -0.7, 0.71, 157.53, 38.77)">P</text><text class="cls-3" transform="matrix(0.67, 0.77, -0.75, 0.66, 161.71, 42.86)">U</text><text class="cls-3" transform="matrix(0.62, 0.82, -0.8, 0.6, 166.21, 48.04)">T</text><text class="cls-3" transform="translate(169.53 52.41) rotate(56.79) scale(1.02 1)">R</text><text class="cls-3" transform="translate(172.84 57.45) rotate(61.05) scale(1.02 1)">A</text><text class="cls-3" transform="matrix(0.45, 0.92, -0.9, 0.44, 176, 63.29)"> </text><text class="cls-3" transform="translate(176.97 65.02) rotate(67.49) scale(1.02 1)">M</text><text class="cls-3" transform="matrix(0.31, 0.98, -0.95, 0.3, 180.18, 72.86)">A</text><text class="cls-3" transform="translate(182.14 79.17) rotate(76.43) scale(1.02 1)">L</text><text class="cls-3" transform="translate(183.39 84.22) rotate(80.4) scale(1.02 1)">A</text><text class="cls-3" transform="translate(184.35 89.76) rotate(83.96) scale(1.02 1)">Y</text><text class="cls-3" transform="translate(184.96 95.5) rotate(87.59) scale(1.02 1)">S</text><text class="cls-3" transform="translate(185.16 100.96) rotate(90.37) scale(1.02 1)">I</text><text class="cls-3" transform="translate(185.2 103.78) rotate(93.51) scale(1.02 1)">A</text><path d="M15.48,128a2.35,2.35,0,1,0,2.42,2.4A2.34,2.34,0,0,0,15.48,128Z"/><path d="M183.44,128.14a2.35,2.35,0,1,0,2.42,2.4A2.34,2.34,0,0,0,183.44,128.14Z"/></svg>