<svg id="Layer_1" data-name="Layer 1" xmlns="http://www.w3.org/2000/svg" viewBox="0 0 16 16"><defs><style>.cls-1{fill:#fd0000;}.cls-2{fill:#fff;}.cls-3{font-size:0.8px;font-family:MyriadPro-Bold, Myriad Pro;font-weight:700;}</style></defs><title>ppi_ico</title><path class="cls-1" d="M14.78,8.28v0Z"/><path class="cls-1" d="M2.25,4.33s0,.07-.06.1h0S2.27,4.38,2.25,4.33Z"/><path class="cls-1" d="M5,14.71a.27.27,0,0,0,.2.09.13.13,0,0,0,.11,0,.13.13,0,0,1-.11,0A.27.27,0,0,1,5,14.71Z"/><path class="cls-1" d="M2.19,4.43h0A2.36,2.36,0,0,1,2,4.74,2.39,2.39,0,0,0,2.19,4.43Z"/><path class="cls-1" d="M14.74,6.64h0Z"/><path class="cls-1" d="M8.36,10.46v.59q0,.59,0,1.18,0-.59,0-1.18Z"/><path class="cls-1" d="M10.55,14.57h0Z"/><path class="cls-1" d="M14.74,6.65h0Z"/><path class="cls-1" d="M10.11,14.89h0Z"/><path class="cls-1" d="M14.78,8.26l0-.06h0Z"/><path class="cls-1" d="M10.73,14.54h0Z"/><path class="cls-1" d="M10.64,14.79l-.08-.22h0Z"/><path class="cls-1" d="M10.76,14.53v0l-.07-.19.07.19,0,0,0,0Z"/><ellipse class="cls-1" cx="10.73" cy="14.54" transform="translate(-5.07 5.76) rotate(-24.51)"/><path class="cls-1" d="M13.23,3.27h0Z"/><path class="cls-1" d="M13.2,3.3h0Z"/><path class="cls-1" d="M13.22,3.28h0Z"/><path d="M8,0a8,8,0,1,0,8,8A8,8,0,0,0,8,0ZM8,15.83A7.84,7.84,0,1,1,15.82,8,7.84,7.84,0,0,1,8,15.83Z"/><polygon class="cls-1" points="14.28 5.4 14.28 5.41 14.28 5.41 14.28 5.4 14.28 5.4 14.28 5.4 14.28 5.4"/><path class="cls-2" d="M8,.16A7.84,7.84,0,1,0,15.82,8,7.84,7.84,0,0,0,8,.16Zm5.37,2.9s0,0,0,.08l-.19.42s0,0,0,0-.07-.07-.05-.1,0-.06,0-.09A.72.72,0,0,0,13,3.28s-.05,0-.07,0a.05.05,0,0,1-.07,0s-.06-.06,0-.09L13.29,3A.06.06,0,0,1,13.37,3.05Zm-.52-.51.2.2a.13.13,0,0,1,0,.08.12.12,0,0,1-.11.12s0,0,0,.05a.12.12,0,0,1-.07.13.14.14,0,0,1-.15,0,2.31,2.31,0,0,1-.21-.19s0,0,0-.06l.3-.32S12.83,2.53,12.85,2.55Zm-.41-.33.24.19s0,0,0,.06,0,0-.06,0l-.16-.12s0,0-.06,0,0,0,0,.07l.13.11s0,0,0,.07-.05,0-.08,0l-.09-.08c-.06,0-.11,0-.14,0s0,0,0,0l.15.11,0,0,0,.05s0,0,0,0l-.24-.19s0,0,0-.07l.26-.34S12.42,2.19,12.45,2.22Zm-.75,0,.24-.34s0,0,.08,0,0,0,0,.08a.32.32,0,0,0-.07.12c.13,0,.25-.11.38,0a.17.17,0,0,1-.11,0c-.15,0-.15,0-.15.17s0,.14,0,.22-.13-.06-.12-.15a.62.62,0,0,0,0-.11s0-.07,0-.08a.09.09,0,0,0-.11,0l0,.06s0,0-.09,0S11.67,2.27,11.69,2.25Zm-.08-.59s0,0,0,.07l-.2.37a.05.05,0,0,1-.05,0s-.09,0,0-.08l.21-.37S11.58,1.64,11.61,1.66Zm-.47-.15s-.08,0-.05-.07.06,0,.1,0l.24.12s0,0,0,0,0,.08-.08,0-.09,0-.14,0l-.12.24s0,0-.08,0,0,0,0-.07.09-.18.14-.26S11.2,1.54,11.14,1.51ZM11,1.34s.06,0,.05.06l0,.06-.15.35s0,0-.08,0,0,0,0-.07l.18-.4S10.95,1.31,11,1.34Zm-.65.13s.08,0,.08.06,0,.09.1.1a.07.07,0,0,0,.08,0s0-.06,0-.08l-.09-.07c-.08-.07-.1-.13-.06-.2a.15.15,0,0,1,.2-.07c.07,0,.15.06.16.15s0,.07,0,.07-.07,0-.08-.05a.09.09,0,0,0-.09-.08s-.05,0-.06,0,0,0,0,.06l.13.1a.12.12,0,0,1,.05.11.15.15,0,0,1-.08.14c-.08.05-.15,0-.22,0a.17.17,0,0,1-.11-.16S10.29,1.46,10.33,1.46ZM10,1l.22.06a.13.13,0,0,1,.1.13.14.14,0,0,1-.11.15s0,0,0,.05a1,1,0,0,1,.06.16s0,.05,0,0a.12.12,0,0,1-.1-.09A1,1,0,0,0,10,1.33a.06.06,0,0,0-.07,0s0,0,0,0l0,.1s0,.06,0,0-.07,0-.05-.07L9.89,1S9.92,1,10,1Zm-.67.34L9.39.88a0,0,0,0,1,.05,0l.29.06s.05,0,0,.06,0,0-.07,0L9.55,1s-.06,0-.07,0,0,.06,0,.07l.16,0s.05,0,0,.06,0,0-.06,0l-.13,0c-.06,0-.08,0-.09.06s0,.07.05.08l.17,0s.06,0,0,.06,0,0-.06,0l-.3-.06h0S9.3,1.34,9.3,1.31ZM8.87.75S8.94.75,9,.8L9,1.12H9c0-.1.1-.19.14-.29s0-.05.09,0,0,0,0,.06l-.2.4A.07.07,0,0,1,9,1.3a.07.07,0,0,1-.07-.06L8.84.82S8.81.75,8.87.75Zm-.26.45q0-.21,0-.42s0-.05.05,0,.07,0,.06.05,0,.05,0,.08h0c0,.11,0,.23,0,.34s0,.06-.06.06S8.61,1.24,8.61,1.2ZM8.09.74s0,0,0,0,.07,0,.09,0L8.39,1h0q0-.12,0-.25s0-.06.05-.06.05,0,.05.06,0,.26,0,.4,0,.06,0,.07-.07,0-.1,0L8.24,1s0,0,0,0,0,0,0,0,0,.13,0,.19,0,.06-.05.05,0,0,0-.05S8.09.88,8.09.74ZM14.3,8A6.31,6.31,0,1,1,8,1.71,6.29,6.29,0,0,1,14.3,8ZM7.55.74s0,0,.06,0,.05,0,.05.05,0,.18,0,.27,0,.11.1.11.1,0,.09-.11,0-.09,0-.13h0c0-.05,0-.1,0-.15s0-.05,0,0S8,.7,8,.73A1.6,1.6,0,0,1,8,1.1a.17.17,0,0,1-.19.14c-.12,0-.19,0-.21-.13A1.84,1.84,0,0,1,7.55.74Zm-.73.52c0-.13.07-.27.1-.41S7,.77,7,.76s.07,0,.08.07.13.25.2.37,0,.07,0,.08,0,0-.06,0,0-.09-.09-.07-.16,0-.17.09a.06.06,0,0,1-.06.06S6.8,1.32,6.82,1.26ZM6.62.83s.06,0,.06,0l.08.44s0,0-.05.05,0,0-.05,0S6.6,1,6.57.88,6.6.84,6.62.83ZM6.19.91l.12,0a.13.13,0,0,1,.12,0s.05,0,0,.06-.06.05-.1,0a.1.1,0,0,0-.13,0s0,0,0,.05a.06.06,0,0,0,.05,0h.11a.17.17,0,0,1,.18.15c0,.08,0,.15-.14.18s-.21,0-.25-.05-.05,0,0-.07.06-.06.1,0a.11.11,0,0,0,.14,0,.07.07,0,0,0,.06-.08s0,0-.07,0H6.22a.14.14,0,0,1-.14-.13A.15.15,0,0,1,6.19.91Zm-.6.18L5.88,1s.05,0,.06,0,0,.05,0,.06l-.17.05s0,0,0,.07,0,.05.07,0l.15-.05s.05,0,.06,0,0,0,0,.06l-.15,0c-.05,0-.05,0,0,.08s0,.07.08,0L6,1.41s.07,0,.07,0,0,0,0,.05l-.3.1s0,0-.05,0l-.14-.41S5.56,1.11,5.6,1.1Zm-.53.2s.06,0,.1,0l.25.19,0,0-.09-.22s0-.05,0-.07.05,0,.06,0l.15.39s0,0,0,.06a.08.08,0,0,1-.1,0L5.3,1.53a.21.21,0,0,0-.08,0,.81.81,0,0,0,.07.22s0,.06,0,.08-.06,0-.07,0l-.14-.36S5,1.32,5.07,1.29Zm-.27.15a.31.31,0,0,1,.27.3A.27.27,0,0,1,4.8,2a.3.3,0,0,1-.27-.29A.27.27,0,0,1,4.8,1.44ZM4,1.85c.06,0,.12-.08.19-.11a.18.18,0,0,1,.21,0A.36.36,0,0,1,4.56,2a.22.22,0,0,1-.11.2c-.18.13-.18.13-.29-.06L4,1.93S4,1.87,4,1.85Zm-.48.33s.05-.06.1,0l.27.12s0,0,0,0l-.13-.19s0-.06,0-.09.06,0,.07,0l.23.32s0,0,0,.07-.05.06-.1,0L3.8,2.32s0,0-.06,0l.13.19s0,.06,0,.09-.05,0-.07,0l-.23-.32S3.52,2.2,3.55,2.18Zm-.17.13s0,0,.07,0l.29.37v0s0,0,0,0a0,0,0,0,1,0,0l-.28-.36S3.36,2.33,3.38,2.31Zm-.58.52L3,2.66a.12.12,0,0,1,.17,0,.13.13,0,0,1,.06.17s0,0,0,.05l.21,0c0,.1-.11.1-.18.07L3.15,3a.08.08,0,0,0-.07,0s0,0,0,.06l.06.07s0,.05,0,.08-.05,0-.08,0L2.8,2.89S2.79,2.85,2.81,2.83Zm-.3.31a.07.07,0,0,1,.09,0L3,3.26s0,0,0,0S3,3.37,3,3.35s-.12,0-.17.08,0,.08,0,.12,0,.08,0,.1,0,0-.06,0l-.2-.38A.08.08,0,0,1,2.51,3.14Zm-.25.29s.05,0,.08,0l.25.21a.15.15,0,0,1,.06.12.17.17,0,0,1-.23.16s-.06,0,0-.06,0-.08.07,0a.06.06,0,0,0,.08,0s0-.06,0-.08l-.24-.2S2.24,3.47,2.26,3.43Zm-.69,1s0,0,.07,0l.27.16s.07,0,.09,0a.81.81,0,0,0,0-.08.09.09,0,0,1,.13-.07h0C2.11,4.29,2,4.16,1.9,4s0-.06,0-.09,0-.05.09,0l.4.08s.08,0,.08,0a.07.07,0,0,1-.1.06c-.1,0-.11.06-.15.11s0,.07,0,.11h0v0s0,.07-.06.1h0A2.39,2.39,0,0,1,2,4.74s0,0-.07,0L1.6,4.54S1.55,4.5,1.58,4.47Zm-.24.45c0-.08.09-.17.13-.25s0-.05.05,0,0,0,0,0l-.09.18s0,.07,0,.09.06,0,.07,0l.07-.13s0-.05.07,0,0,0,0,.07l-.06.12s0,.06,0,.09.08,0,.11,0l.08-.16s0,0,.06,0,0,0,0,.07l-.15.28s0,0-.07,0L1.36,5S1.31,5,1.34,4.92Zm-.21.5.09-.2a.14.14,0,0,1,.14-.08.16.16,0,0,1,.15.23.32.32,0,0,1,0,.07s0,.06,0,.08l.08,0s0,0,0,.07,0,.06-.07,0l-.4-.16S1.11,5.46,1.13,5.42ZM1,6.1,1.27,6A1.36,1.36,0,0,0,1,5.94s-.06,0-.05,0,0-.07.07-.05L1.45,6s0,0,0,0a.09.09,0,0,1-.06.09l-.24.07s-.05,0,0,0,0,0,.05,0l.17,0s.05,0,0,.05,0,.06-.07,0L1,6.25s-.09,0-.09-.06S.93,6.11,1,6.1Zm-.19.49s0-.06.06-.07l.45-.09s.05,0,0,0,0,.07-.07.07-.07.1-.1.15,0,.08.05.1,0,.06,0,.1,0,0-.05,0L.83,6.67A.06.06,0,0,1,.79,6.59Zm-.11.69s0,0,.06,0l.28,0c.08,0,.12,0,.12-.09s0-.1-.1-.11L.8,7S.72,7,.73,7s0-.05.08,0l.3.05c.11,0,.14.1.12.25a.17.17,0,0,1-.18.16l-.33,0S.68,7.31.69,7.27Zm0,.55c0-.1,0-.2,0-.31s0-.07.05-.06,0,0,0,.07,0,.09.08.09h.26s.09,0,.09.06-.05,0-.09,0H.88c-.08,0-.14,0-.12.1s0,0-.05,0S.66,7.86.66,7.83Zm0,.3a.06.06,0,0,1,0-.07l.43-.18s.06,0,.05,0,0,.06-.05.07-.06.1-.06.15,0,.09.06.1a.06.06,0,0,1,.06.06s0,.07-.06.05L.7,8.2S.66,8.16.66,8.13Zm0,.55v0c0-.07,0-.13.07-.16s.05,0,.08,0a.06.06,0,0,1,0,.09.11.11,0,0,0,0,.14,0,0,0,0,0,0,0,0,0,0,0,0,0,0l0-.13c0-.1.08-.16.16-.16s.14.06.16.17a.2.2,0,0,1-.09.24s-.05,0-.07,0,0-.07,0-.09.06-.08.05-.14a.07.07,0,0,0-.06-.06s0,0-.06.06l0,.1c0,.1-.08.16-.16.15S.69,8.78.68,8.68Zm.1.69c0-.08,0-.16,0-.24A.13.13,0,0,1,.83,9,.13.13,0,0,1,1,9s0,0,.08,0a1.45,1.45,0,0,1,.15-.14.12.12,0,0,1,0,.18.66.66,0,0,0-.1.11.06.06,0,0,0,0,.07s0,0,.06,0l.09,0s.06,0,.07,0,0,.06,0,.06l-.41.08S.79,9.4.78,9.37Zm.1.49c0-.09,0-.17-.05-.26s0-.06,0-.06,0,0,.05,0,0,.11,0,.16,0,.06.06.05.06,0,0-.07a1.34,1.34,0,0,1,0-.16s0,0,0-.05.05,0,.06,0,0,.08,0,.13,0,.09.08.07.06-.06.05-.1l0-.16s0,0,0-.05a0,0,0,0,1,.05,0l.07.32s0,0,0,0L1,9.91S.89,9.91.88,9.86Zm.17.55L1,10.16A.17.17,0,0,1,1.09,10a.15.15,0,0,1,.17,0,.27.27,0,0,1,.05.12c0,.05,0,.07.09,0l.08,0s0,0,.05,0,0,0,0,.06l-.43.14S1.06,10.44,1.06,10.41Zm.54.82a.19.19,0,0,1,0-.38.19.19,0,0,1,.19.19A.19.19,0,0,1,1.59,11.23Zm.37,1s0-.06,0-.1l.12-.23,0-.07a1.42,1.42,0,0,0-.2.12s-.06.06-.09,0,0-.07,0-.09l.31-.2s0-.05.07,0,.05.06,0,.11L2.11,12v0h0l.2-.13s.05,0,.08,0,0,.06,0,.08L2,12.19S2,12.23,2,12.2Zm.44.44a.28.28,0,0,1-.25-.27.33.33,0,0,1,.3-.28.28.28,0,0,1,.25.26A.32.32,0,0,1,2.4,12.64Zm.11.24s0,0-.06,0,0,0,0-.06l.33-.28s.05,0,.08,0,0,0,0,.07l-.33.27Zm.37.35s0,0-.06,0L2.61,13s0,0,0-.07,0,0,.07,0,.08.07.16,0L3,12.74s0,0,0,0,0,0,0,.06,0,0,0,.05l-.2.18c-.06,0-.06.08,0,.13S2.94,13.2,2.89,13.23Zm.18.23a.08.08,0,0,1,0-.1l.15-.42s0-.06,0,0a.1.1,0,0,1,.06.08c-.07.08,0,.12.05.17s.09.06.14,0,.08,0,.1,0,0,0,0,0l-.38.2A.07.07,0,0,1,3.07,13.46Zm.32.26-.06-.05s0,0,0,0l.27-.34a0,0,0,0,1,.07,0s.05,0,0,.06l-.29.36Zm.45.26a.25.25,0,0,1-.27-.13.14.14,0,0,1,0-.09s0-.06,0-.06.08,0,.07.06a.11.11,0,0,0,.09.13.14.14,0,0,0,.15-.07A.28.28,0,0,0,4,13.7a.11.11,0,0,0,0-.12.09.09,0,0,0-.12,0c-.06,0-.08,0-.1,0s0,0,.06-.06a.23.23,0,0,1,.31.22A.34.34,0,0,1,3.85,14Zm.44.33A.28.28,0,0,1,4,14.06a.32.32,0,0,1,.27-.3.27.27,0,0,1,.27.25A.32.32,0,0,1,4.29,14.31Zm.63-.06a.09.09,0,0,0-.07-.1s-.08,0-.11,0,0,.06,0,.09l.08.08a.14.14,0,0,1,0,.19.15.15,0,0,1-.19,0c-.07,0-.14-.06-.16-.15s0-.08,0-.09a.07.07,0,0,1,.09.07s0,.06.07.08.06,0,.07,0,0-.05,0-.07l-.09-.08c-.07-.08-.08-.15,0-.22a.17.17,0,0,1,.22,0,.22.22,0,0,1,.16.19s0,.07,0,.07S4.91,14.3,4.92,14.24Zm.54.27s-.08,0-.08-.05,0-.09-.1-.11a.07.07,0,0,0-.08,0s0,.06,0,.08l.13.11a.13.13,0,0,1,0,.16l0,0a.13.13,0,0,1-.11,0,.27.27,0,0,1-.2-.09l0,0,0,0s0-.07,0-.08a.07.07,0,0,1,.09,0,.11.11,0,0,0,.1.09,0,0,0,0,0,.06,0s0,0,0-.06l-.13-.11a.14.14,0,0,1,0-.17.15.15,0,0,1,.16-.1.24.24,0,0,1,.23.2S5.49,14.51,5.45,14.51Zm.57.08-.29.34s0,0-.08,0-.06,0-.06-.08,0-.19,0-.29h0s0-.1,0-.14,0-.07,0-.06.08,0,.09.06,0,.08,0,.1l.15.06s0,0,.07,0,0,0,.08,0S6.06,14.55,6,14.59Zm.52.22a.11.11,0,0,0-.13-.09s-.05,0-.06,0a.06.06,0,0,0,0,.07l.13.07a.14.14,0,0,1,.07.17c0,.07-.08.1-.17.1a.23.23,0,0,1-.19-.1s0-.08,0-.1a.07.07,0,0,1,.1,0c0,.06.07.06.12.06a0,0,0,0,0,0,0s0,0,0,0l-.13-.07a.16.16,0,0,1-.08-.21.18.18,0,0,1,.21-.09c.09,0,.17.05.19.15s0,.07,0,.07S6.55,14.87,6.54,14.82Zm.5.43c0,.07-.06,0-.09,0l-.27-.05s-.06,0-.05-.05,0,0,.08,0,.09,0,.1-.09,0-.17,0-.26,0-.05.07,0,0,0,0,.07,0,.2-.06.3,0,.08.06.09S7.05,15.18,7,15.25Zm.58-.37c0,.13,0,.25,0,.38s0,.07,0,.08a.09.09,0,0,1-.1-.06A1.74,1.74,0,0,0,7.3,15l0,.24s0,.07-.05.07,0,0,0-.08l0-.39s0-.06,0-.07.08,0,.1,0l.12.25s0,0,0,0a.91.91,0,0,0,0-.23s0-.07.05-.06S7.62,14.83,7.62,14.87Zm.49,0c0,.07,0,.13,0,.2h0c0,.07,0,.13,0,.2s0,.07-.07.06H7.76s-.05,0-.05,0,0-.05.06,0h.17s.06,0,.06-.06,0-.06-.06-.06H7.79s-.06,0-.06,0,0-.05.07,0h.14C8,15,8,15,8,15s0-.08-.06-.08H7.76s-.05,0,0,0,0,0,.05,0h.3S8.12,14.83,8.11,14.87Zm.51.44h-.1a.26.26,0,0,1-.3-.35.22.22,0,0,1,.21-.17h.12c.07,0,.1,0,.1.1a3.52,3.52,0,0,0,0,.36S8.67,15.31,8.62,15.31Zm.55-.06s0,0-.05,0,0-.19,0-.29A.09.09,0,0,0,9,14.84a.09.09,0,0,0-.08.12c0,.09,0,.19,0,.28s0,.06-.05.06-.06,0-.06,0,0-.22,0-.29A.19.19,0,0,1,9,14.74a.18.18,0,0,1,.22.13c0,.11,0,.21.05.32S9.21,15.25,9.18,15.25Zm.51-.12-.32.07s0,0,0,0a0,0,0,0,1,0-.05h0c.06,0,.07,0,.05-.09s0-.19-.07-.29,0-.06,0-.07.07,0,.08.05,0,.18.06.28,0,.09.1.07.07,0,.08,0S9.72,15.13,9.68,15.14Zm.5-.23a.1.1,0,0,1-.06.1s0,0,0,0a.09.09,0,0,1-.08,0,.09.09,0,0,1-.1,0h0s-.06,0-.06-.08,0,0,0,0a.07.07,0,0,1,.09,0H10l.08,0v0h0l0,0H9.87a.14.14,0,0,1-.13-.09.16.16,0,0,1,0-.17.25.25,0,0,1,.34,0s0,0,0,.07-.06.05-.09,0a.11.11,0,0,0-.14,0c-.06,0-.07.06,0,.12a.67.67,0,0,1,.19,0,.11.11,0,0,1,.13.11A0,0,0,0,1,10.19,14.91Zm.73-.18a.09.09,0,0,1-.1,0l-.06,0-.18-.13,0,0,.08.22s0,0,0,.06-.06,0-.08,0l-.17-.42a0,0,0,0,1,0,0s.07,0,.11,0l.23.16h0l0,0-.07-.19s0-.06,0-.07.06,0,.07,0l.16.38S10.94,14.71,10.92,14.73Zm.37-.18s0,0-.07,0l-.37-.31s0,0,0,0,.06-.06.1,0,0,.06.08.05a.72.72,0,0,0,.15-.08s0,0,0-.07,0-.08.05-.09,0,0,.05,0l0,.45C11.34,14.53,11.31,14.54,11.28,14.55Zm.33-.17a0,0,0,0,1-.06,0L11.33,14s0,0,0-.05.05,0,.07,0l.23.4v0S11.63,14.37,11.61,14.38Zm.38-.23a.25.25,0,0,1-.17.08h0s-.09,0-.08-.07a.07.07,0,0,1,.1,0c.05,0,.1,0,.12-.06s0-.06-.05-.06l-.11,0a.16.16,0,1,1-.16-.28.2.2,0,0,1,.25,0s.06,0,0,.07,0,.06-.09,0a.11.11,0,0,0-.15,0,.06.06,0,0,0,0,.08s0,0,.07,0l.14,0A.14.14,0,0,1,12,14,.14.14,0,0,1,12,14.15Zm.5-.37-.22.18s0,0-.07,0,0,0,0-.07l.12-.1s.05,0,0-.08-.05,0-.09,0l-.12.1s0,0-.07,0,0,0,0-.07l.13-.11a0,0,0,0,0,0,0l-.07-.07s0,0-.06,0l-.13.11s0,0-.07,0,0-.05,0-.07l.23-.19s.05,0,.07,0l.26.33S12.52,13.76,12.49,13.78Zm.44-.37s0,.06-.1,0l-.26-.08a.06.06,0,0,0-.06,0,1.44,1.44,0,0,0,.16.19s0,0,0,.08-.05,0-.08,0l-.26-.3s-.06,0,0-.07.05-.06.1,0l.24.07a.1.1,0,0,0,.08,0l-.16-.19s0,0,0-.07,0,0,.07,0l.26.31S13,13.38,12.93,13.41Zm.12-.2a.31.31,0,0,1-.29-.29.27.27,0,0,1,.25-.26.32.32,0,0,1,.29.29A.28.28,0,0,1,13,13.21Zm.66-.64-.13.15a.22.22,0,0,1-.11.05.37.37,0,0,1-.32-.25.22.22,0,0,1,.06-.17c.13-.17.13-.17.29,0l.2.17S13.75,12.54,13.71,12.57Zm.35-.49s0,.07-.08.06l-.33,0v0l.21.15s0,0,0,.07,0,0-.08,0l-.32-.23s-.07,0,0-.07,0-.07.09-.06l.24,0s0,0,.07,0l-.21-.15s0,0,0-.07,0,0,.08,0L14,12S14.09,12.05,14.07,12.09Zm.09-.15s0,0,0,0l-.35-.22s-.05,0,0-.07,0,0,.08,0l.35.22s0,0,0,0A.14.14,0,0,1,14.15,11.94Zm.21-.71a.19.19,0,0,1-.19-.19.18.18,0,0,1,.18-.18.19.19,0,0,1,.19.19A.19.19,0,0,1,14.36,11.23Zm.6-1s0,.06-.08.06l-.33,0h-.1s-.07,0-.07,0,0-.08.06-.09.08,0,.1,0A.72.72,0,0,0,14.6,10s0,0,0-.05a.07.07,0,0,1,0-.12s.06,0,.08,0l.31.25S15,10.18,15,10.23Zm.1-.36s0,0-.07,0a.68.68,0,0,0-.18,0s0,0,0,0a1,1,0,0,0-.19,0s0,0,0,0,0-.11.11-.08l.36.1C15.08,9.8,15.08,9.83,15.07,9.87Zm.1-.42a.22.22,0,0,1-.1.19s-.08,0-.1,0a.07.07,0,0,1,0-.09.1.1,0,0,0,.06-.1.06.06,0,0,0,0-.06s0,0-.06,0l-.07.13a.15.15,0,0,1-.19.08.16.16,0,0,1-.11-.15.23.23,0,0,1,.16-.25s.06,0,.07,0,0,.07,0,.08a.12.12,0,0,0-.09.13s0,.06,0,.07.05,0,.06,0l.07-.13a.15.15,0,0,1,.18-.07A.15.15,0,0,1,15.17,9.45Zm0-.55C15,9,15,9,15.15,9s.09.06.07.13,0,0-.05,0L15,9.08A.4.4,0,0,0,14.76,9s-.06,0,0,0,0-.08.05-.06.3,0,.44-.1.06,0,.06,0S15.21,8.87,15.16,8.89ZM14.87,8s0,.09,0,.14,0,.07-.07.06h0s0,0,.06,0l.37.17a.07.07,0,0,1,0,.08.07.07,0,0,1-.06.08l-.41.13s-.06,0-.07,0a.08.08,0,0,1,0-.11s.07,0,.08,0a1.34,1.34,0,0,0,0-.17s0,0,0,0l-.05,0a.06.06,0,0,1,0,0v0h0l0-.06h0a0,0,0,0,1,0,0h0c0-.09,0-.18,0-.27s0-.06.06-.06h.4s.07,0,.07.06,0,.05-.06.05h-.31C14.88,7.92,14.86,7.94,14.87,8Zm.42-.53s0,.05,0,.07l-.39.19s0,.05-.06,0,0-.08,0-.1.07-.14.07-.22,0-.05-.07-.05-.06,0-.06-.07,0-.06.05,0l.43.13C15.28,7.39,15.28,7.42,15.28,7.46Zm-.19-.88c.08,0,.07,0,.08.09s0,.07,0,.09a1.24,1.24,0,0,0-.23.13l.25,0c.09,0,.09.06.09.12s0,.06-.08.06l-.36.07s-.07,0-.07,0,0-.06.06-.07L15,7a.55.55,0,0,0-.22,0s-.07,0-.09-.06,0-.06.06-.08l0,0,.12-.06v0a1.14,1.14,0,0,0-.19,0s0,0,0,0l0-.07s0,0,0,0,0,0,0,0h.11l.13,0s0,0,0,0l.13,0S15.07,6.56,15.09,6.58ZM15,5.85A.1.1,0,0,1,15,6l-.18.19a.06.06,0,0,0,0,0l.19,0,.08,0s0,0,0,0a0,0,0,0,1,0,.05l-.43.13s0,0,0,0,0-.07,0-.1l.16-.18s0,0,0-.06a.91.91,0,0,0-.22.06s-.07,0-.08,0,0-.06.05-.07l.39-.12S15,5.83,15,5.85ZM14.63,5s0,.05,0,.08-.23.26-.36.37h0s0,0,.06,0h.43a.08.08,0,0,1,.08.06s0,.06,0,.09l-.31.3s0,.05-.06,0-.05-.06,0-.09,0-.15,0-.23a.05.05,0,0,0-.06,0,.15.15,0,0,1-.09,0s0,0,0-.1h0a.09.09,0,0,1,0-.08v0l0,0a.07.07,0,0,0,0-.09.44.44,0,0,1,0-.08.07.07,0,0,0-.1-.05s-.06,0-.08,0,0-.05,0-.06l.47,0S14.62,4.93,14.63,5Zm-.27-.53a.2.2,0,0,1,.05.21s0,.08-.07.06a.07.07,0,0,1,0-.1s0-.09,0-.12a0,0,0,0,0-.06,0,0,0,0,0,0,0,0c0,.06,0,.12,0,.17s-.05.18-.19.18-.1-.07-.14-.14a.17.17,0,0,1,0-.2s0-.07.07,0,.06.05,0,.1,0,.1,0,.14a.06.06,0,0,0,.08,0s0,0,0-.08l0-.12a.15.15,0,0,1,.08-.19A.14.14,0,0,1,14.37,4.43Zm-.22-.23s0,.07-.05.05-.07,0-.05-.09A.13.13,0,0,0,14,4a.19.19,0,0,0-.21.07.14.14,0,0,0,0,.18l.06.06s0,0,.07,0,0,0,0-.07,0-.05,0-.08.05,0,.07,0h0c.09.14.09.16-.07.23a.07.07,0,0,1-.06,0,.33.33,0,0,1-.2-.33.31.31,0,0,1,.3-.22A.27.27,0,0,1,14.14,4.2Zm-.52-.83a.09.09,0,0,1,0,.11c0,.08-.06.16-.09.24a0,0,0,0,0,0,0l.18-.14s0-.05.08,0,0,.06,0,.09l-.3.24s0,.06-.08,0a.1.1,0,0,1,0-.12l.09-.24a.06.06,0,0,0,0-.05l-.19.15s-.05,0-.09,0,0-.05,0-.07l.3-.24S13.59,3.33,13.63,3.37Z"/><circle class="cls-1" cx="14.81" cy="8.19" transform="translate(2.98 20.29) rotate(-74.62)"/><path d="M1.67,8A6.31,6.31,0,1,0,8,1.71,6.28,6.28,0,0,0,1.67,8ZM8,1.87A6.15,6.15,0,1,1,1.83,8,6.15,6.15,0,0,1,8,1.87Z"/><path class="cls-2" d="M15.06,6.59l-.13,0a0,0,0,0,1,0,0l-.13,0h-.11l0,0,0,.07h0a1.14,1.14,0,0,1,.19,0s.05,0,.08,0-.05,0-.08,0h0l-.12.06,0,0s-.07,0-.06.08,0,.05.09.06A.55.55,0,0,1,15,7l-.21.05s-.06,0-.06.07,0,0,.07,0l.36-.07s.09,0,.08-.06,0-.12-.09-.12l-.25,0a1.24,1.24,0,0,1,.23-.13s.06,0,0-.09,0-.1-.08-.09A0,0,0,0,1,15.06,6.59Zm0,.11h0Z"/><path class="cls-1" d="M14.9,6.77h0l-.12.06.12-.06Z"/><path class="cls-2" d="M12.5,2.94a2.31,2.31,0,0,0,.21.19.14.14,0,0,0,.15,0A.12.12,0,0,0,12.93,3s0,0,0-.05a.12.12,0,0,0,.11-.12.13.13,0,0,0,0-.08l-.2-.2s0,0-.05,0l-.3.32S12.47,2.91,12.5,2.94Zm.34-.26s.13.1.13.13,0,.05-.05.06-.15-.08-.14-.11A.13.13,0,0,1,12.84,2.67Zm-.14.15s.13.12.13.14a.08.08,0,0,1-.06.07s-.16-.1-.15-.12A.15.15,0,0,1,12.71,2.82Z"/><path class="cls-2" d="M1,6.25l.36.1s.06,0,.07,0,0,0,0-.05l-.17,0s-.05,0-.05,0,0,0,0,0l.24-.07A.09.09,0,0,0,1.49,6s0,0,0,0L1,5.84c-.05,0-.07,0-.07.05s0,0,.05,0A1.36,1.36,0,0,1,1.27,6L1,6.1s-.09,0-.09.09S.94,6.24,1,6.25Z"/><path class="cls-2" d="M5.2,1.73s0,.07.07,0,0,0,0-.08a.81.81,0,0,1-.07-.22.21.21,0,0,1,.08,0l.17.13a.08.08,0,0,0,.1,0s0,0,0-.06L5.44,1.2s0-.05-.06,0,0,0,0,.07l.09.22,0,0-.25-.19s-.07,0-.1,0,0,.05,0,.08Z"/><path d="M14,12l-.33-.23s-.05,0-.08,0,0,0,0,.07l.21.15s-.05,0-.07,0l-.24,0c-.05,0-.07,0-.09.06s0,.06,0,.07l.32.23s.05,0,.08,0,0-.05,0-.07l-.21-.15v0l.33,0c.05,0,.06,0,.08-.06S14.05,12,14,12Z"/><path d="M7.57,14.8s-.05,0-.05.06a.91.91,0,0,1,0,.23s0,0,0,0l-.12-.25s-.07,0-.1,0,0,0,0,.07l0,.39s0,.07,0,.08,0,0,.05-.07l0-.24a1.74,1.74,0,0,1,.15.27.09.09,0,0,0,.1.06s0-.05,0-.08,0-.25,0-.38S7.62,14.81,7.57,14.8Z"/><path class="cls-2" d="M14.47,6s0,0,.08,0A.91.91,0,0,1,14.77,6s0,0,0,.06l-.16.18s0,.07,0,.1,0,0,0,0L15,6.24a0,0,0,0,0,0-.05s0,0,0,0l-.08,0-.19,0a.06.06,0,0,1,0,0L15,6a.1.1,0,0,0,0-.12s0,0-.06,0L14.53,6S14.46,6,14.47,6Z"/><path class="cls-2" d="M13.23,3.71s.05,0,.09,0l.19-.15a.06.06,0,0,1,0,.05l-.09.24a.1.1,0,0,0,0,.12s.06,0,.08,0l.3-.24s0,0,0-.09-.05,0-.08,0l-.18.14a0,0,0,0,1,0,0c0-.08.06-.16.09-.24a.09.09,0,0,0,0-.11s-.06,0-.08,0l-.3.24S13.2,3.67,13.23,3.71Zm.34.06h0Z"/><path class="cls-2" d="M3.8,2.57s0,.06.07,0,0-.05,0-.09l-.13-.19s0,0,.06,0L4,2.43c.05,0,.08,0,.1,0s0,0,0-.07L3.91,2s0-.06-.07,0,0,.06,0,.09L4,2.26s0,0,0,0l-.27-.12c-.05,0-.08,0-.1,0s0,0,0,.07Z"/><path d="M2.39,11.9s0,0-.08,0l-.2.13h0v0l.13-.25s0-.08,0-.11-.05,0-.07,0l-.31.2s-.08,0,0,.09.06,0,.09,0a1.42,1.42,0,0,1,.2-.12l0,.07-.12.23s0,.07,0,.1,0,0,.07,0L2.37,12S2.42,11.94,2.39,11.9Z"/><path class="cls-2" d="M8.13,1.22s.05,0,.05-.05,0-.13,0-.19,0,0,0,0,0,0,0,0l.14.23s.07,0,.1,0,0,0,0-.07,0-.26,0-.4S8.51.7,8.46.7s-.05,0-.05.06,0,.17,0,.25h0L8.21.73s-.06,0-.09,0,0,0,0,0,0,.29,0,.43S8.1,1.22,8.13,1.22Z"/><path d="M12.91,13.34,12.64,13s0,0-.07,0,0,0,0,.07l.16.19a.1.1,0,0,1-.08,0l-.24-.07s-.07,0-.1,0,0,.05,0,.07l.26.3s0,0,.08,0,0-.05,0-.08a1.44,1.44,0,0,1-.16-.19.06.06,0,0,1,.06,0l.26.08s.07,0,.1,0S12.92,13.36,12.91,13.34Z"/><path class="cls-2" d="M9.84,1.48s0,0,0,0l0-.1s0,0,0,0a.06.06,0,0,1,.07,0,1,1,0,0,1,.06.16.12.12,0,0,0,.1.09s0,0,0,0a1,1,0,0,0-.06-.16s0,0,0-.05a.14.14,0,0,0,.11-.15.13.13,0,0,0-.1-.13L10,1S9.9,1,9.89,1l-.11.4C9.77,1.47,9.8,1.47,9.84,1.48Zm.18-.4c.06,0,.14,0,.15.09s0,.07-.08.06-.12,0-.13-.07S10,1.07,10,1.08Z"/><path d="M10.77,14.28s0,0-.07,0,0,0,0,.07l.07.19v0s0,0,0,0h0l-.23-.16s-.07,0-.11,0a0,0,0,0,0,0,0l.17.42s0,0,.08,0,0,0,0-.06l-.08-.22h0a0,0,0,0,1,0,0h0l.18.13.06,0a.09.09,0,0,0,.1,0s0,0,0-.06Z"/><path class="cls-1" d="M10.57,14.56h0l.18.13-.18-.13Z"/><path class="cls-1" d="M10.73,14.53h0l-.23-.16.23.16Z"/><path class="cls-2" d="M3.1,3.21s0,0,.08,0,0-.05,0-.08l-.06-.07s0,0,0-.06a.08.08,0,0,1,.07,0l.13,0c.07,0,.14,0,.18-.07l-.21,0s-.05,0,0-.05a.13.13,0,0,0-.06-.17.12.12,0,0,0-.17,0l-.19.17s0,0,0,.07Zm0-.47a.06.06,0,0,1,.06.06S3,2.95,3,2.94a.12.12,0,0,1-.08-.08S3,2.73,3.07,2.73Z"/><path class="cls-2" d="M13.61,4.09a.33.33,0,0,0,.2.33.07.07,0,0,0,.06,0c.15-.07.16-.09.07-.23h0s0-.06-.07,0,0,0,0,.08,0,0,0,.07-.05,0-.07,0l-.06-.06a.14.14,0,0,1,0-.18A.19.19,0,0,1,14,4a.13.13,0,0,1,.08.17s0,.07.05.09,0,0,.05-.05a.27.27,0,0,0-.24-.32A.31.31,0,0,0,13.61,4.09Z"/><path class="cls-2" d="M.85,9.42l.41-.08s.06,0,0-.06,0-.06-.07,0l-.09,0s0,0-.06,0a.06.06,0,0,1,0-.07.66.66,0,0,1,.1-.11.12.12,0,0,0,0-.18A1.45,1.45,0,0,0,1.07,9s0,0-.08,0A.13.13,0,0,0,.83,9a.13.13,0,0,0-.09.15c0,.08,0,.16,0,.24S.8,9.43.85,9.42ZM.9,9.08s.08.07.08.19-.06,0-.08,0,0-.1-.06-.15S.86,9.08.9,9.08Z"/><path d="M8.06,14.81h-.3s0,0-.05,0,0,0,0,0h.18c.06,0,.07,0,.06.08S8,15,7.93,15H7.79s-.07,0-.07,0,0,0,.06,0h.14s.06,0,.06.06,0,.06-.06.06H7.76s-.06,0-.06,0,0,0,.05,0H8s.07,0,.07-.06,0-.13,0-.2h0c0-.07,0-.13,0-.2S8.1,14.81,8.06,14.81Z"/><path d="M13,12.67a.27.27,0,0,0-.25.26.31.31,0,0,0,.29.29.28.28,0,0,0,.26-.25A.32.32,0,0,0,13,12.67Zm0,.44a.25.25,0,0,1-.2-.2.15.15,0,0,1,.14-.14.23.23,0,0,1,.2.2A.14.14,0,0,1,13.06,13.11Z"/><path class="cls-2" d="M4.8,2a.27.27,0,0,0,.27-.25.31.31,0,0,0-.27-.3.27.27,0,0,0-.26.25A.3.3,0,0,0,4.8,2Zm0-.45c.08,0,.17.11.17.21a.14.14,0,0,1-.14.14.2.2,0,0,1-.18-.21A.14.14,0,0,1,4.79,1.54Z"/><path d="M2.7,12.36a.28.28,0,0,0-.25-.26.33.33,0,0,0-.3.28.28.28,0,0,0,.25.27A.32.32,0,0,0,2.7,12.36Zm-.32.17a.15.15,0,0,1-.13-.15.23.23,0,0,1,.21-.18.15.15,0,0,1,.13.14A.24.24,0,0,1,2.38,12.54Z"/><path class="cls-2" d="M11.69,2.33s.06,0,.09,0l0-.06a.09.09,0,0,1,.11,0s0,.05,0,.08a.62.62,0,0,1,0,.11c0,.08,0,.12.12.15s0-.15,0-.22,0-.15.15-.17a.17.17,0,0,0,.11,0c-.12-.14-.25,0-.38,0A.32.32,0,0,1,12,2s0-.05,0-.08-.05,0-.08,0l-.24.34S11.66,2.3,11.69,2.33Z"/><path class="cls-2" d="M9.33,1.36h0l.3.06s.05,0,.06,0,0-.05,0-.06l-.17,0s-.07,0-.05-.08,0-.07.09-.06l.13,0s0,0,.06,0,0,0,0-.06l-.16,0s0,0,0-.07,0-.06.07,0l.16,0s.05,0,.07,0,0-.05,0-.06L9.44.84a0,0,0,0,0-.05,0l-.09.43S9.3,1.35,9.33,1.36Z"/><path class="cls-1" d="M9.33,1.36s0,0,0,0L9.39.88l-.09.43S9.3,1.35,9.33,1.36Z"/><path d="M4.29,13.76a.32.32,0,0,0-.27.3.28.28,0,0,0,.27.25.32.32,0,0,0,.27-.3A.27.27,0,0,0,4.29,13.76Zm0,.45a.14.14,0,0,1-.13-.14.22.22,0,0,1,.18-.2.14.14,0,0,1,.14.14A.22.22,0,0,1,4.26,14.2Z"/><path d="M8.65,14.89c0-.09,0-.12-.1-.1H8.43a.22.22,0,0,0-.21.17.26.26,0,0,0,.3.35h.1s.06,0,.05-.06A3.52,3.52,0,0,1,8.65,14.89Zm-.12.34a.14.14,0,0,1-.17-.07.34.34,0,0,1,0-.14.14.14,0,0,1,.18-.14s0,0,0,.06,0,.09,0,.14h0a.28.28,0,0,1,0,0S8.59,15.22,8.52,15.23Z"/><path class="cls-2" d="M5.71,1.57s0,0,.05,0l.3-.1s0,0,0-.05,0,0-.07,0l-.17.06c-.05,0-.07,0-.08,0s0-.07,0-.08L6,1.3s0,0,0-.06,0,0-.06,0l-.15.05s-.06,0-.07,0,0-.06,0-.07l.17-.05s.05,0,0-.06,0,0-.06,0L5.6,1.1s0,0,0,.06Z"/><path d="M11.86,13.9l-.14,0s-.05,0-.07,0a.06.06,0,0,1,0-.08.11.11,0,0,1,.15,0s.08,0,.09,0,0-.05,0-.07a.2.2,0,0,0-.25,0,.16.16,0,1,0,.16.28l.11,0s.08,0,.05.06-.07.09-.12.06a.07.07,0,0,0-.1,0s0,.06.08.07h0a.25.25,0,0,0,.17-.08A.14.14,0,0,0,12,14,.14.14,0,0,0,11.86,13.9Z"/><path class="cls-2" d="M1.41,9.78l-.07-.32a0,0,0,0,0-.05,0s0,0,0,.05l0,.16s0,.09-.05.1-.07,0-.08-.07,0-.08,0-.13,0,0-.06,0,0,0,0,.05a1.34,1.34,0,0,0,0,.16s0,.06,0,.07S1,9.78,1,9.74s0-.1,0-.16,0-.06-.05,0,0,0,0,.06,0,.17.05.26,0,.07.08.05l.4-.09S1.41,9.81,1.41,9.78Z"/><path d="M13.7,12.49l-.2-.17c-.16-.14-.16-.14-.29,0a.22.22,0,0,0-.06.17.37.37,0,0,0,.32.25.22.22,0,0,0,.11-.05l.13-.15S13.74,12.51,13.7,12.49Zm-.14.11s-.06.07-.1.07a.3.3,0,0,1-.21-.15c0-.07,0-.11.05-.15s0,0,.08,0l.17.14S13.61,12.57,13.57,12.6Z"/><path d="M12.23,13.38s0,0-.07,0l-.23.19s0,0,0,.07,0,0,.07,0l.13-.11s0,0,.06,0l.07.07a0,0,0,0,1,0,0l-.13.11s0,0,0,.07,0,0,.07,0l.12-.1s.05,0,.09,0,0,.06,0,.08l-.12.1s0,0,0,.07,0,0,.07,0l.22-.18s0,0,0-.08Z"/><path class="cls-2" d="M12.12,2.64l.24.19s0,0,0,0l0-.05,0,0-.15-.11s0,0,0,0,.07-.09.14,0l.09.08s0,0,.08,0,0,0,0-.07l-.13-.11s0-.05,0-.07,0,0,.06,0l.16.12s0,0,.06,0,0,0,0-.06l-.24-.19s0,0-.06,0l-.26.34S12.09,2.61,12.12,2.64Z"/><path class="cls-2" d="M1.36,5l.37.2s.05,0,.07,0l.15-.28s0-.05,0-.07,0,0-.06,0L1.78,5c0,.06-.06.05-.11,0s0-.06,0-.09l.06-.12s0,0,0-.07-.05,0-.07,0l-.07.13s0,.07-.07,0,0-.05,0-.09l.09-.18s0,0,0,0,0,0-.05,0-.08.17-.13.25S1.32,5,1.36,5Z"/><path class="cls-2" d="M4.16,2.16c.11.18.11.18.29.06A.22.22,0,0,0,4.56,2a.36.36,0,0,0-.13-.23.18.18,0,0,0-.21,0c-.07,0-.12.08-.19.11s0,0,0,.08Zm0-.27a.19.19,0,0,1,.17-.05A.3.3,0,0,1,4.45,2a.21.21,0,0,1-.12.14s0,0,0,0l-.14-.22A0,0,0,0,1,4.14,1.89Z"/><path class="cls-2" d="M6.22,1.2h.14s.07,0,.07,0a.07.07,0,0,1-.06.08.11.11,0,0,1-.14,0s-.07,0-.1,0,0,0,0,.07.14.08.25.05.15-.1.14-.18a.17.17,0,0,0-.18-.15H6.25a.06.06,0,0,1-.05,0s0,0,0-.05a.1.1,0,0,1,.13,0s.07,0,.1,0,0,0,0-.06a.13.13,0,0,0-.12,0l-.12,0a.15.15,0,0,0-.11.16A.14.14,0,0,0,6.22,1.2Z"/><path class="cls-2" d="M10.41,1.68c.07,0,.14.07.22,0a.15.15,0,0,0,.08-.14.12.12,0,0,0-.05-.11l-.13-.1s0,0,0-.06,0,0,.06,0a.09.09,0,0,1,.09.08s.05.05.08.05,0,0,0-.07-.09-.13-.16-.15a.15.15,0,0,0-.2.07c0,.07,0,.13.06.2l.09.07s0,0,0,.08a.07.07,0,0,1-.08,0c-.06,0-.1,0-.1-.1s-.05-.05-.08-.06,0,0,0,.06A.17.17,0,0,0,10.41,1.68Z"/><path class="cls-2" d="M14.1,4.55l0,.12s0,.06,0,.08a.06.06,0,0,1-.08,0s-.07-.09,0-.14,0-.07,0-.1-.05,0-.07,0a.17.17,0,0,0,0,.2c0,.07.08.14.14.14s.2-.07.19-.18,0-.12,0-.17a0,0,0,0,1,0,0,0,0,0,0,1,.06,0s.06.08,0,.12a.07.07,0,0,0,0,.1s.05,0,.07-.06a.2.2,0,0,0-.05-.21.14.14,0,0,0-.19-.06A.15.15,0,0,0,14.1,4.55Z"/><path class="cls-2" d="M1,8.7l0-.1s0-.06.06-.06a.07.07,0,0,1,.06.06c0,.05,0,.11-.05.14s0,.06,0,.09,0,0,.07,0a.2.2,0,0,0,.09-.24c0-.11-.07-.16-.16-.17s-.14.06-.16.16l0,.13a0,0,0,0,1,0,0,0,0,0,0,1,0,0,.11.11,0,0,1,0-.14.06.06,0,0,0,0-.09s-.06,0-.08,0-.06.1-.07.16v0c0,.1.06.16.14.17S1,8.8,1,8.7Z"/><path d="M5,14.24A.22.22,0,0,0,4.86,14a.17.17,0,0,0-.22,0c0,.07,0,.14,0,.22l.09.08s0,0,0,.07,0,0-.07,0-.07,0-.07-.08a.07.07,0,0,0-.09-.07s0,.06,0,.09.09.12.16.15a.15.15,0,0,0,.19,0,.14.14,0,0,0,0-.19l-.08-.08s-.06,0,0-.09.07,0,.11,0a.09.09,0,0,1,.07.1c0,.06,0,.07.07.07S5,14.26,5,14.24Z"/><path d="M5.25,14.25a.15.15,0,0,0-.16.1.14.14,0,0,0,0,.17l.13.11s0,0,0,.06a0,0,0,0,1-.06,0,.11.11,0,0,1-.1-.09.07.07,0,0,0-.09,0s0,.05,0,.08l0,0,0,0a.27.27,0,0,0,.2.09.13.13,0,0,0,.11,0l0,0a.13.13,0,0,0,0-.16l-.13-.11s0,0,0-.08a.07.07,0,0,1,.08,0c.06,0,.1,0,.1.11s.05.05.08.05,0,0,0-.06A.24.24,0,0,0,5.25,14.25Z"/><path class="cls-1" d="M5,14.71l0,0Z"/><path class="cls-2" d="M15.08,9.28a.15.15,0,0,0-.18.07l-.07.13s0,0-.06,0,0,0,0-.07a.12.12,0,0,1,.09-.13s0-.05,0-.08,0,0-.07,0a.23.23,0,0,0-.16.25.16.16,0,0,0,.11.15.15.15,0,0,0,.19-.08L15,9.42s0,0,.06,0a.06.06,0,0,1,0,.06.1.1,0,0,1-.06.1.07.07,0,0,0,0,.09s.07,0,.1,0a.22.22,0,0,0,.1-.19A.15.15,0,0,0,15.08,9.28Z"/><path d="M6.64,14.79c0-.1-.1-.13-.19-.15a.18.18,0,0,0-.21.09.16.16,0,0,0,.08.21l.13.07s0,0,0,0a0,0,0,0,1,0,0c-.05,0-.1,0-.12-.06a.07.07,0,0,0-.1,0s0,.07,0,.1a.23.23,0,0,0,.19.1c.09,0,.15,0,.17-.1a.14.14,0,0,0-.07-.17l-.13-.07a.06.06,0,0,1,0-.07s0,0,.06,0a.11.11,0,0,1,.13.09c0,.05.05,0,.08,0S6.65,14.82,6.64,14.79Z"/><path class="cls-2" d="M7.56,1.11c0,.09.09.13.21.13A.17.17,0,0,0,8,1.1,1.6,1.6,0,0,0,8,.73s0,0-.06,0,0,0,0,0,0,.1,0,.15h0s0,.09,0,.13,0,.11-.09.11-.1,0-.1-.11,0-.18,0-.27S7.64.7,7.61.7s-.06,0-.06,0A1.84,1.84,0,0,0,7.56,1.11Z"/><path class="cls-2" d="M.72,7.34l.33,0a.17.17,0,0,0,.18-.16c0-.15,0-.22-.12-.25l-.3-.05c-.07,0-.07,0-.08,0S.76,7,.8,7l.25,0c.07,0,.11,0,.1.11s0,.1-.12.09l-.28,0s-.06,0-.06,0S.68,7.33.72,7.34Z"/><path d="M9.18,14.87A.18.18,0,0,0,9,14.74a.19.19,0,0,0-.18.23c0,.07,0,.17,0,.29s0,.05.06,0,.07,0,.05-.06,0-.19,0-.28A.09.09,0,0,1,9,14.84a.09.09,0,0,1,.12.08c0,.1,0,.19,0,.29s0,.06.05,0,.06,0,.06-.06S9.2,15,9.18,14.87Z"/><path class="cls-2" d="M14.79,7.25s-.06,0-.05,0,0,.06.06.07.07,0,.07.05.06.17-.07.22,0,.07,0,.1,0,0,.06,0l.39-.19s.05,0,0-.07,0-.07-.06-.09Zm.22.28a0,0,0,0,1,0,0,.13.13,0,0,1,0-.09s0,0,0,0l.14,0S15.05,7.5,15,7.53Z"/><path class="cls-2" d="M6.87,1.31a.06.06,0,0,0,.06-.06c0-.11.11-.07.17-.09s.08,0,.09.07,0,0,.06,0,.08,0,0-.08S7.16.95,7.09.83,7.07.75,7,.76s-.08,0-.09.09-.06.27-.1.41S6.83,1.32,6.87,1.31ZM7,1.05,7,.91s.05.09.08.12,0,0,0,0L7,1.09S7,1.07,7,1.05Z"/><path d="M6,14.51s-.06,0-.08,0,0,.06-.07,0l-.15-.06s0-.06,0-.1-.06-.06-.09-.06,0,0,0,.06,0,.1,0,.14h0c0,.1,0,.19,0,.29s0,.06.06.08.06,0,.08,0L6,14.59S6,14.53,6,14.51Zm-.21.19s0,.08-.11.11,0-.08,0-.11,0-.06,0-.07.06,0,.08,0S5.81,14.69,5.79,14.71Z"/><path d="M11.28,14s0,0-.05,0-.07,0-.05.09,0,.06,0,.07a.72.72,0,0,1-.15.08s-.06,0-.08-.05-.07,0-.1,0,0,0,0,0l.37.31s.05,0,.07,0,.06,0,0-.08Zm-.06.41-.08-.07c-.06-.05-.06-.06,0-.1s.05,0,.05,0A.32.32,0,0,1,11.22,14.43Z"/><path class="cls-2" d="M2.25,4.33v0h0s0-.07,0-.11,0-.15.15-.11A.07.07,0,0,0,2.47,4s0,0-.08,0L2,3.89s-.07,0-.09,0,0,.06,0,.09.2.26.28.41C2.21,4.4,2.27,4.38,2.25,4.33Zm-.13-.19S2.06,4.07,2,4s0,0,0,0,.12,0,.13.06S2.16,4.15,2.13,4.14Z"/><path class="cls-1" d="M2.24,4.31v0Z"/><circle class="cls-1" cx="2.19" cy="4.43" transform="translate(-2.46 2.75) rotate(-43.8)"/><polygon class="cls-1" points="2.19 4.43 2.19 4.43 2.19 4.43 2.19 4.43"/><path class="cls-2" d="M1.13,8.36c.05,0,.06,0,.06-.05a.06.06,0,0,0-.06-.06c-.06,0-.07-.06-.06-.1S1,8,1.12,8s.06,0,.05-.07,0-.06-.05,0L.7,8.06a.06.06,0,0,0,0,.07s0,.06,0,.08ZM.94,8.07c.05,0,0,0,0,.06s0,.07,0,.06-.12,0-.12-.06S.9,8.08.94,8.07Z"/><path class="cls-2" d="M14.78,8.26v0a.06.06,0,0,0,0,0l.05,0s0,0,0,0a1.34,1.34,0,0,1,0,.17s-.05,0-.08,0a.08.08,0,0,0,0,.11s0,0,.07,0l.41-.13a.07.07,0,0,0,.06-.08.07.07,0,0,0,0-.08l-.37-.17s-.06,0-.06,0l0,.06Zm.2.17s0,0,.07,0l.11.05-.12,0s-.06,0-.07,0A.1.1,0,0,1,15,8.43Z"/><polygon class="cls-1" points="14.8 8.19 14.8 8.2 14.81 8.19 14.8 8.19"/><polygon class="cls-1" points="14.8 8.2 14.8 8.2 14.81 8.19 14.81 8.19 14.8 8.2"/><path class="cls-1" d="M14.8,8.32a.06.06,0,0,1,0,0A.06.06,0,0,0,14.8,8.32Z"/><path class="cls-1" d="M14.78,8.26h0Z"/><path class="cls-2" d="M12.87,3.29a.05.05,0,0,0,.07,0s.05,0,.07,0a.72.72,0,0,1,.12.13s0,.06,0,.09,0,.1.05.1,0,0,0,0l.19-.42s0-.06,0-.08a.06.06,0,0,0-.08,0l-.41.17C12.81,3.23,12.83,3.26,12.87,3.29Zm.25,0c0-.06.08-.05.12-.08h0s0,0,0,0a.26.26,0,0,1,0,.08h0S13.11,3.27,13.12,3.24Z"/><path class="cls-2" d="M14.3,5.51a.15.15,0,0,0,.09,0,.05.05,0,0,1,.06,0c0,.08.1.15,0,.23s0,.07,0,.09,0,0,.06,0l.31-.3s0,0,0-.09a.08.08,0,0,0-.08-.06h-.43s-.05,0-.06,0S14.28,5.49,14.3,5.51Zm.27,0h.14s0,.05-.07.08,0,.05-.06,0,0,0,0-.08S14.54,5.52,14.57,5.52Z"/><path class="cls-1" d="M14.3,5.51s0,0,0-.1h0S14.28,5.49,14.3,5.51Z"/><polygon class="cls-1" points="14.28 5.4 14.28 5.41 14.28 5.4 14.28 5.4"/><path class="cls-2" d="M14.93,10.14l-.31-.25s-.05-.07-.08,0a.07.07,0,0,0,0,.12s.05,0,0,.05a.72.72,0,0,1-.05.17s-.06,0-.1,0-.06.06-.06.09,0,0,.07,0h.1l.33,0s.06,0,.08-.06S15,10.16,14.93,10.14Zm-.21.06c-.08,0-.09,0-.05-.09s0,0,.05,0l0,0s0,0,.06.07Z"/><path class="cls-2" d="M2.7,3.61s0,.07.06,0,.07-.05,0-.1,0-.08,0-.12.07-.14.17-.08.1,0,.1-.06,0,0,0,0L2.6,3.11a.07.07,0,0,0-.09,0,.08.08,0,0,0,0,.1Zm0-.35c.08,0,.08,0,0,.1s0,0-.06,0a.61.61,0,0,1-.06-.12Z"/><path d="M3.58,13.21s0-.08-.1,0-.1,0-.14,0-.12-.1-.05-.17a.1.1,0,0,0-.06-.08s0,0,0,0L3,13.36a.08.08,0,0,0,0,.1.07.07,0,0,0,.09,0l.38-.2S3.61,13.25,3.58,13.21Zm-.3.08-.08,0,0,0a.19.19,0,0,1,0-.1c0-.08,0-.08.1,0S3.32,13.27,3.28,13.29Z"/><path class="cls-2" d="M.83,6.67l.39.25s0,0,.05,0,0-.08,0-.1-.07,0-.05-.1,0-.15.1-.15.07,0,.07-.07,0-.06,0,0l-.45.09s-.05,0-.06.07A.06.06,0,0,0,.83,6.67Zm.26-.09s0,0,0,0a.15.15,0,0,1,0,.09s0,0,0,0L.94,6.62S1,6.59,1.08,6.58Z"/><path class="cls-2" d="M14.07,5s0,.06.08,0a.07.07,0,0,1,.1.05.44.44,0,0,0,0,.08.07.07,0,0,1,0,.09l0,0v0a.09.09,0,0,0,0,.08c.13-.11.24-.25.36-.37s0-.06,0-.08,0,0-.07,0l-.47,0S14.05,5,14.07,5Zm.26.06c0-.06.08,0,.11,0s0,0,0,0a.45.45,0,0,1-.1.11A.09.09,0,0,1,14.33,5.05Z"/><path class="cls-1" d="M14.23,5.33a.09.09,0,0,0,0,.08h0A.09.09,0,0,1,14.23,5.33Z"/><path class="cls-1" d="M14.24,5.3v0Z"/><polygon class="cls-1" points="14.28 5.4 14.28 5.4 14.28 5.4 14.28 5.4"/><path d="M3.77,13.47s-.08,0-.06.06,0,.09.1,0a.09.09,0,0,1,.12,0,.11.11,0,0,1,0,.12.28.28,0,0,1-.06.11.14.14,0,0,1-.15.07.11.11,0,0,1-.09-.13s0-.05-.07-.06,0,0,0,.06a.14.14,0,0,0,0,.09.25.25,0,0,0,.27.13.34.34,0,0,0,.23-.29A.23.23,0,0,0,3.77,13.47Z"/><path class="cls-2" d="M1.16,5.49l.4.16s.06,0,.07,0,0-.06,0-.07l-.08,0s-.06,0,0-.08a.32.32,0,0,0,0-.07.16.16,0,0,0-.15-.23.14.14,0,0,0-.14.08l-.09.2S1.12,5.48,1.16,5.49Zm.19-.23s.07,0,.07.08,0,.11-.06.12-.1,0-.11-.07S1.31,5.25,1.35,5.26Z"/><path class="cls-2" d="M1.55,10.24s0-.05-.05,0l-.08,0c-.05,0-.08,0-.09,0a.27.27,0,0,0-.05-.12.15.15,0,0,0-.17,0,.17.17,0,0,0-.12.15l.08.25s0,0,0,0l.43-.14S1.56,10.26,1.55,10.24Zm-.4.07c-.06,0-.05-.07-.06-.11a.06.06,0,0,1,.06-.08c.05,0,.11.07.11.13S1.18,10.3,1.15,10.3Z"/><path d="M10.18,14.88a.11.11,0,0,0-.13-.11c-.07,0-.13,0-.19,0s0-.1,0-.12a.11.11,0,0,1,.14,0s.07,0,.09,0,0,0,0-.07a.25.25,0,0,0-.34,0,.16.16,0,0,0,0,.17.14.14,0,0,0,.13.09H10s0,0,0,0h0l0,0h0v0h0L10,15s0,0-.07,0a.07.07,0,0,0-.09,0s0,0,0,0,0,.06.06.08h0a.08.08,0,0,1,.1,0,.09.09,0,0,0,.08,0s0,0,0,0a.1.1,0,0,0,.06-.1S10.17,14.89,10.18,14.88Z"/><path class="cls-2" d="M8.93,1.23A.07.07,0,0,0,9,1.3a.07.07,0,0,0,.08,0l.2-.4s0,0,0-.06-.07,0-.09,0S9.08,1,9,1.12H9L9,.8c0-.05,0-.05-.09-.05s0,0,0,.07Z"/><path class="cls-2" d="M14.36,10.86a.18.18,0,0,0-.18.18.19.19,0,0,0,.19.19.19.19,0,0,0,.19-.18A.19.19,0,0,0,14.36,10.86Z"/><path class="cls-2" d="M1.59,10.86a.19.19,0,1,0,.19.19A.19.19,0,0,0,1.59,10.86Z"/><path class="cls-2" d="M15.2,8.76c-.14.06-.27.16-.44.1s0,0-.05.06,0,0,0,0a.4.4,0,0,1,.28.11l.13.11s0,0,.05,0,0-.1-.07-.13-.11-.08,0-.14.11,0,.1-.1S15.23,8.74,15.2,8.76Z"/><path class="cls-2" d="M.7,7.88s.06,0,.05,0,0-.12.12-.1h.23s.09,0,.09,0,0-.06-.09-.06H.85c-.07,0-.1,0-.08-.09s0-.07,0-.07-.05,0-.05.06,0,.2,0,.31S.67,7.87.7,7.88Z"/><path d="M7,15.19c-.05,0-.07,0-.06-.09s0-.2.06-.3,0-.06,0-.07-.06,0-.07,0,0,.17,0,.26,0,.13-.1.09-.08,0-.08,0,0,0,.05.05l.27.05s.08,0,.09,0S7,15.2,7,15.19Z"/><path d="M9.66,15c-.07,0-.09,0-.1-.07s0-.18-.06-.28,0-.06-.08-.05,0,0,0,.07,0,.19.07.29,0,.08-.05.09h0a0,0,0,0,0,0,.05s0,0,0,0l.32-.07s.08,0,.06-.06S9.7,15,9.66,15Z"/><path class="cls-2" d="M11,1.89s0,.06,0,.07.06,0,.08,0l.12-.24c0-.09.05-.1.14,0s.06,0,.08,0,0,0,0,0l-.24-.12s-.07,0-.1,0,0,.06.05.07.06.06,0,.11S11.09,1.8,11,1.89Z"/><path d="M2.88,13.15c-.05,0-.05-.08,0-.13l.2-.18s0,0,0-.05,0,0,0-.06,0,0,0,0l-.19.18c-.08.08-.08.08-.16,0s0,0-.07,0,0,0,0,.07l.23.24s0,0,.06,0S2.91,13.17,2.88,13.15Z"/><path class="cls-2" d="M1.6,4.54,2,4.75s.05,0,.07,0a2.36,2.36,0,0,0,.16-.31.09.09,0,0,0-.13.07.81.81,0,0,1,0,.08s0,0-.09,0l-.27-.16s-.05,0-.07,0S1.56,4.52,1.6,4.54Z"/><polygon class="cls-1" points="2.19 4.43 2.19 4.43 2.19 4.43 2.19 4.43 2.19 4.43 2.19 4.43"/><circle class="cls-1" cx="2.19" cy="4.43" transform="translate(-2.72 5) rotate(-70.33)"/><path class="cls-2" d="M14.93,7.92h.31s.07,0,.06-.05,0-.06-.07-.06h-.4s-.06,0-.06.06,0,.18,0,.27h0a0,0,0,0,0,0,0s.07,0,.07-.06,0-.09,0-.14S14.88,7.92,14.93,7.92Z"/><circle class="cls-1" cx="14.81" cy="8.19" transform="translate(3.25 20.54) rotate(-75.84)"/><polygon class="cls-1" points="14.81 8.19 14.81 8.19 14.81 8.19 14.81 8.19"/><path class="cls-1" d="M14.78,8.16a0,0,0,0,0,0,0h0A0,0,0,0,1,14.78,8.16Z"/><path class="cls-2" d="M2.27,3.51l.24.2s.05,0,0,.08a.06.06,0,0,1-.08,0c-.05,0-.06,0-.07,0s0,0,0,.06a.17.17,0,0,0,.23-.16.15.15,0,0,0-.06-.12l-.25-.21s0,0-.08,0S2.24,3.48,2.27,3.51Z"/><path class="cls-2" d="M8.66,1.26s.06,0,.06-.06,0-.23,0-.34h0s0-.05,0-.08,0-.05-.06-.05-.05,0-.05,0,0,.28,0,.42S8.61,1.26,8.66,1.26Z"/><path class="cls-2" d="M11.38,2.13a.05.05,0,0,0,.05,0l.2-.37s0-.05,0-.07-.06,0-.08,0l-.21.37C11.29,2.12,11.36,2.11,11.38,2.13Z"/><path class="cls-2" d="M6.65,1.31s0,0,.05,0,.06,0,.05-.05L6.68.86s0,0-.06,0-.06,0,0,.05S6.63,1.17,6.65,1.31Z"/><path class="cls-2" d="M3.65,2.73a0,0,0,0,0,0,0s0,0,0,0v0L3.45,2.3s0,0-.07,0,0,0,0,.05Z"/><path d="M11.65,14.32l-.23-.4s0,0-.07,0,0,0,0,.05l.22.39a0,0,0,0,0,.06,0s0,0,0,0Z"/><path d="M3.69,13.28a0,0,0,0,0-.07,0l-.27.34s0,0,0,0l.06.05,0,0,.29-.36S3.7,13.3,3.69,13.28Z"/><path class="cls-2" d="M10.77,1.82s.06,0,.08,0L11,1.45l0-.06s0,0-.05-.06,0,0-.05,0l-.18.4S10.74,1.81,10.77,1.82Z"/><path d="M2.88,12.52s0-.05-.08,0l-.33.28s0,0,0,.06,0,0,.06,0l0,0,.33-.27S2.91,12.54,2.88,12.52Z"/><path d="M14.16,11.83l-.35-.22s-.06,0-.08,0,0,.06,0,.07l.35.22s0,0,0,0a.14.14,0,0,0,0-.06S14.18,11.84,14.16,11.83Z"/><path class="cls-2" d="M15,9.79l-.36-.1c-.09,0-.11,0-.11.08l0,0a1,1,0,0,1,.19,0,0,0,0,0,1,0,0,.68.68,0,0,1,.18,0s.06,0,.07,0S15.08,9.8,15,9.79Z"/><path d="M10.06,14.76a.67.67,0,0,0-.19,0C9.93,14.8,10,14.78,10.06,14.76Z"/><path class="cls-2" d="M15,6.72s-.06,0-.08,0v0S15,6.76,15,6.72Z"/><path class="cls-1" d="M14.9,6.73v0h0Z"/><path d="M9.91,15.05a.09.09,0,0,0,.1,0A.08.08,0,0,0,9.91,15.05Z"/><path d="M10,15H9.94S10,15,10,15Z"/><path d="M10.1,14.92v0h0l0,0v0Z"/><path class="cls-1" d="M10.08,14.88v0h0Z"/><circle class="cls-1" cx="10.09" cy="14.92" r="0.01" transform="translate(-7 9.23) rotate(-37.52)"/><path class="cls-2" d="M14.63,6.68s0,0,0,0l0,0S14.64,6.66,14.63,6.68Z"/><path class="cls-2" d="M14.71,6.78h0S14.69,6.8,14.71,6.78Z"/><path class="cls-2" d="M14.75,6.66h0Z"/><path class="cls-1" d="M14.74,6.66h0Z"/><path d="M10,14.86l0,0S10.07,14.84,10,14.86Z"/><path d="M10.18,14.88s0,0,0,0A0,0,0,0,0,10.18,14.88Z"/><path class="cls-2" d="M14.79,9.84s0,0,0,0A0,0,0,0,0,14.79,9.84Z"/><path class="cls-2" d="M14.56,9.78s0,0,0,0Z"/><path class="cls-2" d="M14.93,6.62s0,0,0,0A0,0,0,0,0,14.93,6.62Z"/><path d="M10.09,15s0,0,0,0S10.1,15,10.09,15Z"/><path class="cls-2" d="M15.06,6.59a0,0,0,0,0,0,0S15.06,6.57,15.06,6.59Z"/><path class="cls-2" d="M8,14.18A6.15,6.15,0,1,0,1.83,8,6.16,6.16,0,0,0,8,14.18ZM3.57,4.71A5.31,5.31,0,0,1,6.29,2.78,5.22,5.22,0,0,1,8,2.51a5.57,5.57,0,0,1,3.23,1.1A5.31,5.31,0,0,1,13.2,6.33a5.23,5.23,0,0,1,.27,1.74,5.56,5.56,0,0,1-1.1,3.24,5.33,5.33,0,0,1-2.72,1.93,6.57,6.57,0,0,1-1.21.25c-.07,0-.08,0-.08-.08q0-.59,0-1.18t0-1.18v-.59q0-.89,0-1.77c0-.07,0-.09-.08-.08H7.66c-.07,0-.08,0-.08.08,0,.81,0,1.63,0,2.44s0,1.53,0,2.3c0,0,0,.08-.06.07a8.49,8.49,0,0,1-1.15-.24,5,5,0,0,1-1.7-.86A5.29,5.29,0,0,1,2.74,9.69a5.23,5.23,0,0,1-.27-1.74A5.57,5.57,0,0,1,3.57,4.71Z"/><polygon class="cls-2" points="15.01 6.71 15.01 6.71 15.01 6.71 15.01 6.71"/><path class="cls-2" d="M12.78,3A.08.08,0,0,0,12.84,3s-.11-.15-.13-.14a.15.15,0,0,0-.08.09S12.75,3,12.78,3Z"/><path class="cls-2" d="M12.92,2.86s.05,0,.05-.06-.1-.13-.13-.13a.13.13,0,0,0-.06.07S12.89,2.86,12.92,2.86Z"/><circle class="cls-1" cx="13.56" cy="3.78" r="0.01" transform="translate(4.18 14.27) rotate(-63.76)"/><path class="cls-2" d="M10.09,1.24c.06,0,.09,0,.08-.06s-.1-.08-.15-.09-.06.05-.06.08S10.06,1.21,10.09,1.24Z"/><path d="M10.73,14.54h0s0,0,0,0h0Z"/><path d="M10.56,14.54h0a0,0,0,0,0,0,0h0l0,0Z"/><path class="cls-1" d="M10.57,14.56l0,0,0,0h0Z"/><polygon class="cls-1" points="10.55 14.57 10.55 14.57 10.55 14.57 10.55 14.57"/><path class="cls-1" d="M10.57,14.56h0Z"/><path class="cls-1" d="M10.55,14.57h0Z"/><path d="M10.56,14.54h0Z"/><path class="cls-2" d="M10.73,14.54h0v0l0,0h0Z"/><polygon class="cls-1" points="10.73 14.53 10.73 14.53 10.73 14.53 10.73 14.53"/><path class="cls-2" d="M3,2.94s.12-.1.13-.14a.06.06,0,0,0-.06-.06s-.15.09-.15.12A.12.12,0,0,0,3,2.94Z"/><path class="cls-2" d="M.9,9.29s.08,0,.08,0S1,9.08.9,9.08s-.08,0-.07.06S.82,9.28.9,9.29Z"/><path class="cls-2" d="M13,12.78a.15.15,0,0,0-.14.14.25.25,0,0,0,.2.2A.14.14,0,0,0,13.2,13,.23.23,0,0,0,13,12.78Z"/><path class="cls-2" d="M4.83,1.89A.14.14,0,0,0,5,1.75c0-.1-.09-.21-.17-.21a.14.14,0,0,0-.14.15A.2.2,0,0,0,4.83,1.89Z"/><path class="cls-2" d="M2.47,12.21a.23.23,0,0,0-.21.18.15.15,0,0,0,.13.15.24.24,0,0,0,.21-.19A.15.15,0,0,0,2.47,12.21Z"/><path class="cls-2" d="M4.31,13.86a.22.22,0,0,0-.18.2.14.14,0,0,0,.13.14A.22.22,0,0,0,4.45,14,.14.14,0,0,0,4.31,13.86Z"/><path class="cls-2" d="M8.56,15.13a.28.28,0,0,0,0,0h0s0-.09,0-.14,0,0,0-.06a.14.14,0,0,0-.18.14.34.34,0,0,0,0,.14.14.14,0,0,0,.17.07C8.59,15.22,8.55,15.16,8.56,15.13Z"/><path class="cls-2" d="M13.56,12.51l-.17-.14s-.05,0-.08,0-.08.08-.05.15a.3.3,0,0,0,.21.15s.07,0,.1-.07S13.61,12.54,13.56,12.51Z"/><path class="cls-2" d="M4.29,2.16s0,0,0,0A.21.21,0,0,0,4.45,2a.3.3,0,0,0-.13-.21.19.19,0,0,0-.17.05,0,0,0,0,0,0,0Z"/><path class="cls-2" d="M15,7.43a.13.13,0,0,0,0,.09,0,0,0,0,0,0,0s.09,0,.13-.08l-.14,0S15,7.41,15,7.43Z"/><path class="cls-2" d="M7,1.09l.09,0s0,0,0,0S7.06.94,7,.91l0,.14S7,1.09,7,1.09Z"/><path class="cls-2" d="M5.77,14.66s-.06,0-.08,0,0,0,0,.07,0,.06,0,.11.08-.08.11-.11S5.8,14.67,5.77,14.66Z"/><path class="cls-2" d="M11.15,14.26c-.08,0-.08,0,0,.1l.08.07a.32.32,0,0,0,0-.15S11.19,14.24,11.15,14.26Z"/><path class="cls-2" d="M2.06,4S2,4,2,4s0,.09.09.11.07-.05.06-.07S2.1,4,2.06,4Z"/><path class="cls-2" d="M.95,8.19s0,0,0-.06,0-.07,0-.06-.12,0-.12.05S.9,8.17.95,8.19Z"/><path class="cls-2" d="M15,8.53l.12,0L15,8.44s0,0-.07,0a.1.1,0,0,0,0,.09S15,8.54,15,8.53Z"/><path class="cls-2" d="M13.19,3.31h0a.26.26,0,0,0,0-.08s0,0,0,0h0s-.11,0-.12.08S13.15,3.3,13.19,3.31Z"/><path class="cls-1" d="M13.21,3.29h0Z"/><path class="cls-1" d="M13.22,3.28h0Z"/><path class="cls-1" d="M13.27,3.18a.26.26,0,0,1,0,.08.26.26,0,0,0,0-.08s0,0,0,0S13.26,3.17,13.27,3.18Z"/><path class="cls-2" d="M14.58,5.64s0,0,.06,0,.05,0,.07-.08h-.14s0,0,0,0S14.55,5.63,14.58,5.64Z"/><path class="cls-2" d="M14.76,10.13l0,0s0,0-.05,0,0,.09.05.09h.1S14.78,10.15,14.76,10.13Z"/><path class="cls-2" d="M2.75,3.36c.06-.06.06-.07,0-.1l-.1,0a.61.61,0,0,0,.06.12C2.71,3.4,2.72,3.38,2.75,3.36Z"/><path class="cls-2" d="M3.29,13.22c-.06-.06-.07-.06-.1,0a.19.19,0,0,0,0,.1l0,0,.08,0S3.32,13.25,3.29,13.22Z"/><path class="cls-2" d="M1.09,6.69a.15.15,0,0,0,0-.09s0,0,0,0-.1,0-.15,0l.11.07S1.08,6.71,1.09,6.69Z"/><path class="cls-2" d="M14.39,5.14a.45.45,0,0,0,.1-.11s0,0,0,0-.1,0-.11,0A.09.09,0,0,0,14.39,5.14Z"/><path class="cls-2" d="M1.35,5.45s.05-.07.06-.12,0-.07-.07-.08-.11.08-.1.13S1.32,5.45,1.35,5.45Z"/><path class="cls-2" d="M1.14,10.11a.06.06,0,0,0-.06.08s0,.11.06.11.1,0,.1-.06S1.19,10.11,1.14,10.11Z"/><path d="M2.74,9.69a5.29,5.29,0,0,0,1.93,2.72,5,5,0,0,0,1.7.86,8.49,8.49,0,0,0,1.15.24c.07,0,.06,0,.06-.07q0-1.15,0-2.3c0-.81,0-1.63,0-2.44,0-.07,0-.08.08-.08h.62c.07,0,.08,0,.08.08q0,.89,0,1.77v.59q0,.59,0,1.18t0,1.18c0,.07,0,.08.08.08a6.57,6.57,0,0,0,1.21-.25,5.33,5.33,0,0,0,2.72-1.93,5.56,5.56,0,0,0,1.1-3.24,5.23,5.23,0,0,0-.27-1.74,5.31,5.31,0,0,0-1.93-2.72A5.57,5.57,0,0,0,8,2.51a5.22,5.22,0,0,0-1.74.27A5.31,5.31,0,0,0,3.57,4.71a5.57,5.57,0,0,0-1.1,3.23A5.23,5.23,0,0,0,2.74,9.69Zm4.06,3A4.79,4.79,0,0,1,3.27,8.89l0-.28H4.69c.06,0,.07,0,.08.07,0,.52,0,1,0,1.55,0,0,0,.06,0,.07s.05,0,.07,0a.71.71,0,0,1,.69-.07,3,3,0,0,1,1.25.91.15.15,0,0,1,0,.11c0,.45,0,.91,0,1.36C6.87,12.65,6.86,12.66,6.8,12.64Zm.09-4.15c0,.21,0,.41,0,.62s0,.69,0,1c0,0,0,0,0,.06a4.87,4.87,0,0,0-.52-.39,1.58,1.58,0,0,0-.87-.26c-.06,0-.08,0-.08-.08,0-.4,0-.79,0-1.19l0-1.37c0-.19,0-.37,0-.56a.09.09,0,0,1,.07-.1,1.19,1.19,0,0,1,1.07.06,3.38,3.38,0,0,1,.35.21s.05,0,.05.08q0,.84,0,1.67Zm2.17,1.65q0-.91,0-1.82a.38.38,0,0,1,0,0V6.62s0-.06,0-.09a2,2,0,0,1,.79-.37,1.18,1.18,0,0,1,.68.1.06.06,0,0,1,0,.06q0,.67,0,1.34,0,.16,0,.31v.91q0,.3,0,.6c0,.06,0,0-.07.05a1.57,1.57,0,0,0-.74.19,3.66,3.66,0,0,0-.64.46S9.05,10.16,9.05,10.15Zm3.64-1.43a4.74,4.74,0,0,1-1.52,2.84,4.68,4.68,0,0,1-2.06,1.09h0v-.07c0-.46,0-.91,0-1.37a.15.15,0,0,1,0-.12,3,3,0,0,1,1.25-.91.71.71,0,0,1,.69.08s0,0,.06,0,0,0,0-.07c0-.51,0-1,0-1.53,0-.06,0-.08.08-.08H12.6C12.71,8.61,12.71,8.61,12.69,8.71ZM7.05,3.33A4.77,4.77,0,0,1,12.65,7a5,5,0,0,1,.1,1.17c0,.06,0,.08-.08.08h-1.4c-.07,0-.08,0-.08-.09,0-.38,0-.76,0-1.13h0c0-.36,0-.72,0-1.08a.27.27,0,0,0-.15-.26,2.15,2.15,0,0,0-.9-.26,2.13,2.13,0,0,0-1.68.63.4.4,0,0,0-.14.34c0,.59,0,1.19,0,1.78,0,.07,0,.09-.08.08H7.67c-.07,0-.09,0-.09-.09,0-.61,0-1.22,0-1.84a.27.27,0,0,0-.09-.21,2.57,2.57,0,0,0-.7-.49,2,2,0,0,0-1.07-.18,2.17,2.17,0,0,0-.85.25A.29.29,0,0,0,4.71,6c0,.72,0,1.45,0,2.17,0,.08,0,.1-.1.1H3.28c-.07,0-.09,0-.09-.09A4.77,4.77,0,0,1,7.05,3.33Z"/><path class="cls-1" d="M3.28,8.29H4.66c.08,0,.1,0,.1-.1,0-.72,0-1.45,0-2.17a.29.29,0,0,1,.17-.29,2.17,2.17,0,0,1,.85-.25,2,2,0,0,1,1.07.18,2.57,2.57,0,0,1,.7.49.27.27,0,0,1,.09.21c0,.61,0,1.22,0,1.84,0,.07,0,.09.09.09h.61c.07,0,.08,0,.08-.08,0-.59,0-1.19,0-1.78a.4.4,0,0,1,.14-.34,2.13,2.13,0,0,1,1.68-.63,2.15,2.15,0,0,1,.9.26.27.27,0,0,1,.15.26c0,.36,0,.72,0,1.08h0c0,.38,0,.76,0,1.13,0,.07,0,.09.08.09h1.4c.06,0,.08,0,.08-.08A5,5,0,0,0,12.65,7,4.78,4.78,0,0,0,3.19,8.2C3.2,8.26,3.21,8.29,3.28,8.29Zm4.38-3.1L7.83,5a.24.24,0,0,0,0-.35c-.23-.27-.23-.41,0-.73.07-.12.17-.22.25-.34,0,.06,0,.13,0,.19a.6.6,0,0,0,.22.28.85.85,0,0,1,.19.15.58.58,0,0,1-.16.86l0,0s-.1,0-.12.09,0,.08.06.12a0,0,0,0,1,0,.06L8,5.64s0,0-.06,0l-.32-.38S7.63,5.21,7.66,5.19ZM6.82,5c0-.06,0-.07.11-.07A.87.87,0,0,1,7.17,5a2,2,0,0,1,.55.42L8,5.72s.06,0,.09,0A3.71,3.71,0,0,1,8.95,5a.27.27,0,0,1,.18,0s.08,0,.09.05a.11.11,0,0,1-.07.11,2.78,2.78,0,0,0-1.07.73c-.06.06-.09.06-.16,0a4.15,4.15,0,0,0-.67-.55,1.51,1.51,0,0,0-.36-.18A.1.1,0,0,1,6.82,5Z"/><path class="cls-2" d="M12.6,8.61H11.25c-.07,0-.08,0-.08.08,0,.51,0,1,0,1.53,0,0,0,.06,0,.07s0,0-.06,0a.71.71,0,0,0-.69-.08,3,3,0,0,0-1.25.91.15.15,0,0,0,0,.12c0,.46,0,.91,0,1.37v.07h0a4.68,4.68,0,0,0,2.06-1.09,4.74,4.74,0,0,0,1.52-2.84C12.71,8.61,12.71,8.61,12.6,8.61Z"/><path class="cls-2" d="M6.87,11.23a.15.15,0,0,0,0-.11,3,3,0,0,0-1.25-.91.71.71,0,0,0-.69.07s0,0-.07,0,0,0,0-.07c0-.52,0-1,0-1.55,0-.06,0-.07-.08-.07H3.23l0,.28A4.79,4.79,0,0,0,6.8,12.64c.06,0,.07,0,.07-.06C6.87,12.13,6.87,11.68,6.87,11.23Z"/><path class="cls-1" d="M10.54,8.29V8q0-.16,0-.31,0-.67,0-1.34a.06.06,0,0,0,0-.06,1.18,1.18,0,0,0-.68-.1,2,2,0,0,0-.79.37s0,.05,0,.09V8.29h1.48Z"/><path class="cls-1" d="M10.54,8.29h0v0Z"/><path class="cls-1" d="M6.88,8.29q0-.84,0-1.67s0-.06-.05-.08a3.38,3.38,0,0,0-.35-.21,1.19,1.19,0,0,0-1.07-.06.09.09,0,0,0-.07.1c0,.19,0,.37,0,.56l0,1.37H6.88Z"/><path class="cls-1" d="M6.88,8.29h0q0-.84,0-1.67Q6.89,7.45,6.88,8.29Z"/><path class="cls-2" d="M5.4,8.29c0,.4,0,.79,0,1.19,0,.06,0,.07.08.08a1.58,1.58,0,0,1,.87.26,4.87,4.87,0,0,1,.52.39s0,0,0-.06c0-.35,0-.69,0-1s0-.41,0-.62V8.29Z"/><path class="cls-1" d="M6.88,8.49V8.29h0Z"/><path class="cls-2" d="M10.45,9.53s.07,0,.07-.05,0-.4,0-.6v-.6H9.06a.38.38,0,0,0,0,0q0,.91,0,1.82s0,0,0,0a3.66,3.66,0,0,1,.64-.46A1.57,1.57,0,0,1,10.45,9.53Z"/><path class="cls-1" d="M10.53,8.88q0,.3,0,.6Q10.52,9.18,10.53,8.88Z"/><path class="cls-1" d="M10.53,8.88v-.6h0Z"/><path d="M8,5.64s0,0,.06,0l.22-.24a0,0,0,0,0,0-.06s-.08-.08-.06-.12.08-.06.12-.09l0,0a.58.58,0,0,0,.16-.86.85.85,0,0,0-.19-.15.6.6,0,0,1-.22-.28c0-.06,0-.13,0-.19-.09.11-.18.22-.25.34-.2.31-.19.45,0,.73a.24.24,0,0,1,0,.35l-.17.14s0,0,0,.08Z"/><path d="M6.89,5.16a1.51,1.51,0,0,1,.36.18,4.15,4.15,0,0,1,.67.55c.06.06.1.06.16,0a2.78,2.78,0,0,1,1.07-.73A.11.11,0,0,0,9.21,5S9.16,5,9.12,5a.27.27,0,0,0-.18,0,3.71,3.71,0,0,0-.89.69S8,5.77,8,5.72l-.24-.26A2,2,0,0,0,7.17,5,.87.87,0,0,0,6.93,5c-.06,0-.1,0-.11.07A.1.1,0,0,0,6.89,5.16Z"/><text class="cls-3" transform="translate(1.15 8.61) rotate(-92.34) scale(1.02 1)">P</text><text class="cls-3" transform="translate(1.13 8.14) rotate(-88.64) scale(1.02 1)">E</text><text class="cls-3" transform="matrix(0.09, -1.02, 1, 0.09, 1.14, 7.72)">R</text><text class="cls-3" transform="translate(1.18 7.24) rotate(-81.15) scale(1.02 1)">S</text><text class="cls-3" transform="translate(1.26 6.8) rotate(-77.13) scale(1.02 1)">A</text><text class="cls-3" transform="matrix(0.29, -0.98, 0.96, 0.28, 1.35, 6.36)">T</text><text class="cls-3" transform="translate(1.46 5.97) rotate(-69.42) scale(1.02 1)">U</text><text class="cls-3" transform="translate(1.65 5.47) rotate(-65.13) scale(1.02 1)">A</text><text class="cls-3" transform="translate(1.86 5) rotate(-60.59) scale(1.02 1)">N</text><text class="cls-3" transform="translate(2.14 4.52) rotate(-57.6) scale(1.02 1)"> </text><text class="cls-3" transform="translate(2.23 4.38) rotate(-54.87) scale(1.02 1)">P</text><text class="cls-3" transform="translate(2.49 4.01) rotate(-51.88) scale(1.02 1)">E</text><text class="cls-3" transform="translate(2.75 3.67) rotate(-47.51) scale(1.02 1)">L</text><text class="cls-3" transform="matrix(0.74, -0.71, 0.69, 0.72, 3.02, 3.37)">A</text><text class="cls-3" transform="matrix(0.78, -0.66, 0.65, 0.76, 3.41, 3.01)">J</text><text class="cls-3" transform="translate(3.65 2.79) rotate(-36.68) scale(1.02 1)">A</text><text class="cls-3" transform="translate(4.08 2.48) rotate(-32.47) scale(1.02 1)">R</text><text class="cls-3" transform="matrix(0.89, -0.51, 0.5, 0.87, 4.48, 2.22)"> </text><text class="cls-3" transform="matrix(0.9, -0.48, 0.47, 0.88, 4.61, 2.15)">I</text><text class="cls-3" transform="translate(4.82 2.04) rotate(-24.87) scale(1.02 1)">N</text><text class="cls-3" transform="translate(5.32 1.8) rotate(-20.15) scale(1.02 1)">D</text><text class="cls-3" transform="translate(5.81 1.62) rotate(-15.39) scale(1.02 1)">O</text><text class="cls-3" transform="translate(6.38 1.46) rotate(-10.73) scale(1.02 1)">N</text><text class="cls-3" transform="translate(6.93 1.36) rotate(-6.67) scale(1.02 1)">E</text><text class="cls-3" transform="translate(7.33 1.31) rotate(-3.11) scale(1.02 1)">S</text><text class="cls-3" transform="translate(7.76 1.29) rotate(-0.38) scale(1.02 1)">I</text><text class="cls-3" transform="matrix(1.02, 0.05, -0.05, 1, 7.98, 1.28)">A</text><text class="cls-3" transform="matrix(1.02, 0.1, -0.1, 1, 8.54, 1.32)"> </text><text class="cls-3" transform="translate(8.67 1.33) rotate(8.5) scale(1.02 1)">U</text><text class="cls-3" transform="translate(9.21 1.4) rotate(13.09) scale(1.02 1)">N</text><text class="cls-3" transform="translate(9.75 1.53) rotate(16.36) scale(1.02 1)">I</text><text class="cls-3" transform="matrix(0.97, 0.34, -0.33, 0.94, 9.98, 1.59)">V</text><text class="cls-3" transform="matrix(0.94, 0.4, -0.4, 0.92, 10.45, 1.76)">E</text><text class="cls-3" transform="matrix(0.91, 0.47, -0.45, 0.89, 10.82, 1.92)">R</text><text class="cls-3" transform="matrix(0.88, 0.52, -0.51, 0.86, 11.25, 2.14)">S</text><text class="cls-3" transform="matrix(0.85, 0.57, -0.55, 0.83, 11.63, 2.37)">I</text><text class="cls-3" transform="matrix(0.82, 0.61, -0.59, 0.81, 11.79, 2.48)">T</text><text class="cls-3" transform="matrix(0.79, 0.65, -0.63, 0.78, 12.16, 2.75)">I</text><text class="cls-3" transform="matrix(0.78, 0.67, -0.65, 0.76, 12.33, 2.89)"> </text><text class="cls-3" transform="translate(12.44 2.98) rotate(43.27) scale(1.02 1)">P</text><text class="cls-3" transform="matrix(0.69, 0.75, -0.74, 0.68, 12.8, 3.31)">U</text><text class="cls-3" transform="matrix(0.64, 0.8, -0.78, 0.62, 13.16, 3.7)">T</text><text class="cls-3" transform="translate(13.44 4.05) rotate(55.25) scale(1.02 1)">R</text><text class="cls-3" transform="matrix(0.52, 0.88, -0.86, 0.51, 13.71, 4.45)">A</text><text class="cls-3" transform="translate(13.97 4.9) rotate(62.35) scale(1.02 1)"> </text><text class="cls-3" transform="matrix(0.42, 0.93, -0.91, 0.41, 14.05, 5.03)">M</text><text class="cls-3" transform="translate(14.32 5.63) rotate(70.74) scale(1.02 1)">A</text><text class="cls-3" transform="translate(14.49 6.14) rotate(74.65) scale(1.02 1)">L</text><text class="cls-3" transform="translate(14.6 6.53) rotate(78.58) scale(1.02 1)">A</text><text class="cls-3" transform="matrix(0.14, 1.01, -0.99, 0.14, 14.69, 6.96)">Y</text><text class="cls-3" transform="translate(14.76 7.43) rotate(85.74) scale(1.02 1)">S</text><text class="cls-3" transform="translate(14.78 7.86) rotate(88.47) scale(1.02 1)">I</text><text class="cls-3" transform="matrix(-0.03, 1.02, -1, -0.03, 14.79, 8.07)">A</text><path d="M1.23,10.23a.19.19,0,1,0,.19.19A.19.19,0,0,0,1.23,10.23Z"/><path d="M14.66,10.25a.19.19,0,1,0,.19.19A.19.19,0,0,0,14.66,10.25Z"/></svg>